G04 #@! TF.GenerationSoftware,KiCad,Pcbnew,(5.99.0-8557-gaf5825bd36)*
G04 #@! TF.CreationDate,2021-01-26T13:49:01+03:00*
G04 #@! TF.ProjectId,StickHub,53746963-6b48-4756-922e-6b696361645f,rev?*
G04 #@! TF.SameCoordinates,Original*
G04 #@! TF.FileFunction,AssemblyDrawing,Bot*
%FSLAX46Y46*%
G04 Gerber Fmt 4.6, Leading zero omitted, Abs format (unit mm)*
G04 Created by KiCad (PCBNEW (5.99.0-8557-gaf5825bd36)) date 2021-01-26 13:49:01*
%MOMM*%
%LPD*%
G01*
G04 APERTURE LIST*
G04 #@! TA.AperFunction,Profile*
%ADD10C,0.100000*%
G04 #@! TD*
%ADD11C,0.050000*%
%ADD12C,0.075000*%
%ADD13C,0.062500*%
%ADD14C,0.150000*%
%ADD15C,0.125000*%
%ADD16C,0.100000*%
G04 APERTURE END LIST*
D10*
X152250000Y-80000000D02*
X157000000Y-80000000D01*
X148500000Y-81000000D02*
X151500000Y-81000000D01*
X157000000Y-108500000D02*
X156100000Y-108500000D01*
X141750000Y-107250000D02*
X141750000Y-81250000D01*
X156100000Y-120000000D02*
X156100000Y-108500000D01*
X148000000Y-80250000D02*
X148000000Y-80500000D01*
X152000000Y-80250000D02*
G75*
G02*
X152250000Y-80000000I250000J0D01*
G01*
X143900000Y-120000000D02*
X143900000Y-108500000D01*
X141750000Y-81250000D02*
G75*
G02*
X143000000Y-80000000I1250000J0D01*
G01*
X147750000Y-80000000D02*
G75*
G02*
X148000000Y-80250000I0J-250000D01*
G01*
X143000000Y-108500000D02*
G75*
G02*
X141750000Y-107250000I0J1250000D01*
G01*
X143900000Y-120000000D02*
X156100000Y-120000000D01*
X158250000Y-81250000D02*
X158250000Y-107250000D01*
X143000000Y-80000000D02*
X147750000Y-80000000D01*
X158250000Y-107250000D02*
G75*
G02*
X157000000Y-108500000I-1250000J0D01*
G01*
X157000000Y-80000000D02*
G75*
G02*
X158250000Y-81250000I0J-1250000D01*
G01*
X148500000Y-81000000D02*
G75*
G02*
X148000000Y-80500000I0J500000D01*
G01*
X143900000Y-108500000D02*
X143000000Y-108500000D01*
X152000000Y-80500000D02*
G75*
G02*
X151500000Y-81000000I-500000J0D01*
G01*
X152000000Y-80500000D02*
X152000000Y-80250000D01*
D11*
G04 #@! TO.C,C36*
X152730756Y-86169970D02*
X152717287Y-86169970D01*
X152697084Y-86176704D01*
X152663412Y-86210376D01*
X152656678Y-86230579D01*
X152656678Y-86244048D01*
X152663412Y-86264251D01*
X152676881Y-86277719D01*
X152703818Y-86291188D01*
X152865443Y-86291188D01*
X152777896Y-86378735D01*
X152596069Y-86304657D02*
X152582600Y-86304657D01*
X152562397Y-86311391D01*
X152528725Y-86345063D01*
X152521991Y-86365266D01*
X152521991Y-86378735D01*
X152528725Y-86398938D01*
X152542194Y-86412406D01*
X152569131Y-86425875D01*
X152730756Y-86425875D01*
X152643209Y-86513422D01*
X152427710Y-86540359D02*
X152521991Y-86634640D01*
X152488319Y-86479750D02*
X152562397Y-86553828D01*
X152569131Y-86574031D01*
X152562397Y-86594234D01*
X152542194Y-86614437D01*
X152521991Y-86621171D01*
X152508522Y-86621171D01*
X152333429Y-86675046D02*
X152380569Y-86627906D01*
X152454647Y-86701983D02*
X152313226Y-86560562D01*
X152245882Y-86627906D01*
X152151602Y-87005029D02*
X152232414Y-86924217D01*
X152192008Y-86964623D02*
X152050586Y-86823202D01*
X152084258Y-86829936D01*
X152111195Y-86829936D01*
X152131398Y-86823202D01*
X151922634Y-86951154D02*
X151909165Y-86964623D01*
X151902431Y-86984826D01*
X151902431Y-86998295D01*
X151909165Y-87018498D01*
X151929368Y-87052170D01*
X151963040Y-87085841D01*
X151996711Y-87106044D01*
X152016915Y-87112779D01*
X152030383Y-87112779D01*
X152050586Y-87106044D01*
X152064055Y-87092576D01*
X152070789Y-87072373D01*
X152070789Y-87058904D01*
X152064055Y-87038701D01*
X152043852Y-87005029D01*
X152010180Y-86971357D01*
X151976508Y-86951154D01*
X151956305Y-86944420D01*
X151942837Y-86944420D01*
X151922634Y-86951154D01*
X151835087Y-87038701D02*
X151929368Y-87227263D01*
X151740806Y-87132982D01*
D12*
G04 #@! TO.C,R7*
X152851091Y-93479567D02*
X152992512Y-93620989D01*
X152820786Y-93348247D02*
X153022817Y-93449263D01*
X152891497Y-93580582D01*
X152689467Y-93499770D02*
X152548045Y-93641192D01*
X152851091Y-93762410D01*
X152426827Y-93762410D02*
X152406624Y-93782613D01*
X152396522Y-93812918D01*
X152396522Y-93833121D01*
X152406624Y-93863425D01*
X152436928Y-93913933D01*
X152487436Y-93964440D01*
X152537944Y-93994745D01*
X152568248Y-94004847D01*
X152588451Y-94004847D01*
X152618756Y-93994745D01*
X152638959Y-93974542D01*
X152649061Y-93944237D01*
X152649061Y-93924034D01*
X152638959Y-93893730D01*
X152608654Y-93843222D01*
X152558147Y-93792715D01*
X152507639Y-93762410D01*
X152477335Y-93752308D01*
X152457132Y-93752308D01*
X152426827Y-93762410D01*
G04 #@! TO.C,C32*
X141914284Y-101578571D02*
X141899999Y-101592857D01*
X141885713Y-101621428D01*
X141885713Y-101692857D01*
X141899999Y-101721428D01*
X141914284Y-101735714D01*
X141942856Y-101750000D01*
X141971427Y-101750000D01*
X142014284Y-101735714D01*
X142185713Y-101564285D01*
X142185713Y-101750000D01*
X141914284Y-101864285D02*
X141899999Y-101878571D01*
X141885713Y-101907142D01*
X141885713Y-101978571D01*
X141899999Y-102007142D01*
X141914284Y-102021428D01*
X141942856Y-102035714D01*
X141971427Y-102035714D01*
X142014284Y-102021428D01*
X142185713Y-101850000D01*
X142185713Y-102035714D01*
X141985713Y-102292857D02*
X142185713Y-102292857D01*
X141985713Y-102164285D02*
X142142856Y-102164285D01*
X142171427Y-102178571D01*
X142185713Y-102207142D01*
X142185713Y-102250000D01*
X142171427Y-102278571D01*
X142157141Y-102292857D01*
X142028570Y-102535714D02*
X142028570Y-102435714D01*
X142185713Y-102435714D02*
X141885713Y-102435714D01*
X141885713Y-102578571D01*
X142185713Y-103078571D02*
X142185713Y-102907142D01*
X142185713Y-102992857D02*
X141885713Y-102992857D01*
X141928570Y-102964285D01*
X141957141Y-102935714D01*
X141971427Y-102907142D01*
X141885713Y-103264285D02*
X141885713Y-103292857D01*
X141899999Y-103321428D01*
X141914284Y-103335714D01*
X141942856Y-103350000D01*
X141999999Y-103364285D01*
X142071427Y-103364285D01*
X142128570Y-103350000D01*
X142157141Y-103335714D01*
X142171427Y-103321428D01*
X142185713Y-103292857D01*
X142185713Y-103264285D01*
X142171427Y-103235714D01*
X142157141Y-103221428D01*
X142128570Y-103207142D01*
X142071427Y-103192857D01*
X141999999Y-103192857D01*
X141942856Y-103207142D01*
X141914284Y-103221428D01*
X141899999Y-103235714D01*
X141885713Y-103264285D01*
X141885713Y-103450000D02*
X142185713Y-103550000D01*
X141885713Y-103650000D01*
D11*
G04 #@! TO.C,D23*
X146540476Y-108211904D02*
X146540476Y-108326190D01*
X146740476Y-108269047D02*
X146540476Y-108269047D01*
X146540476Y-108364285D02*
X146740476Y-108430952D01*
X146540476Y-108497619D01*
X146730952Y-108554761D02*
X146740476Y-108583333D01*
X146740476Y-108630952D01*
X146730952Y-108650000D01*
X146721428Y-108659523D01*
X146702380Y-108669047D01*
X146683333Y-108669047D01*
X146664285Y-108659523D01*
X146654761Y-108650000D01*
X146645238Y-108630952D01*
X146635714Y-108592857D01*
X146626190Y-108573809D01*
X146616666Y-108564285D01*
X146597619Y-108554761D01*
X146578571Y-108554761D01*
X146559523Y-108564285D01*
X146550000Y-108573809D01*
X146540476Y-108592857D01*
X146540476Y-108640476D01*
X146550000Y-108669047D01*
G04 #@! TO.C,C37*
X152023649Y-85462863D02*
X152010180Y-85462863D01*
X151989977Y-85469597D01*
X151956305Y-85503269D01*
X151949571Y-85523472D01*
X151949571Y-85536941D01*
X151956305Y-85557144D01*
X151969774Y-85570612D01*
X151996711Y-85584081D01*
X152158336Y-85584081D01*
X152070789Y-85671628D01*
X151888962Y-85597550D02*
X151875493Y-85597550D01*
X151855290Y-85604284D01*
X151821618Y-85637956D01*
X151814884Y-85658159D01*
X151814884Y-85671628D01*
X151821618Y-85691831D01*
X151835087Y-85705299D01*
X151862024Y-85718768D01*
X152023649Y-85718768D01*
X151936102Y-85806315D01*
X151720603Y-85833252D02*
X151814884Y-85927533D01*
X151781212Y-85772643D02*
X151855290Y-85846721D01*
X151862024Y-85866924D01*
X151855290Y-85887127D01*
X151835087Y-85907330D01*
X151814884Y-85914064D01*
X151801415Y-85914064D01*
X151626322Y-85967939D02*
X151673462Y-85920799D01*
X151747540Y-85994876D02*
X151606119Y-85853455D01*
X151538775Y-85920799D01*
X151444495Y-86297922D02*
X151525307Y-86217110D01*
X151484901Y-86257516D02*
X151343479Y-86116095D01*
X151377151Y-86122829D01*
X151404088Y-86122829D01*
X151424291Y-86116095D01*
X151215527Y-86244047D02*
X151202058Y-86257516D01*
X151195324Y-86277719D01*
X151195324Y-86291188D01*
X151202058Y-86311391D01*
X151222261Y-86345063D01*
X151255933Y-86378734D01*
X151289604Y-86398937D01*
X151309808Y-86405672D01*
X151323276Y-86405672D01*
X151343479Y-86398937D01*
X151356948Y-86385469D01*
X151363682Y-86365266D01*
X151363682Y-86351797D01*
X151356948Y-86331594D01*
X151336745Y-86297922D01*
X151303073Y-86264250D01*
X151269401Y-86244047D01*
X151249198Y-86237313D01*
X151235730Y-86237313D01*
X151215527Y-86244047D01*
X151127980Y-86331594D02*
X151222261Y-86520156D01*
X151033699Y-86425875D01*
G04 #@! TO.C,C11*
X155408460Y-93077190D02*
X155421929Y-93063721D01*
X155428663Y-93043518D01*
X155428663Y-93030049D01*
X155421929Y-93009846D01*
X155401726Y-92976174D01*
X155368054Y-92942503D01*
X155334383Y-92922300D01*
X155314180Y-92915565D01*
X155300711Y-92915565D01*
X155280508Y-92922300D01*
X155267039Y-92935768D01*
X155260305Y-92955971D01*
X155260305Y-92969440D01*
X155267039Y-92989643D01*
X155287242Y-93023315D01*
X155320914Y-93056987D01*
X155354586Y-93077190D01*
X155374789Y-93083924D01*
X155388257Y-93083924D01*
X155408460Y-93077190D01*
X155388257Y-92841487D02*
X155388257Y-92828019D01*
X155374789Y-92828019D01*
X155374789Y-92841487D01*
X155388257Y-92841487D01*
X155374789Y-92828019D01*
X155516210Y-92686597D02*
X155435398Y-92767410D01*
X155475804Y-92727003D02*
X155617225Y-92868425D01*
X155583554Y-92861690D01*
X155556616Y-92861690D01*
X155536413Y-92868425D01*
X155731709Y-92659660D02*
X155637428Y-92565379D01*
X155671100Y-92720269D02*
X155597022Y-92646191D01*
X155590288Y-92625988D01*
X155597022Y-92605785D01*
X155617225Y-92585582D01*
X155637428Y-92578848D01*
X155650897Y-92578848D01*
X155825990Y-92524973D02*
X155778850Y-92572113D01*
X155704772Y-92498035D02*
X155846193Y-92639457D01*
X155913537Y-92572113D01*
D12*
G04 #@! TO.C,R13*
X149027663Y-93393704D02*
X149169085Y-93252283D01*
X148896343Y-93424009D02*
X148997359Y-93221978D01*
X149128678Y-93353298D01*
X149047866Y-93555328D02*
X149189288Y-93696750D01*
X149310506Y-93393704D01*
X149310506Y-93817968D02*
X149330709Y-93838171D01*
X149361014Y-93848273D01*
X149381217Y-93848273D01*
X149411521Y-93838171D01*
X149462029Y-93807867D01*
X149512536Y-93757359D01*
X149542841Y-93706851D01*
X149552943Y-93676547D01*
X149552943Y-93656344D01*
X149542841Y-93626039D01*
X149522638Y-93605836D01*
X149492333Y-93595734D01*
X149472130Y-93595734D01*
X149441826Y-93605836D01*
X149391318Y-93636141D01*
X149340811Y-93686648D01*
X149310506Y-93737156D01*
X149300404Y-93767460D01*
X149300404Y-93787663D01*
X149310506Y-93817968D01*
D13*
G04 #@! TO.C,U2*
X154714805Y-108350127D02*
X154891582Y-108526904D01*
X154933671Y-108484814D01*
X154950507Y-108451142D01*
X154950507Y-108417471D01*
X154942089Y-108392217D01*
X154916836Y-108350127D01*
X154891582Y-108324873D01*
X154849492Y-108299620D01*
X154824238Y-108291202D01*
X154790566Y-108291202D01*
X154756895Y-108308037D01*
X154714805Y-108350127D01*
X154891582Y-108173350D02*
X155009433Y-108291202D01*
X155068358Y-108350127D02*
X155051523Y-108350127D01*
X155051523Y-108333291D01*
X155068358Y-108333291D01*
X155068358Y-108350127D01*
X155051523Y-108333291D01*
X155051523Y-108013410D02*
X155144120Y-108106007D01*
X155152538Y-108131261D01*
X155144120Y-108156515D01*
X155110448Y-108190186D01*
X155085194Y-108198604D01*
X155059940Y-108021828D02*
X155034687Y-108030246D01*
X154992597Y-108072335D01*
X154984179Y-108097589D01*
X154992597Y-108122843D01*
X155009433Y-108139679D01*
X155034687Y-108148097D01*
X155059940Y-108139679D01*
X155102030Y-108097589D01*
X155127284Y-108089171D01*
X155160956Y-107903976D02*
X155152538Y-107929230D01*
X155160956Y-107954484D01*
X155312479Y-108106007D01*
X155253553Y-107811379D02*
X155245135Y-107836633D01*
X155245135Y-107853469D01*
X155253553Y-107878723D01*
X155304061Y-107929230D01*
X155329314Y-107937648D01*
X155346150Y-107937648D01*
X155371404Y-107929230D01*
X155396658Y-107903976D01*
X155405076Y-107878723D01*
X155405076Y-107861887D01*
X155396658Y-107836633D01*
X155346150Y-107786125D01*
X155320897Y-107777707D01*
X155304061Y-107777707D01*
X155278807Y-107786125D01*
X155253553Y-107811379D01*
X155581853Y-107718782D02*
X155438748Y-107575677D01*
X155413494Y-107567259D01*
X155396658Y-107567259D01*
X155371404Y-107575677D01*
X155346150Y-107600931D01*
X155337732Y-107626185D01*
X155472419Y-107609349D02*
X155447166Y-107617767D01*
X155413494Y-107651438D01*
X155405076Y-107676692D01*
X155405076Y-107693528D01*
X155413494Y-107718782D01*
X155464001Y-107769289D01*
X155489255Y-107777707D01*
X155506091Y-107777707D01*
X155531345Y-107769289D01*
X155565017Y-107735618D01*
X155573435Y-107710364D01*
X155489255Y-107542005D02*
X155623942Y-107407318D01*
X155682868Y-107398900D02*
X155699704Y-107365228D01*
X155741793Y-107323139D01*
X155767047Y-107314721D01*
X155783883Y-107314721D01*
X155809137Y-107323139D01*
X155825973Y-107339975D01*
X155834391Y-107365228D01*
X155834391Y-107382064D01*
X155825973Y-107407318D01*
X155800719Y-107449408D01*
X155792301Y-107474662D01*
X155792301Y-107491498D01*
X155800719Y-107516751D01*
X155817555Y-107533587D01*
X155842809Y-107542005D01*
X155859645Y-107542005D01*
X155884898Y-107533587D01*
X155926988Y-107491498D01*
X155943824Y-107457826D01*
X155935406Y-107129526D02*
X155851227Y-107213706D01*
X156028003Y-107390482D01*
X156255288Y-107146362D02*
X156246870Y-107171616D01*
X156221616Y-107196870D01*
X156187944Y-107213706D01*
X156154272Y-107213706D01*
X156129019Y-107205288D01*
X156086929Y-107180034D01*
X156061675Y-107154780D01*
X156036421Y-107112690D01*
X156028003Y-107087437D01*
X156028003Y-107053765D01*
X156044839Y-107020093D01*
X156061675Y-107003257D01*
X156095347Y-106986421D01*
X156112183Y-106986421D01*
X156171108Y-107045347D01*
X156137437Y-107079019D01*
X156432064Y-106986421D02*
X156347885Y-107070601D01*
X156255288Y-106994839D01*
X156272124Y-106994839D01*
X156297377Y-106986421D01*
X156339467Y-106944332D01*
X156347885Y-106919078D01*
X156347885Y-106902242D01*
X156339467Y-106876988D01*
X156297377Y-106834898D01*
X156272124Y-106826480D01*
X156255288Y-106826480D01*
X156230034Y-106834898D01*
X156187944Y-106876988D01*
X156179526Y-106902242D01*
X156179526Y-106919078D01*
X156339467Y-106725465D02*
X156516244Y-106902242D01*
X156440482Y-106624450D01*
X156617259Y-106801227D01*
X156676185Y-106742301D02*
X156777200Y-106641286D01*
X156549915Y-106515017D02*
X156726692Y-106691793D01*
X156751946Y-106312986D02*
X156650931Y-106414001D01*
X156701438Y-106363494D02*
X156878215Y-106540271D01*
X156836125Y-106531853D01*
X156802454Y-106531853D01*
X156777200Y-106540271D01*
X157021320Y-106279314D02*
X156903469Y-106161463D01*
X157046574Y-106388748D02*
X156878215Y-106304568D01*
X156987648Y-106195135D01*
X157122335Y-106144627D02*
X157113917Y-106169881D01*
X157113917Y-106186717D01*
X157122335Y-106211971D01*
X157130753Y-106220389D01*
X157156007Y-106228807D01*
X157172843Y-106228807D01*
X157198097Y-106220389D01*
X157231768Y-106186717D01*
X157240186Y-106161463D01*
X157240186Y-106144627D01*
X157231768Y-106119374D01*
X157223350Y-106110956D01*
X157198097Y-106102538D01*
X157181261Y-106102538D01*
X157156007Y-106110956D01*
X157122335Y-106144627D01*
X157097081Y-106153045D01*
X157080246Y-106153045D01*
X157054992Y-106144627D01*
X157021320Y-106110956D01*
X157012902Y-106085702D01*
X157012902Y-106068866D01*
X157021320Y-106043612D01*
X157054992Y-106009940D01*
X157080246Y-106001523D01*
X157097081Y-106001523D01*
X157122335Y-106009940D01*
X157156007Y-106043612D01*
X157164425Y-106068866D01*
X157164425Y-106085702D01*
X157156007Y-106110956D01*
X157324366Y-106094120D02*
X157442217Y-105976269D01*
X157189679Y-105875253D01*
X157484307Y-105934179D02*
X157366455Y-105698477D01*
X157602158Y-105816328D01*
X155335207Y-107110165D02*
X155352043Y-107076493D01*
X155394133Y-107034404D01*
X155419386Y-107025986D01*
X155436222Y-107025986D01*
X155461476Y-107034404D01*
X155478312Y-107051239D01*
X155486730Y-107076493D01*
X155486730Y-107093329D01*
X155478312Y-107118583D01*
X155453058Y-107160673D01*
X155444640Y-107185926D01*
X155444640Y-107202762D01*
X155453058Y-107228016D01*
X155469894Y-107244852D01*
X155495148Y-107253270D01*
X155511984Y-107253270D01*
X155537238Y-107244852D01*
X155579327Y-107202762D01*
X155596163Y-107169091D01*
X155579327Y-107253270D02*
X155352043Y-107025986D01*
X155486730Y-106807119D02*
X155478312Y-106815537D01*
X155469894Y-106840791D01*
X155478312Y-106866045D01*
X155562491Y-106950224D01*
X155570909Y-106975478D01*
X155562491Y-107000732D01*
X155587745Y-106992314D01*
X155612999Y-107000732D01*
X155697178Y-107084911D01*
X155722432Y-107093329D01*
X155747686Y-107084911D01*
X155756104Y-107076493D01*
X155722432Y-106706104D02*
X155747686Y-106849209D01*
X155621417Y-106807119D02*
X155798194Y-106983896D01*
X155865537Y-106916552D01*
X155873955Y-106891299D01*
X155873955Y-106874463D01*
X155865537Y-106849209D01*
X155840283Y-106823955D01*
X155815030Y-106815537D01*
X155798194Y-106815537D01*
X155772940Y-106823955D01*
X155705596Y-106891299D01*
X155890791Y-106722940D02*
X155949717Y-106664014D01*
X155882373Y-106546163D02*
X155798194Y-106630343D01*
X155974970Y-106807119D01*
X156059150Y-106722940D01*
X156109657Y-106504073D02*
X156050732Y-106562999D01*
X155958134Y-106470402D02*
X156134911Y-106647178D01*
X156219091Y-106562999D01*
X156025478Y-106268371D02*
X156033896Y-106259953D01*
X156059150Y-106251535D01*
X156084404Y-106259953D01*
X156168583Y-106344133D01*
X156193837Y-106352551D01*
X156219091Y-106344133D01*
X156210673Y-106369386D01*
X156219091Y-106394640D01*
X156303270Y-106478820D01*
X156311688Y-106504073D01*
X156303270Y-106529327D01*
X156294852Y-106537745D01*
D12*
G04 #@! TO.C,R4*
X148573095Y-93716953D02*
X148451876Y-93595734D01*
X148512486Y-93656344D02*
X148300353Y-93868476D01*
X148310455Y-93817968D01*
X148310455Y-93777562D01*
X148300353Y-93747257D01*
X148492282Y-94060405D02*
X148512486Y-94080608D01*
X148542790Y-94090709D01*
X148562993Y-94090709D01*
X148593298Y-94080608D01*
X148643805Y-94050303D01*
X148694313Y-93999795D01*
X148724618Y-93949288D01*
X148734719Y-93918983D01*
X148734719Y-93898780D01*
X148724618Y-93868476D01*
X148704415Y-93848273D01*
X148674110Y-93838171D01*
X148653907Y-93838171D01*
X148623602Y-93848273D01*
X148573095Y-93878577D01*
X148522587Y-93929085D01*
X148492282Y-93979592D01*
X148482181Y-94009897D01*
X148482181Y-94030100D01*
X148492282Y-94060405D01*
X148694313Y-94262435D02*
X148714516Y-94282638D01*
X148744821Y-94292740D01*
X148765024Y-94292740D01*
X148795328Y-94282638D01*
X148845836Y-94252334D01*
X148896343Y-94201826D01*
X148926648Y-94151318D01*
X148936750Y-94121014D01*
X148936750Y-94100811D01*
X148926648Y-94070506D01*
X148906445Y-94050303D01*
X148876140Y-94040202D01*
X148855937Y-94040202D01*
X148825633Y-94050303D01*
X148775125Y-94080608D01*
X148724618Y-94131115D01*
X148694313Y-94181623D01*
X148684211Y-94211927D01*
X148684211Y-94232130D01*
X148694313Y-94262435D01*
X149068069Y-94211927D02*
X148855937Y-94424059D01*
X149007460Y-94312943D02*
X149148882Y-94292740D01*
X149007460Y-94434161D02*
X149007460Y-94272537D01*
D11*
G04 #@! TO.C,C8*
X156505931Y-100123493D02*
X156492462Y-100136962D01*
X156485728Y-100157165D01*
X156485728Y-100170634D01*
X156492462Y-100190837D01*
X156512665Y-100224509D01*
X156546337Y-100258180D01*
X156580008Y-100278383D01*
X156600211Y-100285118D01*
X156613680Y-100285118D01*
X156633883Y-100278383D01*
X156647352Y-100264915D01*
X156654086Y-100244712D01*
X156654086Y-100231243D01*
X156647352Y-100211040D01*
X156627149Y-100177368D01*
X156593477Y-100143696D01*
X156559805Y-100123493D01*
X156539602Y-100116759D01*
X156526134Y-100116759D01*
X156505931Y-100123493D01*
X156526134Y-100359196D02*
X156526134Y-100372664D01*
X156539602Y-100372664D01*
X156539602Y-100359196D01*
X156526134Y-100359196D01*
X156539602Y-100372664D01*
X156398181Y-100514086D02*
X156478993Y-100433273D01*
X156438587Y-100473680D02*
X156297166Y-100332258D01*
X156330837Y-100338993D01*
X156357775Y-100338993D01*
X156377978Y-100332258D01*
X156182682Y-100541023D02*
X156276963Y-100635304D01*
X156243291Y-100480414D02*
X156317369Y-100554492D01*
X156324103Y-100574695D01*
X156317369Y-100594898D01*
X156297166Y-100615101D01*
X156276963Y-100621835D01*
X156263494Y-100621835D01*
X156088401Y-100675710D02*
X156135541Y-100628570D01*
X156209619Y-100702648D02*
X156068198Y-100561226D01*
X156000854Y-100628570D01*
D12*
G04 #@! TO.C,R11*
X150088323Y-92333044D02*
X150229745Y-92191623D01*
X149957003Y-92363349D02*
X150058019Y-92161318D01*
X150189338Y-92292638D01*
X150108526Y-92494668D02*
X150249948Y-92636090D01*
X150371166Y-92333044D01*
X150371166Y-92757308D02*
X150391369Y-92777511D01*
X150421674Y-92787613D01*
X150441877Y-92787613D01*
X150472181Y-92777511D01*
X150522689Y-92747207D01*
X150573196Y-92696699D01*
X150603501Y-92646191D01*
X150613603Y-92615887D01*
X150613603Y-92595684D01*
X150603501Y-92565379D01*
X150583298Y-92545176D01*
X150552993Y-92535074D01*
X150532790Y-92535074D01*
X150502486Y-92545176D01*
X150451978Y-92575481D01*
X150401471Y-92625988D01*
X150371166Y-92676496D01*
X150361064Y-92706800D01*
X150361064Y-92727003D01*
X150371166Y-92757308D01*
D11*
G04 #@! TO.C,C6*
X145294068Y-104026506D02*
X145307537Y-104013037D01*
X145314271Y-103992834D01*
X145314271Y-103979365D01*
X145307537Y-103959162D01*
X145287334Y-103925490D01*
X145253662Y-103891819D01*
X145219991Y-103871616D01*
X145199788Y-103864881D01*
X145186319Y-103864881D01*
X145166116Y-103871616D01*
X145152647Y-103885084D01*
X145145913Y-103905287D01*
X145145913Y-103918756D01*
X145152647Y-103938959D01*
X145172850Y-103972631D01*
X145206522Y-104006303D01*
X145240194Y-104026506D01*
X145260397Y-104033240D01*
X145273865Y-104033240D01*
X145294068Y-104026506D01*
X145273865Y-103790803D02*
X145273865Y-103777335D01*
X145260397Y-103777335D01*
X145260397Y-103790803D01*
X145273865Y-103790803D01*
X145260397Y-103777335D01*
X145401818Y-103635913D02*
X145321006Y-103716726D01*
X145361412Y-103676319D02*
X145502833Y-103817741D01*
X145469162Y-103811006D01*
X145442224Y-103811006D01*
X145422021Y-103817741D01*
X145617317Y-103608976D02*
X145523036Y-103514695D01*
X145556708Y-103669585D02*
X145482630Y-103595507D01*
X145475896Y-103575304D01*
X145482630Y-103555101D01*
X145502833Y-103534898D01*
X145523036Y-103528164D01*
X145536505Y-103528164D01*
X145711598Y-103474289D02*
X145664458Y-103521429D01*
X145590380Y-103447351D02*
X145731801Y-103588773D01*
X145799145Y-103521429D01*
G04 #@! TO.C,C2*
X142702425Y-95829855D02*
X142715894Y-95843324D01*
X142736097Y-95850058D01*
X142749566Y-95850058D01*
X142769769Y-95843324D01*
X142803441Y-95823121D01*
X142837112Y-95789449D01*
X142857315Y-95755778D01*
X142864050Y-95735575D01*
X142864050Y-95722106D01*
X142857315Y-95701903D01*
X142843847Y-95688434D01*
X142823644Y-95681700D01*
X142810175Y-95681700D01*
X142789972Y-95688434D01*
X142756300Y-95708637D01*
X142722628Y-95742309D01*
X142702425Y-95775981D01*
X142695691Y-95796184D01*
X142695691Y-95809652D01*
X142702425Y-95829855D01*
X142938128Y-95809652D02*
X142951596Y-95809652D01*
X142951596Y-95796184D01*
X142938128Y-95796184D01*
X142938128Y-95809652D01*
X142951596Y-95796184D01*
X143093018Y-95937605D02*
X143012206Y-95856793D01*
X143052612Y-95897199D02*
X142911190Y-96038620D01*
X142917925Y-96004949D01*
X142917925Y-95978011D01*
X142911190Y-95957808D01*
X143119955Y-96153104D02*
X143214236Y-96058823D01*
X143059346Y-96092495D02*
X143133424Y-96018417D01*
X143153627Y-96011683D01*
X143173830Y-96018417D01*
X143194033Y-96038620D01*
X143200767Y-96058823D01*
X143200767Y-96072292D01*
X143254642Y-96247385D02*
X143207502Y-96200245D01*
X143281580Y-96126167D02*
X143140158Y-96267588D01*
X143207502Y-96334932D01*
D12*
G04 #@! TO.C,R6*
X147365634Y-105249543D02*
X147345431Y-105249543D01*
X147315126Y-105259645D01*
X147264619Y-105310152D01*
X147254517Y-105340457D01*
X147254517Y-105360660D01*
X147264619Y-105390964D01*
X147284822Y-105411167D01*
X147325228Y-105431370D01*
X147567665Y-105431370D01*
X147436345Y-105562690D01*
X147325228Y-105633401D02*
X147325228Y-105653604D01*
X147345431Y-105653604D01*
X147345431Y-105633401D01*
X147325228Y-105633401D01*
X147345431Y-105653604D01*
X147052487Y-105522284D02*
X146911065Y-105663706D01*
X147214111Y-105784924D01*
X147042385Y-105956650D02*
X146830253Y-105744518D01*
X146941370Y-105896041D02*
X146961573Y-106037462D01*
X146820152Y-105896041D02*
X146981776Y-105896041D01*
D11*
G04 #@! TO.C,C4*
X147700617Y-106837115D02*
X147619804Y-106917927D01*
X147660210Y-106877521D02*
X147801632Y-107018942D01*
X147767960Y-107012208D01*
X147741023Y-107012208D01*
X147720820Y-107018942D01*
X147929584Y-106890990D02*
X147943053Y-106877521D01*
X147949788Y-106857318D01*
X147949788Y-106843849D01*
X147943053Y-106823646D01*
X147922850Y-106789974D01*
X147889178Y-106756303D01*
X147855507Y-106736100D01*
X147835304Y-106729365D01*
X147821835Y-106729365D01*
X147801632Y-106736100D01*
X147788163Y-106749568D01*
X147781429Y-106769771D01*
X147781429Y-106783240D01*
X147788163Y-106803443D01*
X147808366Y-106837115D01*
X147842038Y-106870787D01*
X147875710Y-106890990D01*
X147895913Y-106897724D01*
X147909381Y-106897724D01*
X147929584Y-106890990D01*
X148050803Y-106675490D02*
X147956522Y-106581209D01*
X147990194Y-106736100D02*
X147916116Y-106662022D01*
X147909381Y-106641819D01*
X147916116Y-106621616D01*
X147936319Y-106601413D01*
X147956522Y-106594678D01*
X147969991Y-106594678D01*
X148145084Y-106540803D02*
X148097943Y-106587944D01*
X148023865Y-106513866D02*
X148165287Y-106655287D01*
X148232630Y-106587944D01*
X148454864Y-106365710D02*
X148427926Y-106392648D01*
X148407723Y-106399382D01*
X148394255Y-106399382D01*
X148360583Y-106392648D01*
X148326911Y-106372445D01*
X148273036Y-106318570D01*
X148266302Y-106298367D01*
X148266302Y-106284898D01*
X148273036Y-106264695D01*
X148299974Y-106237758D01*
X148320177Y-106231023D01*
X148333646Y-106231023D01*
X148353849Y-106237758D01*
X148387520Y-106271429D01*
X148394255Y-106291632D01*
X148394255Y-106305101D01*
X148387520Y-106325304D01*
X148360583Y-106352242D01*
X148340380Y-106358976D01*
X148326911Y-106358976D01*
X148306708Y-106352242D01*
X148400989Y-106163680D02*
X148400989Y-106150211D01*
X148387520Y-106150211D01*
X148387520Y-106163680D01*
X148400989Y-106163680D01*
X148387520Y-106150211D01*
X148582816Y-106237758D02*
X148670363Y-106150211D01*
X148569348Y-106143477D01*
X148589551Y-106123274D01*
X148596285Y-106103071D01*
X148596285Y-106089602D01*
X148589551Y-106069399D01*
X148555879Y-106035727D01*
X148535676Y-106028993D01*
X148522207Y-106028993D01*
X148502004Y-106035727D01*
X148461598Y-106076133D01*
X148454864Y-106096336D01*
X148454864Y-106109805D01*
X148710769Y-106109805D02*
X148616488Y-105921243D01*
X148805050Y-106015524D01*
G04 #@! TO.C,D24*
X156190476Y-104025357D02*
X156190476Y-103930119D01*
X156285714Y-103920595D01*
X156276190Y-103930119D01*
X156266666Y-103949166D01*
X156266666Y-103996785D01*
X156276190Y-104015833D01*
X156285714Y-104025357D01*
X156304761Y-104034880D01*
X156352380Y-104034880D01*
X156371428Y-104025357D01*
X156380952Y-104015833D01*
X156390476Y-103996785D01*
X156390476Y-103949166D01*
X156380952Y-103930119D01*
X156371428Y-103920595D01*
X156190476Y-104092023D02*
X156390476Y-104158690D01*
X156190476Y-104225357D01*
G04 #@! TO.C,D25*
X149497912Y-86581510D02*
X149565256Y-86514167D01*
X149639334Y-86574776D01*
X149625865Y-86574776D01*
X149605662Y-86581510D01*
X149571990Y-86615182D01*
X149565256Y-86635385D01*
X149565256Y-86648854D01*
X149571990Y-86669057D01*
X149605662Y-86702729D01*
X149625865Y-86709463D01*
X149639334Y-86709463D01*
X149659537Y-86702729D01*
X149693209Y-86669057D01*
X149699943Y-86648854D01*
X149699943Y-86635385D01*
X149450772Y-86628651D02*
X149545053Y-86817213D01*
X149356491Y-86722932D01*
D12*
G04 #@! TO.C,R10*
X154972411Y-95600887D02*
X155113832Y-95742309D01*
X154942106Y-95469567D02*
X155144137Y-95570583D01*
X155012817Y-95701902D01*
X154810787Y-95621090D02*
X154669365Y-95762512D01*
X154972411Y-95883730D01*
X154548147Y-95883730D02*
X154527944Y-95903933D01*
X154517842Y-95934238D01*
X154517842Y-95954441D01*
X154527944Y-95984745D01*
X154558248Y-96035253D01*
X154608756Y-96085760D01*
X154659264Y-96116065D01*
X154689568Y-96126167D01*
X154709771Y-96126167D01*
X154740076Y-96116065D01*
X154760279Y-96095862D01*
X154770381Y-96065557D01*
X154770381Y-96045354D01*
X154760279Y-96015050D01*
X154729974Y-95964542D01*
X154679467Y-95914035D01*
X154628959Y-95883730D01*
X154598655Y-95873628D01*
X154578452Y-95873628D01*
X154548147Y-95883730D01*
G04 #@! TO.C,R2*
X143234439Y-95095811D02*
X143113220Y-94974592D01*
X143173830Y-95035202D02*
X142961697Y-95247334D01*
X142971799Y-95196826D01*
X142971799Y-95156420D01*
X142961697Y-95126115D01*
X143153626Y-95439263D02*
X143173830Y-95459466D01*
X143204134Y-95469567D01*
X143224337Y-95469567D01*
X143254642Y-95459466D01*
X143305149Y-95429161D01*
X143355657Y-95378653D01*
X143385962Y-95328146D01*
X143396063Y-95297841D01*
X143396063Y-95277638D01*
X143385962Y-95247334D01*
X143365759Y-95227131D01*
X143335454Y-95217029D01*
X143315251Y-95217029D01*
X143284946Y-95227131D01*
X143234439Y-95257435D01*
X143183931Y-95307943D01*
X143153626Y-95358450D01*
X143143525Y-95388755D01*
X143143525Y-95408958D01*
X143153626Y-95439263D01*
X143355657Y-95641293D02*
X143375860Y-95661496D01*
X143406165Y-95671598D01*
X143426368Y-95671598D01*
X143456672Y-95661496D01*
X143507180Y-95631192D01*
X143557687Y-95580684D01*
X143587992Y-95530176D01*
X143598094Y-95499872D01*
X143598094Y-95479669D01*
X143587992Y-95449364D01*
X143567789Y-95429161D01*
X143537484Y-95419060D01*
X143517281Y-95419060D01*
X143486977Y-95429161D01*
X143436469Y-95459466D01*
X143385962Y-95509973D01*
X143355657Y-95560481D01*
X143345555Y-95590785D01*
X143345555Y-95610988D01*
X143355657Y-95641293D01*
X143729413Y-95590785D02*
X143517281Y-95802917D01*
X143668804Y-95691801D02*
X143810226Y-95671598D01*
X143668804Y-95813019D02*
X143668804Y-95651395D01*
G04 #@! TO.C,R8*
X153381421Y-94009897D02*
X153522842Y-94151319D01*
X153351116Y-93878577D02*
X153553147Y-93979593D01*
X153421827Y-94110912D01*
X153219797Y-94030100D02*
X153078375Y-94171522D01*
X153381421Y-94292740D01*
X152957157Y-94292740D02*
X152936954Y-94312943D01*
X152926852Y-94343248D01*
X152926852Y-94363451D01*
X152936954Y-94393755D01*
X152967258Y-94444263D01*
X153017766Y-94494770D01*
X153068274Y-94525075D01*
X153098578Y-94535177D01*
X153118781Y-94535177D01*
X153149086Y-94525075D01*
X153169289Y-94504872D01*
X153179391Y-94474567D01*
X153179391Y-94454364D01*
X153169289Y-94424060D01*
X153138984Y-94373552D01*
X153088477Y-94323045D01*
X153037969Y-94292740D01*
X153007665Y-94282638D01*
X152987462Y-94282638D01*
X152957157Y-94292740D01*
D11*
G04 #@! TO.C,C28*
X151578571Y-108059523D02*
X151569047Y-108050000D01*
X151550000Y-108040476D01*
X151502380Y-108040476D01*
X151483333Y-108050000D01*
X151473809Y-108059523D01*
X151464285Y-108078571D01*
X151464285Y-108097619D01*
X151473809Y-108126190D01*
X151588095Y-108240476D01*
X151464285Y-108240476D01*
X151388095Y-108059523D02*
X151378571Y-108050000D01*
X151359523Y-108040476D01*
X151311904Y-108040476D01*
X151292857Y-108050000D01*
X151283333Y-108059523D01*
X151273809Y-108078571D01*
X151273809Y-108097619D01*
X151283333Y-108126190D01*
X151397619Y-108240476D01*
X151273809Y-108240476D01*
X151188095Y-108107142D02*
X151188095Y-108240476D01*
X151188095Y-108126190D02*
X151178571Y-108116666D01*
X151159523Y-108107142D01*
X151130952Y-108107142D01*
X151111904Y-108116666D01*
X151102380Y-108135714D01*
X151102380Y-108240476D01*
X150940476Y-108135714D02*
X151007142Y-108135714D01*
X151007142Y-108240476D02*
X151007142Y-108040476D01*
X150911904Y-108040476D01*
G04 #@! TO.C,C3*
X156655999Y-94728789D02*
X156575186Y-94809601D01*
X156615592Y-94769195D02*
X156757014Y-94910616D01*
X156723342Y-94903882D01*
X156696405Y-94903882D01*
X156676202Y-94910616D01*
X156884966Y-94782664D02*
X156898435Y-94769195D01*
X156905170Y-94748992D01*
X156905170Y-94735523D01*
X156898435Y-94715320D01*
X156878232Y-94681648D01*
X156844560Y-94647977D01*
X156810889Y-94627774D01*
X156790686Y-94621039D01*
X156777217Y-94621039D01*
X156757014Y-94627774D01*
X156743545Y-94641242D01*
X156736811Y-94661445D01*
X156736811Y-94674914D01*
X156743545Y-94695117D01*
X156763748Y-94728789D01*
X156797420Y-94762461D01*
X156831092Y-94782664D01*
X156851295Y-94789398D01*
X156864763Y-94789398D01*
X156884966Y-94782664D01*
X157006185Y-94567164D02*
X156911904Y-94472883D01*
X156945576Y-94627774D02*
X156871498Y-94553696D01*
X156864763Y-94533493D01*
X156871498Y-94513290D01*
X156891701Y-94493087D01*
X156911904Y-94486352D01*
X156925373Y-94486352D01*
X157100466Y-94432477D02*
X157053325Y-94479618D01*
X156979247Y-94405540D02*
X157120669Y-94546961D01*
X157188012Y-94479618D01*
X157410246Y-94257384D02*
X157383308Y-94284322D01*
X157363105Y-94291056D01*
X157349637Y-94291056D01*
X157315965Y-94284322D01*
X157282293Y-94264119D01*
X157228418Y-94210244D01*
X157221684Y-94190041D01*
X157221684Y-94176572D01*
X157228418Y-94156369D01*
X157255356Y-94129432D01*
X157275559Y-94122697D01*
X157289028Y-94122697D01*
X157309231Y-94129432D01*
X157342902Y-94163103D01*
X157349637Y-94183306D01*
X157349637Y-94196775D01*
X157342902Y-94216978D01*
X157315965Y-94243916D01*
X157295762Y-94250650D01*
X157282293Y-94250650D01*
X157262090Y-94243916D01*
X157356371Y-94055354D02*
X157356371Y-94041885D01*
X157342902Y-94041885D01*
X157342902Y-94055354D01*
X157356371Y-94055354D01*
X157342902Y-94041885D01*
X157538198Y-94129432D02*
X157625745Y-94041885D01*
X157524730Y-94035151D01*
X157544933Y-94014948D01*
X157551667Y-93994745D01*
X157551667Y-93981276D01*
X157544933Y-93961073D01*
X157511261Y-93927401D01*
X157491058Y-93920667D01*
X157477589Y-93920667D01*
X157457386Y-93927401D01*
X157416980Y-93967807D01*
X157410246Y-93988010D01*
X157410246Y-94001479D01*
X157666151Y-94001479D02*
X157571870Y-93812917D01*
X157760432Y-93907198D01*
G04 #@! TO.C,C5*
X147544068Y-106276506D02*
X147557537Y-106263037D01*
X147564271Y-106242834D01*
X147564271Y-106229365D01*
X147557537Y-106209162D01*
X147537334Y-106175490D01*
X147503662Y-106141819D01*
X147469991Y-106121616D01*
X147449788Y-106114881D01*
X147436319Y-106114881D01*
X147416116Y-106121616D01*
X147402647Y-106135084D01*
X147395913Y-106155287D01*
X147395913Y-106168756D01*
X147402647Y-106188959D01*
X147422850Y-106222631D01*
X147456522Y-106256303D01*
X147490194Y-106276506D01*
X147510397Y-106283240D01*
X147523865Y-106283240D01*
X147544068Y-106276506D01*
X147523865Y-106040803D02*
X147523865Y-106027335D01*
X147510397Y-106027335D01*
X147510397Y-106040803D01*
X147523865Y-106040803D01*
X147510397Y-106027335D01*
X147651818Y-105885913D02*
X147571006Y-105966726D01*
X147611412Y-105926319D02*
X147752833Y-106067741D01*
X147719162Y-106061006D01*
X147692224Y-106061006D01*
X147672021Y-106067741D01*
X147867317Y-105858976D02*
X147773036Y-105764695D01*
X147806708Y-105919585D02*
X147732630Y-105845507D01*
X147725896Y-105825304D01*
X147732630Y-105805101D01*
X147752833Y-105784898D01*
X147773036Y-105778164D01*
X147786505Y-105778164D01*
X147961598Y-105724289D02*
X147914458Y-105771429D01*
X147840380Y-105697351D02*
X147981801Y-105838773D01*
X148049145Y-105771429D01*
D12*
G04 #@! TO.C,C22*
X151093298Y-105383756D02*
X151093298Y-105403959D01*
X151103399Y-105434264D01*
X151153907Y-105484771D01*
X151184212Y-105494873D01*
X151204415Y-105494873D01*
X151234719Y-105484771D01*
X151254922Y-105464568D01*
X151275125Y-105424162D01*
X151275125Y-105181725D01*
X151406445Y-105313045D01*
X151295328Y-105585786D02*
X151295328Y-105605989D01*
X151305430Y-105636294D01*
X151355938Y-105686802D01*
X151386242Y-105696903D01*
X151406445Y-105696903D01*
X151436750Y-105686802D01*
X151456953Y-105666599D01*
X151477156Y-105626193D01*
X151477156Y-105383756D01*
X151608476Y-105515076D01*
X151648882Y-105838325D02*
X151790303Y-105696903D01*
X151557968Y-105747411D02*
X151669085Y-105636294D01*
X151699389Y-105626193D01*
X151729694Y-105636294D01*
X151759999Y-105666599D01*
X151770100Y-105696903D01*
X151770100Y-105717106D01*
X151850912Y-105979746D02*
X151780202Y-105909035D01*
X151891318Y-105797918D02*
X151679186Y-106010051D01*
X151780202Y-106111066D01*
X152345887Y-106252487D02*
X152224669Y-106131269D01*
X152285278Y-106191878D02*
X152073146Y-106404010D01*
X152083247Y-106353502D01*
X152083247Y-106313096D01*
X152073146Y-106282792D01*
X152265075Y-106595939D02*
X152285278Y-106616142D01*
X152315583Y-106626244D01*
X152335786Y-106626244D01*
X152366090Y-106616142D01*
X152416598Y-106585837D01*
X152467105Y-106535330D01*
X152497410Y-106484822D01*
X152507512Y-106454518D01*
X152507512Y-106434315D01*
X152497410Y-106404010D01*
X152477207Y-106383807D01*
X152446902Y-106373705D01*
X152426699Y-106373705D01*
X152396395Y-106383807D01*
X152345887Y-106414112D01*
X152295379Y-106464619D01*
X152265075Y-106515127D01*
X152254973Y-106545431D01*
X152254973Y-106565634D01*
X152265075Y-106595939D01*
X152396395Y-106727259D02*
X152679237Y-106585837D01*
X152537816Y-106868680D01*
G04 #@! TO.C,C26*
X150836345Y-92370254D02*
X150816142Y-92370254D01*
X150785837Y-92380355D01*
X150735330Y-92430863D01*
X150725228Y-92461168D01*
X150725228Y-92481371D01*
X150735330Y-92511675D01*
X150755533Y-92531878D01*
X150795939Y-92552081D01*
X151038376Y-92552081D01*
X150907056Y-92683401D01*
X150634315Y-92572284D02*
X150614112Y-92572284D01*
X150583807Y-92582386D01*
X150533299Y-92632894D01*
X150523198Y-92663198D01*
X150523198Y-92683401D01*
X150533299Y-92713706D01*
X150553502Y-92733909D01*
X150593908Y-92754112D01*
X150836345Y-92754112D01*
X150705025Y-92885432D01*
X150381776Y-92925838D02*
X150523198Y-93067259D01*
X150472690Y-92834924D02*
X150583807Y-92946041D01*
X150593908Y-92976345D01*
X150583807Y-93006650D01*
X150553502Y-93036955D01*
X150523198Y-93047056D01*
X150502995Y-93047056D01*
X150240355Y-93127868D02*
X150311066Y-93057158D01*
X150422183Y-93168274D02*
X150210051Y-92956142D01*
X150109035Y-93057158D01*
X149967614Y-93622843D02*
X150088832Y-93501625D01*
X150028223Y-93562234D02*
X149816091Y-93350102D01*
X149866599Y-93360203D01*
X149907005Y-93360203D01*
X149937309Y-93350102D01*
X149624162Y-93542031D02*
X149603959Y-93562234D01*
X149593857Y-93592539D01*
X149593857Y-93612742D01*
X149603959Y-93643046D01*
X149634264Y-93693554D01*
X149684771Y-93744061D01*
X149735279Y-93774366D01*
X149765583Y-93784468D01*
X149785786Y-93784468D01*
X149816091Y-93774366D01*
X149836294Y-93754163D01*
X149846396Y-93723858D01*
X149846396Y-93703655D01*
X149836294Y-93673351D01*
X149805989Y-93622843D01*
X149755482Y-93572335D01*
X149704974Y-93542031D01*
X149674670Y-93531929D01*
X149654467Y-93531929D01*
X149624162Y-93542031D01*
X149492842Y-93673351D02*
X149634264Y-93956193D01*
X149351421Y-93814772D01*
G04 #@! TO.C,C25*
X150129238Y-91663147D02*
X150109035Y-91663147D01*
X150078730Y-91673248D01*
X150028223Y-91723756D01*
X150018121Y-91754061D01*
X150018121Y-91774264D01*
X150028223Y-91804568D01*
X150048426Y-91824771D01*
X150088832Y-91844974D01*
X150331269Y-91844974D01*
X150199949Y-91976294D01*
X149927208Y-91865177D02*
X149907005Y-91865177D01*
X149876700Y-91875279D01*
X149826192Y-91925787D01*
X149816091Y-91956091D01*
X149816091Y-91976294D01*
X149826192Y-92006599D01*
X149846395Y-92026802D01*
X149886801Y-92047005D01*
X150129238Y-92047005D01*
X149997918Y-92178325D01*
X149674669Y-92218731D02*
X149816091Y-92360152D01*
X149765583Y-92127817D02*
X149876700Y-92238934D01*
X149886801Y-92269238D01*
X149876700Y-92299543D01*
X149846395Y-92329848D01*
X149816091Y-92339949D01*
X149795888Y-92339949D01*
X149533248Y-92420761D02*
X149603959Y-92350051D01*
X149715076Y-92461167D02*
X149502944Y-92249035D01*
X149401928Y-92350051D01*
X149260507Y-92915736D02*
X149381725Y-92794518D01*
X149321116Y-92855127D02*
X149108984Y-92642995D01*
X149159492Y-92653096D01*
X149199898Y-92653096D01*
X149230202Y-92642995D01*
X148917055Y-92834924D02*
X148896852Y-92855127D01*
X148886750Y-92885432D01*
X148886750Y-92905635D01*
X148896852Y-92935939D01*
X148927157Y-92986447D01*
X148977664Y-93036954D01*
X149028172Y-93067259D01*
X149058476Y-93077361D01*
X149078679Y-93077361D01*
X149108984Y-93067259D01*
X149129187Y-93047056D01*
X149139289Y-93016751D01*
X149139289Y-92996548D01*
X149129187Y-92966244D01*
X149098882Y-92915736D01*
X149048375Y-92865228D01*
X148997867Y-92834924D01*
X148967563Y-92824822D01*
X148947360Y-92824822D01*
X148917055Y-92834924D01*
X148785735Y-92966244D02*
X148927157Y-93249086D01*
X148644314Y-93107665D01*
D11*
G04 #@! TO.C,C34*
X154144970Y-87584184D02*
X154131501Y-87584184D01*
X154111298Y-87590918D01*
X154077626Y-87624590D01*
X154070892Y-87644793D01*
X154070892Y-87658262D01*
X154077626Y-87678465D01*
X154091095Y-87691933D01*
X154118032Y-87705402D01*
X154279657Y-87705402D01*
X154192110Y-87792949D01*
X154010283Y-87718871D02*
X153996814Y-87718871D01*
X153976611Y-87725605D01*
X153942939Y-87759277D01*
X153936205Y-87779480D01*
X153936205Y-87792949D01*
X153942939Y-87813152D01*
X153956408Y-87826620D01*
X153983345Y-87840089D01*
X154144970Y-87840089D01*
X154057423Y-87927636D01*
X153841924Y-87954573D02*
X153936205Y-88048854D01*
X153902533Y-87893964D02*
X153976611Y-87968042D01*
X153983345Y-87988245D01*
X153976611Y-88008448D01*
X153956408Y-88028651D01*
X153936205Y-88035385D01*
X153922736Y-88035385D01*
X153747643Y-88089260D02*
X153794783Y-88042120D01*
X153868861Y-88116197D02*
X153727440Y-87974776D01*
X153660096Y-88042120D01*
X153565816Y-88419243D02*
X153646628Y-88338431D01*
X153606222Y-88378837D02*
X153464800Y-88237416D01*
X153498472Y-88244150D01*
X153525409Y-88244150D01*
X153545612Y-88237416D01*
X153336848Y-88365368D02*
X153323379Y-88378837D01*
X153316645Y-88399040D01*
X153316645Y-88412509D01*
X153323379Y-88432712D01*
X153343582Y-88466384D01*
X153377254Y-88500055D01*
X153410925Y-88520258D01*
X153431129Y-88526993D01*
X153444597Y-88526993D01*
X153464800Y-88520258D01*
X153478269Y-88506790D01*
X153485003Y-88486587D01*
X153485003Y-88473118D01*
X153478269Y-88452915D01*
X153458066Y-88419243D01*
X153424394Y-88385571D01*
X153390722Y-88365368D01*
X153370519Y-88358634D01*
X153357051Y-88358634D01*
X153336848Y-88365368D01*
X153249301Y-88452915D02*
X153343582Y-88641477D01*
X153155020Y-88547196D01*
D12*
G04 #@! TO.C,C29*
X144614285Y-107678571D02*
X144600000Y-107692857D01*
X144585714Y-107721428D01*
X144585714Y-107792857D01*
X144600000Y-107821428D01*
X144614285Y-107835714D01*
X144642857Y-107850000D01*
X144671428Y-107850000D01*
X144714285Y-107835714D01*
X144885714Y-107664285D01*
X144885714Y-107850000D01*
X144614285Y-107964285D02*
X144600000Y-107978571D01*
X144585714Y-108007142D01*
X144585714Y-108078571D01*
X144600000Y-108107142D01*
X144614285Y-108121428D01*
X144642857Y-108135714D01*
X144671428Y-108135714D01*
X144714285Y-108121428D01*
X144885714Y-107950000D01*
X144885714Y-108135714D01*
X144685714Y-108392857D02*
X144885714Y-108392857D01*
X144685714Y-108264285D02*
X144842857Y-108264285D01*
X144871428Y-108278571D01*
X144885714Y-108307142D01*
X144885714Y-108350000D01*
X144871428Y-108378571D01*
X144857142Y-108392857D01*
X144728571Y-108635714D02*
X144728571Y-108535714D01*
X144885714Y-108535714D02*
X144585714Y-108535714D01*
X144585714Y-108678571D01*
X144885714Y-109178571D02*
X144885714Y-109007142D01*
X144885714Y-109092857D02*
X144585714Y-109092857D01*
X144628571Y-109064285D01*
X144657142Y-109035714D01*
X144671428Y-109007142D01*
X144585714Y-109364285D02*
X144585714Y-109392857D01*
X144600000Y-109421428D01*
X144614285Y-109435714D01*
X144642857Y-109450000D01*
X144700000Y-109464285D01*
X144771428Y-109464285D01*
X144828571Y-109450000D01*
X144857142Y-109435714D01*
X144871428Y-109421428D01*
X144885714Y-109392857D01*
X144885714Y-109364285D01*
X144871428Y-109335714D01*
X144857142Y-109321428D01*
X144828571Y-109307142D01*
X144771428Y-109292857D01*
X144700000Y-109292857D01*
X144642857Y-109307142D01*
X144614285Y-109321428D01*
X144600000Y-109335714D01*
X144585714Y-109364285D01*
X144585714Y-109550000D02*
X144885714Y-109650000D01*
X144585714Y-109750000D01*
G04 #@! TO.C,R12*
X149557993Y-92863374D02*
X149699415Y-92721953D01*
X149426673Y-92893679D02*
X149527689Y-92691648D01*
X149659008Y-92822968D01*
X149578196Y-93024998D02*
X149719618Y-93166420D01*
X149840836Y-92863374D01*
X149840836Y-93287638D02*
X149861039Y-93307841D01*
X149891344Y-93317943D01*
X149911547Y-93317943D01*
X149941851Y-93307841D01*
X149992359Y-93277537D01*
X150042866Y-93227029D01*
X150073171Y-93176521D01*
X150083273Y-93146217D01*
X150083273Y-93126014D01*
X150073171Y-93095709D01*
X150052968Y-93075506D01*
X150022663Y-93065404D01*
X150002460Y-93065404D01*
X149972156Y-93075506D01*
X149921648Y-93105811D01*
X149871141Y-93156318D01*
X149840836Y-93206826D01*
X149830734Y-93237130D01*
X149830734Y-93257333D01*
X149840836Y-93287638D01*
D11*
G04 #@! TO.C,D22*
X147290476Y-108211904D02*
X147290476Y-108326190D01*
X147490476Y-108269047D02*
X147290476Y-108269047D01*
X147290476Y-108364285D02*
X147490476Y-108430952D01*
X147290476Y-108497619D01*
X147480952Y-108554761D02*
X147490476Y-108583333D01*
X147490476Y-108630952D01*
X147480952Y-108650000D01*
X147471428Y-108659523D01*
X147452380Y-108669047D01*
X147433333Y-108669047D01*
X147414285Y-108659523D01*
X147404761Y-108650000D01*
X147395238Y-108630952D01*
X147385714Y-108592857D01*
X147376190Y-108573809D01*
X147366666Y-108564285D01*
X147347619Y-108554761D01*
X147328571Y-108554761D01*
X147309523Y-108564285D01*
X147300000Y-108573809D01*
X147290476Y-108592857D01*
X147290476Y-108640476D01*
X147300000Y-108669047D01*
D14*
G04 #@! TO.C,U1*
X161418894Y-96994018D02*
X160711788Y-96286911D01*
X160981162Y-97027690D01*
X160240383Y-96758316D01*
X160947490Y-97465423D01*
X160307726Y-98105186D02*
X159937337Y-97734797D01*
X159903665Y-97633781D01*
X159937337Y-97532766D01*
X160072024Y-97398079D01*
X160173039Y-97364407D01*
X160274055Y-98071514D02*
X160375070Y-98037842D01*
X160543429Y-97869484D01*
X160577101Y-97768468D01*
X160543429Y-97667453D01*
X160476085Y-97600110D01*
X160375070Y-97566438D01*
X160274055Y-97600110D01*
X160105696Y-97768468D01*
X160004681Y-97802140D01*
X160038352Y-98374560D02*
X159196559Y-98273545D01*
X159566948Y-97903155D02*
X159667963Y-98744949D01*
X159061872Y-99351041D02*
X159398589Y-99014323D01*
X158691482Y-98307216D01*
X158826169Y-99586743D02*
X158354765Y-99115338D01*
X158119063Y-98879636D02*
X158186406Y-98879636D01*
X158186406Y-98946980D01*
X158119063Y-98946980D01*
X158119063Y-98879636D01*
X158186406Y-98946980D01*
X158018047Y-99452056D02*
X158489452Y-99923460D01*
X158085391Y-99519399D02*
X158018047Y-99519399D01*
X157917032Y-99553071D01*
X157816017Y-99654086D01*
X157782345Y-99755102D01*
X157816017Y-99856117D01*
X158186406Y-100226506D01*
X157546643Y-100798926D02*
X157647658Y-100765254D01*
X157782345Y-100630567D01*
X157816017Y-100529552D01*
X157782345Y-100428537D01*
X157512971Y-100159163D01*
X157411956Y-100125491D01*
X157310941Y-100159163D01*
X157176254Y-100293850D01*
X157142582Y-100394865D01*
X157176254Y-100495880D01*
X157243597Y-100563224D01*
X157647658Y-100293850D01*
X156940551Y-101472361D02*
X156570162Y-101101972D01*
X156536490Y-101000956D01*
X156570162Y-100899941D01*
X156704849Y-100765254D01*
X156805864Y-100731582D01*
X156906880Y-101438689D02*
X157007895Y-101405017D01*
X157176254Y-101236659D01*
X157209925Y-101135643D01*
X157176254Y-101034628D01*
X157108910Y-100967285D01*
X157007895Y-100933613D01*
X156906880Y-100967285D01*
X156738521Y-101135643D01*
X156637506Y-101169315D01*
X156603834Y-101809078D02*
X156132429Y-101337674D01*
X156267116Y-101472361D02*
X156166101Y-101438689D01*
X156098758Y-101438689D01*
X155997742Y-101472361D01*
X155930399Y-101539704D01*
X156401803Y-102145796D02*
X155863055Y-102684544D01*
X154987590Y-102011109D02*
X155223292Y-103189620D01*
X154516185Y-102482513D02*
X155694697Y-102718216D01*
X154549857Y-103863055D02*
X154448842Y-103290636D01*
X154953918Y-103458994D02*
X154246811Y-102751887D01*
X153977437Y-103021262D01*
X153943765Y-103122277D01*
X153943765Y-103189620D01*
X153977437Y-103290636D01*
X154078452Y-103391651D01*
X154179468Y-103425323D01*
X154246811Y-103425323D01*
X154347826Y-103391651D01*
X154617200Y-103122277D01*
X153640720Y-103492666D02*
X153573376Y-103492666D01*
X153472361Y-103526338D01*
X153304002Y-103694697D01*
X153270330Y-103795712D01*
X153270330Y-103863055D01*
X153304002Y-103964071D01*
X153371346Y-104031414D01*
X153506033Y-104098758D01*
X154314155Y-104098758D01*
X153876422Y-104536490D01*
X152967285Y-104166101D02*
X152899941Y-104166101D01*
X152798926Y-104199773D01*
X152630567Y-104368132D01*
X152596895Y-104469147D01*
X152596895Y-104536490D01*
X152630567Y-104637506D01*
X152697911Y-104704849D01*
X152832598Y-104772193D01*
X153640720Y-104772193D01*
X153202987Y-105209925D01*
X152125491Y-105344612D02*
X152596895Y-105816017D01*
X152024476Y-104906880D02*
X152697911Y-105243597D01*
X152260178Y-105681330D01*
X151856117Y-106556795D02*
X152260178Y-106152734D01*
X152058147Y-106354765D02*
X151351041Y-105647658D01*
X151519399Y-105681330D01*
X151654086Y-105681330D01*
X151755102Y-105647658D01*
X150913308Y-106085391D02*
X150441903Y-106556795D01*
X151452056Y-106960856D01*
X150610262Y-107263902D02*
X150071514Y-107802650D01*
X149229720Y-108240383D02*
X149701125Y-108711788D01*
X149128705Y-107802650D02*
X149802140Y-108139368D01*
X149364407Y-108577101D01*
X148825659Y-108779131D02*
X148859331Y-108678116D01*
X148859331Y-108610772D01*
X148825659Y-108509757D01*
X148791987Y-108476085D01*
X148690972Y-108442413D01*
X148623629Y-108442413D01*
X148522613Y-108476085D01*
X148387926Y-108610772D01*
X148354255Y-108711788D01*
X148354255Y-108779131D01*
X148387926Y-108880146D01*
X148421598Y-108913818D01*
X148522613Y-108947490D01*
X148589957Y-108947490D01*
X148690972Y-108913818D01*
X148825659Y-108779131D01*
X148926674Y-108745459D01*
X148994018Y-108745459D01*
X149095033Y-108779131D01*
X149229720Y-108913818D01*
X149263392Y-109014833D01*
X149263392Y-109082177D01*
X149229720Y-109183192D01*
X149095033Y-109317879D01*
X148994018Y-109351551D01*
X148926674Y-109351551D01*
X148825659Y-109317879D01*
X148690972Y-109183192D01*
X148657300Y-109082177D01*
X148657300Y-109014833D01*
X148690972Y-108913818D01*
X150840913Y-98194416D02*
X151184365Y-98537867D01*
X151204568Y-98598477D01*
X151204568Y-98638883D01*
X151184365Y-98699492D01*
X151103553Y-98780304D01*
X151042944Y-98800507D01*
X151002538Y-98800507D01*
X150941928Y-98780304D01*
X150598477Y-98436852D01*
X150598477Y-99285380D02*
X150840913Y-99042944D01*
X150719695Y-99164162D02*
X150295431Y-98739898D01*
X150396446Y-98760101D01*
X150477258Y-98760101D01*
X150537867Y-98739898D01*
D13*
G04 #@! TO.C,JP1*
X156132142Y-105239285D02*
X156132142Y-105322619D01*
X156263095Y-105358333D02*
X156263095Y-105239285D01*
X156013095Y-105239285D01*
X156013095Y-105358333D01*
X156013095Y-105441666D02*
X156263095Y-105608333D01*
X156013095Y-105608333D02*
X156263095Y-105441666D01*
X156013095Y-105667857D02*
X156013095Y-105810714D01*
X156263095Y-105739285D02*
X156013095Y-105739285D01*
X156263095Y-105894047D02*
X156013095Y-105894047D01*
X156013095Y-105989285D01*
X156025000Y-106013095D01*
X156036904Y-106025000D01*
X156060714Y-106036904D01*
X156096428Y-106036904D01*
X156120238Y-106025000D01*
X156132142Y-106013095D01*
X156144047Y-105989285D01*
X156144047Y-105894047D01*
X156013095Y-106120238D02*
X156263095Y-106179761D01*
X156084523Y-106227380D01*
X156263095Y-106275000D01*
X156013095Y-106334523D01*
X156263095Y-106572619D02*
X156144047Y-106489285D01*
X156263095Y-106429761D02*
X156013095Y-106429761D01*
X156013095Y-106525000D01*
X156025000Y-106548809D01*
X156036904Y-106560714D01*
X156060714Y-106572619D01*
X156096428Y-106572619D01*
X156120238Y-106560714D01*
X156132142Y-106548809D01*
X156144047Y-106525000D01*
X156144047Y-106429761D01*
X155851190Y-105316666D02*
X155863095Y-105352380D01*
X155863095Y-105411904D01*
X155851190Y-105435714D01*
X155839285Y-105447619D01*
X155815476Y-105459523D01*
X155791666Y-105459523D01*
X155767857Y-105447619D01*
X155755952Y-105435714D01*
X155744047Y-105411904D01*
X155732142Y-105364285D01*
X155720238Y-105340476D01*
X155708333Y-105328571D01*
X155684523Y-105316666D01*
X155660714Y-105316666D01*
X155636904Y-105328571D01*
X155625000Y-105340476D01*
X155613095Y-105364285D01*
X155613095Y-105423809D01*
X155625000Y-105459523D01*
X155577380Y-105388095D02*
X155898809Y-105388095D01*
X155958333Y-105638095D02*
X155958333Y-105626190D01*
X155946428Y-105602380D01*
X155922619Y-105590476D01*
X155803571Y-105590476D01*
X155779761Y-105578571D01*
X155767857Y-105554761D01*
X155755952Y-105578571D01*
X155732142Y-105590476D01*
X155613095Y-105590476D01*
X155589285Y-105602380D01*
X155577380Y-105626190D01*
X155577380Y-105638095D01*
X155863095Y-105876190D02*
X155744047Y-105792857D01*
X155863095Y-105733333D02*
X155613095Y-105733333D01*
X155613095Y-105828571D01*
X155625000Y-105852380D01*
X155636904Y-105864285D01*
X155660714Y-105876190D01*
X155696428Y-105876190D01*
X155720238Y-105864285D01*
X155732142Y-105852380D01*
X155744047Y-105828571D01*
X155744047Y-105733333D01*
X155732142Y-105983333D02*
X155732142Y-106066666D01*
X155863095Y-106102380D02*
X155863095Y-105983333D01*
X155613095Y-105983333D01*
X155613095Y-106102380D01*
X155732142Y-106292857D02*
X155732142Y-106209523D01*
X155863095Y-106209523D02*
X155613095Y-106209523D01*
X155613095Y-106328571D01*
X155958333Y-106400000D02*
X155958333Y-106411904D01*
X155946428Y-106435714D01*
X155922619Y-106447619D01*
X155803571Y-106447619D01*
X155779761Y-106459523D01*
X155767857Y-106483333D01*
X155755952Y-106459523D01*
X155732142Y-106447619D01*
X155613095Y-106447619D01*
X155589285Y-106435714D01*
X155577380Y-106411904D01*
X155577380Y-106400000D01*
D12*
G04 #@! TO.C,R1*
X147083120Y-95408958D02*
X146961902Y-95287740D01*
X147022511Y-95348349D02*
X146810379Y-95560481D01*
X146820480Y-95509973D01*
X146820480Y-95469567D01*
X146810379Y-95439263D01*
X147002308Y-95752410D02*
X147022511Y-95772613D01*
X147052815Y-95782714D01*
X147073018Y-95782714D01*
X147103323Y-95772613D01*
X147153831Y-95742308D01*
X147204338Y-95691801D01*
X147234643Y-95641293D01*
X147244744Y-95610988D01*
X147244744Y-95590785D01*
X147234643Y-95560481D01*
X147214440Y-95540278D01*
X147184135Y-95530176D01*
X147163932Y-95530176D01*
X147133628Y-95540278D01*
X147083120Y-95570582D01*
X147032612Y-95621090D01*
X147002308Y-95671598D01*
X146992206Y-95701902D01*
X146992206Y-95722105D01*
X147002308Y-95752410D01*
X147376064Y-95701902D02*
X147163932Y-95914034D01*
X147315455Y-95802917D02*
X147456876Y-95782714D01*
X147315455Y-95924136D02*
X147315455Y-95762511D01*
G04 #@! TO.C,R9*
X153911751Y-94540227D02*
X154053172Y-94681649D01*
X153881446Y-94408907D02*
X154083477Y-94509923D01*
X153952157Y-94641242D01*
X153750127Y-94560430D02*
X153608705Y-94701852D01*
X153911751Y-94823070D01*
X153487487Y-94823070D02*
X153467284Y-94843273D01*
X153457182Y-94873578D01*
X153457182Y-94893781D01*
X153467284Y-94924085D01*
X153497588Y-94974593D01*
X153548096Y-95025100D01*
X153598604Y-95055405D01*
X153628908Y-95065507D01*
X153649111Y-95065507D01*
X153679416Y-95055405D01*
X153699619Y-95035202D01*
X153709721Y-95004897D01*
X153709721Y-94984694D01*
X153699619Y-94954390D01*
X153669314Y-94903882D01*
X153618807Y-94853375D01*
X153568299Y-94823070D01*
X153537995Y-94812968D01*
X153517792Y-94812968D01*
X153487487Y-94823070D01*
G04 #@! TO.C,C24*
X149422130Y-90956040D02*
X149401927Y-90956040D01*
X149371622Y-90966141D01*
X149321115Y-91016649D01*
X149311013Y-91046954D01*
X149311013Y-91067157D01*
X149321115Y-91097461D01*
X149341318Y-91117664D01*
X149381724Y-91137867D01*
X149624161Y-91137867D01*
X149492841Y-91269187D01*
X149220100Y-91158070D02*
X149199897Y-91158070D01*
X149169592Y-91168172D01*
X149119084Y-91218680D01*
X149108983Y-91248984D01*
X149108983Y-91269187D01*
X149119084Y-91299492D01*
X149139287Y-91319695D01*
X149179693Y-91339898D01*
X149422130Y-91339898D01*
X149290810Y-91471218D01*
X148967561Y-91511624D02*
X149108983Y-91653045D01*
X149058475Y-91420710D02*
X149169592Y-91531827D01*
X149179693Y-91562131D01*
X149169592Y-91592436D01*
X149139287Y-91622741D01*
X149108983Y-91632842D01*
X149088780Y-91632842D01*
X148826140Y-91713654D02*
X148896851Y-91642944D01*
X149007968Y-91754060D02*
X148795836Y-91541928D01*
X148694820Y-91642944D01*
X148553399Y-92208629D02*
X148674617Y-92087411D01*
X148614008Y-92148020D02*
X148401876Y-91935888D01*
X148452384Y-91945989D01*
X148492790Y-91945989D01*
X148523094Y-91935888D01*
X148209947Y-92127817D02*
X148189744Y-92148020D01*
X148179642Y-92178325D01*
X148179642Y-92198528D01*
X148189744Y-92228832D01*
X148220049Y-92279340D01*
X148270556Y-92329847D01*
X148321064Y-92360152D01*
X148351368Y-92370254D01*
X148371571Y-92370254D01*
X148401876Y-92360152D01*
X148422079Y-92339949D01*
X148432181Y-92309644D01*
X148432181Y-92289441D01*
X148422079Y-92259137D01*
X148391774Y-92208629D01*
X148341267Y-92158121D01*
X148290759Y-92127817D01*
X148260455Y-92117715D01*
X148240252Y-92117715D01*
X148209947Y-92127817D01*
X148078627Y-92259137D02*
X148220049Y-92541979D01*
X147937206Y-92400558D01*
D11*
G04 #@! TO.C,C35*
X153437863Y-86877077D02*
X153424394Y-86877077D01*
X153404191Y-86883811D01*
X153370519Y-86917483D01*
X153363785Y-86937686D01*
X153363785Y-86951155D01*
X153370519Y-86971358D01*
X153383988Y-86984826D01*
X153410925Y-86998295D01*
X153572550Y-86998295D01*
X153485003Y-87085842D01*
X153303176Y-87011764D02*
X153289707Y-87011764D01*
X153269504Y-87018498D01*
X153235832Y-87052170D01*
X153229098Y-87072373D01*
X153229098Y-87085842D01*
X153235832Y-87106045D01*
X153249301Y-87119513D01*
X153276238Y-87132982D01*
X153437863Y-87132982D01*
X153350316Y-87220529D01*
X153134817Y-87247466D02*
X153229098Y-87341747D01*
X153195426Y-87186857D02*
X153269504Y-87260935D01*
X153276238Y-87281138D01*
X153269504Y-87301341D01*
X153249301Y-87321544D01*
X153229098Y-87328278D01*
X153215629Y-87328278D01*
X153040536Y-87382153D02*
X153087676Y-87335013D01*
X153161754Y-87409090D02*
X153020333Y-87267669D01*
X152952989Y-87335013D01*
X152858709Y-87712136D02*
X152939521Y-87631324D01*
X152899115Y-87671730D02*
X152757693Y-87530309D01*
X152791365Y-87537043D01*
X152818302Y-87537043D01*
X152838505Y-87530309D01*
X152629741Y-87658261D02*
X152616272Y-87671730D01*
X152609538Y-87691933D01*
X152609538Y-87705402D01*
X152616272Y-87725605D01*
X152636475Y-87759277D01*
X152670147Y-87792948D01*
X152703818Y-87813151D01*
X152724022Y-87819886D01*
X152737490Y-87819886D01*
X152757693Y-87813151D01*
X152771162Y-87799683D01*
X152777896Y-87779480D01*
X152777896Y-87766011D01*
X152771162Y-87745808D01*
X152750959Y-87712136D01*
X152717287Y-87678464D01*
X152683615Y-87658261D01*
X152663412Y-87651527D01*
X152649944Y-87651527D01*
X152629741Y-87658261D01*
X152542194Y-87745808D02*
X152636475Y-87934370D01*
X152447913Y-87840089D01*
D15*
G04 #@! TO.C,C38*
X155426190Y-72035714D02*
X155426190Y-72345238D01*
X155616666Y-72178571D01*
X155616666Y-72250000D01*
X155640476Y-72297619D01*
X155664285Y-72321428D01*
X155711904Y-72345238D01*
X155830952Y-72345238D01*
X155878571Y-72321428D01*
X155902380Y-72297619D01*
X155926190Y-72250000D01*
X155926190Y-72107142D01*
X155902380Y-72059523D01*
X155878571Y-72035714D01*
X155426190Y-72511904D02*
X155426190Y-72821428D01*
X155616666Y-72654761D01*
X155616666Y-72726190D01*
X155640476Y-72773809D01*
X155664285Y-72797619D01*
X155711904Y-72821428D01*
X155830952Y-72821428D01*
X155878571Y-72797619D01*
X155902380Y-72773809D01*
X155926190Y-72726190D01*
X155926190Y-72583333D01*
X155902380Y-72535714D01*
X155878571Y-72511904D01*
X155426190Y-73130952D02*
X155426190Y-73178571D01*
X155450000Y-73226190D01*
X155473809Y-73250000D01*
X155521428Y-73273809D01*
X155616666Y-73297619D01*
X155735714Y-73297619D01*
X155830952Y-73273809D01*
X155878571Y-73250000D01*
X155902380Y-73226190D01*
X155926190Y-73178571D01*
X155926190Y-73130952D01*
X155902380Y-73083333D01*
X155878571Y-73059523D01*
X155830952Y-73035714D01*
X155735714Y-73011904D01*
X155616666Y-73011904D01*
X155521428Y-73035714D01*
X155473809Y-73059523D01*
X155450000Y-73083333D01*
X155426190Y-73130952D01*
X155592857Y-73726190D02*
X155926190Y-73726190D01*
X155592857Y-73511904D02*
X155854761Y-73511904D01*
X155902380Y-73535714D01*
X155926190Y-73583333D01*
X155926190Y-73654761D01*
X155902380Y-73702380D01*
X155878571Y-73726190D01*
X155664285Y-74130952D02*
X155664285Y-73964285D01*
X155926190Y-73964285D02*
X155426190Y-73964285D01*
X155426190Y-74202380D01*
X155926190Y-75035714D02*
X155926190Y-74750000D01*
X155926190Y-74892857D02*
X155426190Y-74892857D01*
X155497619Y-74845238D01*
X155545238Y-74797619D01*
X155569047Y-74750000D01*
X155426190Y-75345238D02*
X155426190Y-75392857D01*
X155450000Y-75440476D01*
X155473809Y-75464285D01*
X155521428Y-75488095D01*
X155616666Y-75511904D01*
X155735714Y-75511904D01*
X155830952Y-75488095D01*
X155878571Y-75464285D01*
X155902380Y-75440476D01*
X155926190Y-75392857D01*
X155926190Y-75345238D01*
X155902380Y-75297619D01*
X155878571Y-75273809D01*
X155830952Y-75250000D01*
X155735714Y-75226190D01*
X155616666Y-75226190D01*
X155521428Y-75250000D01*
X155473809Y-75273809D01*
X155450000Y-75297619D01*
X155426190Y-75345238D01*
X155426190Y-75654761D02*
X155926190Y-75821428D01*
X155426190Y-75988095D01*
D14*
X154454761Y-71716666D02*
X154502380Y-71859523D01*
X154502380Y-72097619D01*
X154454761Y-72192857D01*
X154407142Y-72240476D01*
X154311904Y-72288095D01*
X154216666Y-72288095D01*
X154121428Y-72240476D01*
X154073809Y-72192857D01*
X154026190Y-72097619D01*
X153978571Y-71907142D01*
X153930952Y-71811904D01*
X153883333Y-71764285D01*
X153788095Y-71716666D01*
X153692857Y-71716666D01*
X153597619Y-71764285D01*
X153550000Y-71811904D01*
X153502380Y-71907142D01*
X153502380Y-72145238D01*
X153550000Y-72288095D01*
X153359523Y-72002380D02*
X154645238Y-72002380D01*
X154883333Y-73002380D02*
X154883333Y-72954761D01*
X154835714Y-72859523D01*
X154740476Y-72811904D01*
X154264285Y-72811904D01*
X154169047Y-72764285D01*
X154121428Y-72669047D01*
X154073809Y-72764285D01*
X153978571Y-72811904D01*
X153502380Y-72811904D01*
X153407142Y-72859523D01*
X153359523Y-72954761D01*
X153359523Y-73002380D01*
X154502380Y-73954761D02*
X154026190Y-73621428D01*
X154502380Y-73383333D02*
X153502380Y-73383333D01*
X153502380Y-73764285D01*
X153550000Y-73859523D01*
X153597619Y-73907142D01*
X153692857Y-73954761D01*
X153835714Y-73954761D01*
X153930952Y-73907142D01*
X153978571Y-73859523D01*
X154026190Y-73764285D01*
X154026190Y-73383333D01*
X153978571Y-74383333D02*
X153978571Y-74716666D01*
X154502380Y-74859523D02*
X154502380Y-74383333D01*
X153502380Y-74383333D01*
X153502380Y-74859523D01*
X153978571Y-75621428D02*
X153978571Y-75288095D01*
X154502380Y-75288095D02*
X153502380Y-75288095D01*
X153502380Y-75764285D01*
X154883333Y-76050000D02*
X154883333Y-76097619D01*
X154835714Y-76192857D01*
X154740476Y-76240476D01*
X154264285Y-76240476D01*
X154169047Y-76288095D01*
X154121428Y-76383333D01*
X154073809Y-76288095D01*
X153978571Y-76240476D01*
X153502380Y-76240476D01*
X153407142Y-76192857D01*
X153359523Y-76097619D01*
X153359523Y-76050000D01*
D11*
G04 #@! TO.C,C7*
X143806884Y-102524603D02*
X143820353Y-102511134D01*
X143827087Y-102490931D01*
X143827087Y-102477462D01*
X143820353Y-102457259D01*
X143800150Y-102423587D01*
X143766478Y-102389916D01*
X143732807Y-102369713D01*
X143712604Y-102362978D01*
X143699135Y-102362978D01*
X143678932Y-102369713D01*
X143665463Y-102383181D01*
X143658729Y-102403384D01*
X143658729Y-102416853D01*
X143665463Y-102437056D01*
X143685666Y-102470728D01*
X143719338Y-102504400D01*
X143753010Y-102524603D01*
X143773213Y-102531337D01*
X143786681Y-102531337D01*
X143806884Y-102524603D01*
X143786681Y-102288900D02*
X143786681Y-102275432D01*
X143773213Y-102275432D01*
X143773213Y-102288900D01*
X143786681Y-102288900D01*
X143773213Y-102275432D01*
X143914634Y-102134010D02*
X143833822Y-102214823D01*
X143874228Y-102174416D02*
X144015649Y-102315838D01*
X143981978Y-102309103D01*
X143955040Y-102309103D01*
X143934837Y-102315838D01*
X144130133Y-102107073D02*
X144035852Y-102012792D01*
X144069524Y-102167682D02*
X143995446Y-102093604D01*
X143988712Y-102073401D01*
X143995446Y-102053198D01*
X144015649Y-102032995D01*
X144035852Y-102026261D01*
X144049321Y-102026261D01*
X144224414Y-101972386D02*
X144177274Y-102019526D01*
X144103196Y-101945448D02*
X144244617Y-102086870D01*
X144311961Y-102019526D01*
G04 #@! TO.C,C1*
X156226684Y-94097444D02*
X156145872Y-94178256D01*
X156186278Y-94137850D02*
X156327699Y-94279271D01*
X156294027Y-94272537D01*
X156267090Y-94272537D01*
X156246887Y-94279271D01*
X156442183Y-94070506D02*
X156347902Y-93976225D01*
X156381574Y-94131115D02*
X156307496Y-94057037D01*
X156300762Y-94036834D01*
X156307496Y-94016631D01*
X156327699Y-93996428D01*
X156347902Y-93989694D01*
X156361371Y-93989694D01*
X156536464Y-93935819D02*
X156489323Y-93982960D01*
X156415246Y-93908882D02*
X156556667Y-94050303D01*
X156624011Y-93982960D01*
X156718291Y-93605836D02*
X156637479Y-93686648D01*
X156677885Y-93646242D02*
X156819307Y-93787663D01*
X156785635Y-93780929D01*
X156758698Y-93780929D01*
X156738494Y-93787663D01*
X156947259Y-93659711D02*
X156960728Y-93646242D01*
X156967462Y-93626039D01*
X156967462Y-93612570D01*
X156960728Y-93592367D01*
X156940525Y-93558695D01*
X156906853Y-93525024D01*
X156873181Y-93504821D01*
X156852978Y-93498086D01*
X156839510Y-93498086D01*
X156819307Y-93504821D01*
X156805838Y-93518289D01*
X156799104Y-93538492D01*
X156799104Y-93551961D01*
X156805838Y-93572164D01*
X156826041Y-93605836D01*
X156859713Y-93639508D01*
X156893385Y-93659711D01*
X156913588Y-93666445D01*
X156927056Y-93666445D01*
X156947259Y-93659711D01*
X157034806Y-93572164D02*
X156940525Y-93383602D01*
X157129087Y-93477883D01*
G04 #@! TO.C,C9*
X144823745Y-93708534D02*
X144837214Y-93722003D01*
X144857417Y-93728737D01*
X144870886Y-93728737D01*
X144891089Y-93722003D01*
X144924761Y-93701800D01*
X144958432Y-93668128D01*
X144978635Y-93634457D01*
X144985370Y-93614254D01*
X144985370Y-93600785D01*
X144978635Y-93580582D01*
X144965167Y-93567113D01*
X144944964Y-93560379D01*
X144931495Y-93560379D01*
X144911292Y-93567113D01*
X144877620Y-93587316D01*
X144843948Y-93620988D01*
X144823745Y-93654660D01*
X144817011Y-93674863D01*
X144817011Y-93688331D01*
X144823745Y-93708534D01*
X145059448Y-93688331D02*
X145072916Y-93688331D01*
X145072916Y-93674863D01*
X145059448Y-93674863D01*
X145059448Y-93688331D01*
X145072916Y-93674863D01*
X145214338Y-93816284D02*
X145133526Y-93735472D01*
X145173932Y-93775878D02*
X145032510Y-93917299D01*
X145039245Y-93883628D01*
X145039245Y-93856690D01*
X145032510Y-93836487D01*
X145241275Y-94031783D02*
X145335556Y-93937502D01*
X145180666Y-93971174D02*
X145254744Y-93897096D01*
X145274947Y-93890362D01*
X145295150Y-93897096D01*
X145315353Y-93917299D01*
X145322087Y-93937502D01*
X145322087Y-93950971D01*
X145375962Y-94126064D02*
X145328822Y-94078924D01*
X145402900Y-94004846D02*
X145261478Y-94146267D01*
X145328822Y-94213611D01*
G04 #@! TO.C,C13*
X146544068Y-105276506D02*
X146557537Y-105263037D01*
X146564271Y-105242834D01*
X146564271Y-105229365D01*
X146557537Y-105209162D01*
X146537334Y-105175490D01*
X146503662Y-105141819D01*
X146469991Y-105121616D01*
X146449788Y-105114881D01*
X146436319Y-105114881D01*
X146416116Y-105121616D01*
X146402647Y-105135084D01*
X146395913Y-105155287D01*
X146395913Y-105168756D01*
X146402647Y-105188959D01*
X146422850Y-105222631D01*
X146456522Y-105256303D01*
X146490194Y-105276506D01*
X146510397Y-105283240D01*
X146523865Y-105283240D01*
X146544068Y-105276506D01*
X146523865Y-105040803D02*
X146523865Y-105027335D01*
X146510397Y-105027335D01*
X146510397Y-105040803D01*
X146523865Y-105040803D01*
X146510397Y-105027335D01*
X146651818Y-104885913D02*
X146571006Y-104966726D01*
X146611412Y-104926319D02*
X146752833Y-105067741D01*
X146719162Y-105061006D01*
X146692224Y-105061006D01*
X146672021Y-105067741D01*
X146867317Y-104858976D02*
X146773036Y-104764695D01*
X146806708Y-104919585D02*
X146732630Y-104845507D01*
X146725896Y-104825304D01*
X146732630Y-104805101D01*
X146752833Y-104784898D01*
X146773036Y-104778164D01*
X146786505Y-104778164D01*
X146961598Y-104724289D02*
X146914458Y-104771429D01*
X146840380Y-104697351D02*
X146981801Y-104838773D01*
X147049145Y-104771429D01*
G04 #@! TO.C,C10*
X155496031Y-103792344D02*
X155509500Y-103805813D01*
X155529703Y-103812547D01*
X155543172Y-103812547D01*
X155563375Y-103805813D01*
X155597047Y-103785610D01*
X155630718Y-103751938D01*
X155650921Y-103718267D01*
X155657656Y-103698064D01*
X155657656Y-103684595D01*
X155650921Y-103664392D01*
X155637453Y-103650923D01*
X155617250Y-103644189D01*
X155603781Y-103644189D01*
X155583578Y-103650923D01*
X155549906Y-103671126D01*
X155516234Y-103704798D01*
X155496031Y-103738470D01*
X155489297Y-103758673D01*
X155489297Y-103772141D01*
X155496031Y-103792344D01*
X155731734Y-103772141D02*
X155745202Y-103772141D01*
X155745202Y-103758673D01*
X155731734Y-103758673D01*
X155731734Y-103772141D01*
X155745202Y-103758673D01*
X155886624Y-103900094D02*
X155805812Y-103819282D01*
X155846218Y-103859688D02*
X155704796Y-104001109D01*
X155711531Y-103967438D01*
X155711531Y-103940500D01*
X155704796Y-103920297D01*
X155913561Y-104115593D02*
X156007842Y-104021312D01*
X155852952Y-104054984D02*
X155927030Y-103980906D01*
X155947233Y-103974172D01*
X155967436Y-103980906D01*
X155987639Y-104001109D01*
X155994373Y-104021312D01*
X155994373Y-104034781D01*
X156048248Y-104209874D02*
X156001108Y-104162734D01*
X156075186Y-104088656D02*
X155933764Y-104230077D01*
X156001108Y-104297421D01*
D12*
G04 #@! TO.C,C31*
X143885715Y-109721428D02*
X143900001Y-109707142D01*
X143914286Y-109678571D01*
X143914286Y-109607142D01*
X143900001Y-109578571D01*
X143885715Y-109564285D01*
X143857143Y-109550000D01*
X143828572Y-109550000D01*
X143785715Y-109564285D01*
X143614286Y-109735714D01*
X143614286Y-109550000D01*
X143885715Y-109435714D02*
X143900001Y-109421428D01*
X143914286Y-109392857D01*
X143914286Y-109321428D01*
X143900001Y-109292857D01*
X143885715Y-109278571D01*
X143857143Y-109264285D01*
X143828572Y-109264285D01*
X143785715Y-109278571D01*
X143614286Y-109450000D01*
X143614286Y-109264285D01*
X143814286Y-109007142D02*
X143614286Y-109007142D01*
X143814286Y-109135714D02*
X143657143Y-109135714D01*
X143628572Y-109121428D01*
X143614286Y-109092857D01*
X143614286Y-109050000D01*
X143628572Y-109021428D01*
X143642858Y-109007142D01*
X143771429Y-108764285D02*
X143771429Y-108864285D01*
X143614286Y-108864285D02*
X143914286Y-108864285D01*
X143914286Y-108721428D01*
X143614286Y-108221428D02*
X143614286Y-108392857D01*
X143614286Y-108307142D02*
X143914286Y-108307142D01*
X143871429Y-108335714D01*
X143842858Y-108364285D01*
X143828572Y-108392857D01*
X143914286Y-108035714D02*
X143914286Y-108007142D01*
X143900001Y-107978571D01*
X143885715Y-107964285D01*
X143857143Y-107950000D01*
X143800001Y-107935714D01*
X143728572Y-107935714D01*
X143671429Y-107950000D01*
X143642858Y-107964285D01*
X143628572Y-107978571D01*
X143614286Y-108007142D01*
X143614286Y-108035714D01*
X143628572Y-108064285D01*
X143642858Y-108078571D01*
X143671429Y-108092857D01*
X143728572Y-108107142D01*
X143800001Y-108107142D01*
X143857143Y-108092857D01*
X143885715Y-108078571D01*
X143900001Y-108064285D01*
X143914286Y-108035714D01*
X143914286Y-107850000D02*
X143614286Y-107750000D01*
X143914286Y-107650000D01*
D11*
G04 #@! TO.C,C12*
X153840476Y-105271428D02*
X153840476Y-105290476D01*
X153850000Y-105309523D01*
X153859523Y-105319047D01*
X153878571Y-105328571D01*
X153916666Y-105338095D01*
X153964285Y-105338095D01*
X154002380Y-105328571D01*
X154021428Y-105319047D01*
X154030952Y-105309523D01*
X154040476Y-105290476D01*
X154040476Y-105271428D01*
X154030952Y-105252380D01*
X154021428Y-105242857D01*
X154002380Y-105233333D01*
X153964285Y-105223809D01*
X153916666Y-105223809D01*
X153878571Y-105233333D01*
X153859523Y-105242857D01*
X153850000Y-105252380D01*
X153840476Y-105271428D01*
X154021428Y-105423809D02*
X154030952Y-105433333D01*
X154040476Y-105423809D01*
X154030952Y-105414285D01*
X154021428Y-105423809D01*
X154040476Y-105423809D01*
X154040476Y-105623809D02*
X154040476Y-105509523D01*
X154040476Y-105566666D02*
X153840476Y-105566666D01*
X153869047Y-105547619D01*
X153888095Y-105528571D01*
X153897619Y-105509523D01*
X153907142Y-105795238D02*
X154040476Y-105795238D01*
X153907142Y-105709523D02*
X154011904Y-105709523D01*
X154030952Y-105719047D01*
X154040476Y-105738095D01*
X154040476Y-105766666D01*
X154030952Y-105785714D01*
X154021428Y-105795238D01*
X153935714Y-105957142D02*
X153935714Y-105890476D01*
X154040476Y-105890476D02*
X153840476Y-105890476D01*
X153840476Y-105985714D01*
D12*
G04 #@! TO.C,R5*
X148042765Y-94247283D02*
X147921546Y-94126064D01*
X147982156Y-94186674D02*
X147770023Y-94398806D01*
X147780125Y-94348298D01*
X147780125Y-94307892D01*
X147770023Y-94277587D01*
X147961952Y-94590735D02*
X147982156Y-94610938D01*
X148012460Y-94621039D01*
X148032663Y-94621039D01*
X148062968Y-94610938D01*
X148113475Y-94580633D01*
X148163983Y-94530125D01*
X148194288Y-94479618D01*
X148204389Y-94449313D01*
X148204389Y-94429110D01*
X148194288Y-94398806D01*
X148174085Y-94378603D01*
X148143780Y-94368501D01*
X148123577Y-94368501D01*
X148093272Y-94378603D01*
X148042765Y-94408907D01*
X147992257Y-94459415D01*
X147961952Y-94509922D01*
X147951851Y-94540227D01*
X147951851Y-94560430D01*
X147961952Y-94590735D01*
X148163983Y-94792765D02*
X148184186Y-94812968D01*
X148214491Y-94823070D01*
X148234694Y-94823070D01*
X148264998Y-94812968D01*
X148315506Y-94782664D01*
X148366013Y-94732156D01*
X148396318Y-94681648D01*
X148406420Y-94651344D01*
X148406420Y-94631141D01*
X148396318Y-94600836D01*
X148376115Y-94580633D01*
X148345810Y-94570532D01*
X148325607Y-94570532D01*
X148295303Y-94580633D01*
X148244795Y-94610938D01*
X148194288Y-94661445D01*
X148163983Y-94711953D01*
X148153881Y-94742257D01*
X148153881Y-94762460D01*
X148163983Y-94792765D01*
X148537739Y-94742257D02*
X148325607Y-94954389D01*
X148477130Y-94843273D02*
X148618552Y-94823070D01*
X148477130Y-94964491D02*
X148477130Y-94802867D01*
G04 #@! TO.C,C33*
X142914284Y-101578571D02*
X142899999Y-101592857D01*
X142885713Y-101621428D01*
X142885713Y-101692857D01*
X142899999Y-101721428D01*
X142914284Y-101735714D01*
X142942856Y-101750000D01*
X142971427Y-101750000D01*
X143014284Y-101735714D01*
X143185713Y-101564285D01*
X143185713Y-101750000D01*
X142914284Y-101864285D02*
X142899999Y-101878571D01*
X142885713Y-101907142D01*
X142885713Y-101978571D01*
X142899999Y-102007142D01*
X142914284Y-102021428D01*
X142942856Y-102035714D01*
X142971427Y-102035714D01*
X143014284Y-102021428D01*
X143185713Y-101850000D01*
X143185713Y-102035714D01*
X142985713Y-102292857D02*
X143185713Y-102292857D01*
X142985713Y-102164285D02*
X143142856Y-102164285D01*
X143171427Y-102178571D01*
X143185713Y-102207142D01*
X143185713Y-102250000D01*
X143171427Y-102278571D01*
X143157141Y-102292857D01*
X143028570Y-102535714D02*
X143028570Y-102435714D01*
X143185713Y-102435714D02*
X142885713Y-102435714D01*
X142885713Y-102578571D01*
X143185713Y-103078571D02*
X143185713Y-102907142D01*
X143185713Y-102992857D02*
X142885713Y-102992857D01*
X142928570Y-102964285D01*
X142957141Y-102935714D01*
X142971427Y-102907142D01*
X142885713Y-103264285D02*
X142885713Y-103292857D01*
X142899999Y-103321428D01*
X142914284Y-103335714D01*
X142942856Y-103350000D01*
X142999999Y-103364285D01*
X143071427Y-103364285D01*
X143128570Y-103350000D01*
X143157141Y-103335714D01*
X143171427Y-103321428D01*
X143185713Y-103292857D01*
X143185713Y-103264285D01*
X143171427Y-103235714D01*
X143157141Y-103221428D01*
X143128570Y-103207142D01*
X143071427Y-103192857D01*
X142999999Y-103192857D01*
X142942856Y-103207142D01*
X142914284Y-103221428D01*
X142899999Y-103235714D01*
X142885713Y-103264285D01*
X142885713Y-103450000D02*
X143185713Y-103550000D01*
X142885713Y-103650000D01*
G04 #@! TO.C,C30*
X145614285Y-107678571D02*
X145600000Y-107692857D01*
X145585714Y-107721428D01*
X145585714Y-107792857D01*
X145600000Y-107821428D01*
X145614285Y-107835714D01*
X145642857Y-107850000D01*
X145671428Y-107850000D01*
X145714285Y-107835714D01*
X145885714Y-107664285D01*
X145885714Y-107850000D01*
X145614285Y-107964285D02*
X145600000Y-107978571D01*
X145585714Y-108007142D01*
X145585714Y-108078571D01*
X145600000Y-108107142D01*
X145614285Y-108121428D01*
X145642857Y-108135714D01*
X145671428Y-108135714D01*
X145714285Y-108121428D01*
X145885714Y-107950000D01*
X145885714Y-108135714D01*
X145685714Y-108392857D02*
X145885714Y-108392857D01*
X145685714Y-108264285D02*
X145842857Y-108264285D01*
X145871428Y-108278571D01*
X145885714Y-108307142D01*
X145885714Y-108350000D01*
X145871428Y-108378571D01*
X145857142Y-108392857D01*
X145728571Y-108635714D02*
X145728571Y-108535714D01*
X145885714Y-108535714D02*
X145585714Y-108535714D01*
X145585714Y-108678571D01*
X145885714Y-109178571D02*
X145885714Y-109007142D01*
X145885714Y-109092857D02*
X145585714Y-109092857D01*
X145628571Y-109064285D01*
X145657142Y-109035714D01*
X145671428Y-109007142D01*
X145585714Y-109364285D02*
X145585714Y-109392857D01*
X145600000Y-109421428D01*
X145614285Y-109435714D01*
X145642857Y-109450000D01*
X145700000Y-109464285D01*
X145771428Y-109464285D01*
X145828571Y-109450000D01*
X145857142Y-109435714D01*
X145871428Y-109421428D01*
X145885714Y-109392857D01*
X145885714Y-109364285D01*
X145871428Y-109335714D01*
X145857142Y-109321428D01*
X145828571Y-109307142D01*
X145771428Y-109292857D01*
X145700000Y-109292857D01*
X145642857Y-109307142D01*
X145614285Y-109321428D01*
X145600000Y-109335714D01*
X145585714Y-109364285D01*
X145585714Y-109550000D02*
X145885714Y-109650000D01*
X145585714Y-109750000D01*
G04 #@! TO.C,R3*
X146451775Y-95838273D02*
X146330556Y-95717054D01*
X146391166Y-95777664D02*
X146179033Y-95989796D01*
X146189135Y-95939288D01*
X146189135Y-95898882D01*
X146179033Y-95868577D01*
X146370962Y-96181725D02*
X146391166Y-96201928D01*
X146421470Y-96212029D01*
X146441673Y-96212029D01*
X146471978Y-96201928D01*
X146522485Y-96171623D01*
X146572993Y-96121115D01*
X146603298Y-96070608D01*
X146613399Y-96040303D01*
X146613399Y-96020100D01*
X146603298Y-95989796D01*
X146583095Y-95969593D01*
X146552790Y-95959491D01*
X146532587Y-95959491D01*
X146502282Y-95969593D01*
X146451775Y-95999897D01*
X146401267Y-96050405D01*
X146370962Y-96100912D01*
X146360861Y-96131217D01*
X146360861Y-96151420D01*
X146370962Y-96181725D01*
X146572993Y-96383755D02*
X146593196Y-96403958D01*
X146623501Y-96414060D01*
X146643704Y-96414060D01*
X146674008Y-96403958D01*
X146724516Y-96373654D01*
X146775023Y-96323146D01*
X146805328Y-96272638D01*
X146815430Y-96242334D01*
X146815430Y-96222131D01*
X146805328Y-96191826D01*
X146785125Y-96171623D01*
X146754820Y-96161522D01*
X146734617Y-96161522D01*
X146704313Y-96171623D01*
X146653805Y-96201928D01*
X146603298Y-96252435D01*
X146572993Y-96302943D01*
X146562891Y-96333247D01*
X146562891Y-96353450D01*
X146572993Y-96383755D01*
X146946749Y-96333247D02*
X146734617Y-96545379D01*
X146886140Y-96434263D02*
X147027562Y-96414060D01*
X146886140Y-96555481D02*
X146886140Y-96393857D01*
G04 #@! TO.C,C27*
X151543451Y-93077361D02*
X151523248Y-93077361D01*
X151492943Y-93087462D01*
X151442436Y-93137970D01*
X151432334Y-93168275D01*
X151432334Y-93188478D01*
X151442436Y-93218782D01*
X151462639Y-93238985D01*
X151503045Y-93259188D01*
X151745482Y-93259188D01*
X151614162Y-93390508D01*
X151341421Y-93279391D02*
X151321218Y-93279391D01*
X151290913Y-93289493D01*
X151240405Y-93340001D01*
X151230304Y-93370305D01*
X151230304Y-93390508D01*
X151240405Y-93420813D01*
X151260608Y-93441016D01*
X151301014Y-93461219D01*
X151543451Y-93461219D01*
X151412131Y-93592539D01*
X151088882Y-93632945D02*
X151230304Y-93774366D01*
X151179796Y-93542031D02*
X151290913Y-93653148D01*
X151301014Y-93683452D01*
X151290913Y-93713757D01*
X151260608Y-93744062D01*
X151230304Y-93754163D01*
X151210101Y-93754163D01*
X150947461Y-93834975D02*
X151018172Y-93764265D01*
X151129289Y-93875381D02*
X150917157Y-93663249D01*
X150816141Y-93764265D01*
X150674720Y-94329950D02*
X150795938Y-94208732D01*
X150735329Y-94269341D02*
X150523197Y-94057209D01*
X150573705Y-94067310D01*
X150614111Y-94067310D01*
X150644415Y-94057209D01*
X150331268Y-94249138D02*
X150311065Y-94269341D01*
X150300963Y-94299646D01*
X150300963Y-94319849D01*
X150311065Y-94350153D01*
X150341370Y-94400661D01*
X150391877Y-94451168D01*
X150442385Y-94481473D01*
X150472689Y-94491575D01*
X150492892Y-94491575D01*
X150523197Y-94481473D01*
X150543400Y-94461270D01*
X150553502Y-94430965D01*
X150553502Y-94410762D01*
X150543400Y-94380458D01*
X150513095Y-94329950D01*
X150462588Y-94279442D01*
X150412080Y-94249138D01*
X150381776Y-94239036D01*
X150361573Y-94239036D01*
X150331268Y-94249138D01*
X150199948Y-94380458D02*
X150341370Y-94663300D01*
X150058527Y-94521879D01*
G04 #@! TO.C,C23*
X148715024Y-90248934D02*
X148694821Y-90248934D01*
X148664516Y-90259035D01*
X148614009Y-90309543D01*
X148603907Y-90339848D01*
X148603907Y-90360051D01*
X148614009Y-90390355D01*
X148634212Y-90410558D01*
X148674618Y-90430761D01*
X148917055Y-90430761D01*
X148785735Y-90562081D01*
X148512994Y-90450964D02*
X148492791Y-90450964D01*
X148462486Y-90461066D01*
X148411978Y-90511574D01*
X148401877Y-90541878D01*
X148401877Y-90562081D01*
X148411978Y-90592386D01*
X148432181Y-90612589D01*
X148472587Y-90632792D01*
X148715024Y-90632792D01*
X148583704Y-90764112D01*
X148260455Y-90804518D02*
X148401877Y-90945939D01*
X148351369Y-90713604D02*
X148462486Y-90824721D01*
X148472587Y-90855025D01*
X148462486Y-90885330D01*
X148432181Y-90915635D01*
X148401877Y-90925736D01*
X148381674Y-90925736D01*
X148119034Y-91006548D02*
X148189745Y-90935838D01*
X148300862Y-91046954D02*
X148088730Y-90834822D01*
X147987714Y-90935838D01*
X147846293Y-91501523D02*
X147967511Y-91380305D01*
X147906902Y-91440914D02*
X147694770Y-91228782D01*
X147745278Y-91238883D01*
X147785684Y-91238883D01*
X147815988Y-91228782D01*
X147502841Y-91420711D02*
X147482638Y-91440914D01*
X147472536Y-91471219D01*
X147472536Y-91491422D01*
X147482638Y-91521726D01*
X147512943Y-91572234D01*
X147563450Y-91622741D01*
X147613958Y-91653046D01*
X147644262Y-91663148D01*
X147664465Y-91663148D01*
X147694770Y-91653046D01*
X147714973Y-91632843D01*
X147725075Y-91602538D01*
X147725075Y-91582335D01*
X147714973Y-91552031D01*
X147684668Y-91501523D01*
X147634161Y-91451015D01*
X147583653Y-91420711D01*
X147553349Y-91410609D01*
X147533146Y-91410609D01*
X147502841Y-91420711D01*
X147371521Y-91552031D02*
X147512943Y-91834873D01*
X147230100Y-91693452D01*
G04 #@! TO.C,C21*
X156485714Y-99135714D02*
X156485714Y-99164285D01*
X156500000Y-99192857D01*
X156514285Y-99207142D01*
X156542857Y-99221428D01*
X156600000Y-99235714D01*
X156671428Y-99235714D01*
X156728571Y-99221428D01*
X156757142Y-99207142D01*
X156771428Y-99192857D01*
X156785714Y-99164285D01*
X156785714Y-99135714D01*
X156771428Y-99107142D01*
X156757142Y-99092857D01*
X156728571Y-99078571D01*
X156671428Y-99064285D01*
X156600000Y-99064285D01*
X156542857Y-99078571D01*
X156514285Y-99092857D01*
X156500000Y-99107142D01*
X156485714Y-99135714D01*
X156757142Y-99364285D02*
X156771428Y-99378571D01*
X156785714Y-99364285D01*
X156771428Y-99350000D01*
X156757142Y-99364285D01*
X156785714Y-99364285D01*
X156785714Y-99664285D02*
X156785714Y-99492857D01*
X156785714Y-99578571D02*
X156485714Y-99578571D01*
X156528571Y-99550000D01*
X156557142Y-99521428D01*
X156571428Y-99492857D01*
X156585714Y-99921428D02*
X156785714Y-99921428D01*
X156585714Y-99792857D02*
X156742857Y-99792857D01*
X156771428Y-99807142D01*
X156785714Y-99835714D01*
X156785714Y-99878571D01*
X156771428Y-99907142D01*
X156757142Y-99921428D01*
X156628571Y-100164285D02*
X156628571Y-100064285D01*
X156785714Y-100064285D02*
X156485714Y-100064285D01*
X156485714Y-100207142D01*
X156785714Y-100707142D02*
X156785714Y-100535714D01*
X156785714Y-100621428D02*
X156485714Y-100621428D01*
X156528571Y-100592857D01*
X156557142Y-100564285D01*
X156571428Y-100535714D01*
X156485714Y-100892857D02*
X156485714Y-100921428D01*
X156500000Y-100950000D01*
X156514285Y-100964285D01*
X156542857Y-100978571D01*
X156600000Y-100992857D01*
X156671428Y-100992857D01*
X156728571Y-100978571D01*
X156757142Y-100964285D01*
X156771428Y-100950000D01*
X156785714Y-100921428D01*
X156785714Y-100892857D01*
X156771428Y-100864285D01*
X156757142Y-100850000D01*
X156728571Y-100835714D01*
X156671428Y-100821428D01*
X156600000Y-100821428D01*
X156542857Y-100835714D01*
X156514285Y-100850000D01*
X156500000Y-100864285D01*
X156485714Y-100892857D01*
X156485714Y-101178571D02*
X156485714Y-101207142D01*
X156500000Y-101235714D01*
X156514285Y-101250000D01*
X156542857Y-101264285D01*
X156600000Y-101278571D01*
X156671428Y-101278571D01*
X156728571Y-101264285D01*
X156757142Y-101250000D01*
X156771428Y-101235714D01*
X156785714Y-101207142D01*
X156785714Y-101178571D01*
X156771428Y-101150000D01*
X156757142Y-101135714D01*
X156728571Y-101121428D01*
X156671428Y-101107142D01*
X156600000Y-101107142D01*
X156542857Y-101121428D01*
X156514285Y-101135714D01*
X156500000Y-101150000D01*
X156485714Y-101178571D01*
X156485714Y-101364285D02*
X156785714Y-101464285D01*
X156485714Y-101564285D01*
D11*
G04 #@! TO.C,C36*
X152241421Y-88060050D02*
X151675736Y-87494365D01*
X151110050Y-89191421D02*
X152241421Y-88060050D01*
X151675736Y-87494365D02*
X150544365Y-88625736D01*
X150544365Y-88625736D02*
X151110050Y-89191421D01*
G04 #@! TO.C,R7*
X153548097Y-91812816D02*
X152840990Y-92519923D01*
X152840990Y-92519923D02*
X153194543Y-92873476D01*
X153901650Y-92166369D02*
X153548097Y-91812816D01*
X153194543Y-92873476D02*
X153901650Y-92166369D01*
G04 #@! TO.C,C32*
X142250000Y-105400000D02*
X143050000Y-105400000D01*
X143050000Y-103800000D02*
X142250000Y-103800000D01*
X142250000Y-103800000D02*
X142250000Y-105400000D01*
X143050000Y-105400000D02*
X143050000Y-103800000D01*
G04 #@! TO.C,D23*
X145950000Y-106700000D02*
X145950000Y-107700000D01*
X145950000Y-107700000D02*
X146550000Y-107700000D01*
X146550000Y-107700000D02*
X146550000Y-106700000D01*
X146550000Y-106700000D02*
X145950000Y-106700000D01*
G04 #@! TO.C,C37*
X150402943Y-88484314D02*
X151534314Y-87352943D01*
X149837258Y-87918629D02*
X150402943Y-88484314D01*
X150968629Y-86787258D02*
X149837258Y-87918629D01*
X151534314Y-87352943D02*
X150968629Y-86787258D01*
G04 #@! TO.C,C11*
X155492640Y-93757359D02*
X155139087Y-93403806D01*
X155139087Y-93403806D02*
X154431980Y-94110913D01*
X154431980Y-94110913D02*
X154785533Y-94464466D01*
X154785533Y-94464466D02*
X155492640Y-93757359D01*
G04 #@! TO.C,R13*
X147360912Y-92696699D02*
X148068019Y-93403806D01*
X148421572Y-93050253D02*
X147714465Y-92343146D01*
X148068019Y-93403806D02*
X148421572Y-93050253D01*
X147714465Y-92343146D02*
X147360912Y-92696699D01*
D16*
G04 #@! TO.C,U2*
X153662563Y-105673223D02*
X155076777Y-107087437D01*
X155076777Y-107087437D02*
X156137437Y-106026777D01*
X156137437Y-106026777D02*
X154723223Y-104612563D01*
X154723223Y-104612563D02*
X153662563Y-105673223D01*
X154843934Y-105248959D02*
G75*
G03*
X154843934Y-105248959I-50000J0D01*
G01*
D11*
G04 #@! TO.C,R4*
X146830582Y-93227029D02*
X147537689Y-93934136D01*
X147891242Y-93580583D02*
X147184135Y-92873476D01*
X147537689Y-93934136D02*
X147891242Y-93580583D01*
X147184135Y-92873476D02*
X146830582Y-93227029D01*
G04 #@! TO.C,C8*
X155573223Y-102130330D02*
X156280330Y-101423223D01*
X155219670Y-101776777D02*
X155573223Y-102130330D01*
X156280330Y-101423223D02*
X155926777Y-101069670D01*
X155926777Y-101069670D02*
X155219670Y-101776777D01*
G04 #@! TO.C,R11*
X148775125Y-91282486D02*
X148421572Y-91636039D01*
X148421572Y-91636039D02*
X149128679Y-92343146D01*
X149482232Y-91989593D02*
X148775125Y-91282486D01*
X149128679Y-92343146D02*
X149482232Y-91989593D01*
G04 #@! TO.C,C6*
X145519670Y-102726777D02*
X145873223Y-103080330D01*
X146226777Y-102019670D02*
X145519670Y-102726777D01*
X146580330Y-102373223D02*
X146226777Y-102019670D01*
X145873223Y-103080330D02*
X146580330Y-102373223D01*
G04 #@! TO.C,C2*
X144002155Y-96055457D02*
X143648602Y-96409010D01*
X144709262Y-96762564D02*
X144002155Y-96055457D01*
X143648602Y-96409010D02*
X144355709Y-97116117D01*
X144355709Y-97116117D02*
X144709262Y-96762564D01*
G04 #@! TO.C,R6*
X147976777Y-103769670D02*
X147269670Y-104476777D01*
X147269670Y-104476777D02*
X147623223Y-104830330D01*
X147623223Y-104830330D02*
X148330330Y-104123223D01*
X148330330Y-104123223D02*
X147976777Y-103769670D01*
G04 #@! TO.C,C4*
X148976777Y-104769670D02*
X148269670Y-105476777D01*
X148269670Y-105476777D02*
X148623223Y-105830330D01*
X149330330Y-105123223D02*
X148976777Y-104769670D01*
X148623223Y-105830330D02*
X149330330Y-105123223D01*
G04 #@! TO.C,D24*
X156200000Y-102600000D02*
X155600000Y-102600000D01*
X155600000Y-103600000D02*
X156200000Y-103600000D01*
X156200000Y-103600000D02*
X156200000Y-102600000D01*
X155600000Y-102600000D02*
X155600000Y-103600000D01*
G04 #@! TO.C,D25*
X148584315Y-87791421D02*
X149008579Y-88215685D01*
X149008579Y-88215685D02*
X149715685Y-87508579D01*
X149291421Y-87084315D02*
X148584315Y-87791421D01*
X149715685Y-87508579D02*
X149291421Y-87084315D01*
G04 #@! TO.C,R10*
X156022970Y-94287689D02*
X155669417Y-93934136D01*
X155669417Y-93934136D02*
X154962310Y-94641243D01*
X154962310Y-94641243D02*
X155315863Y-94994796D01*
X155315863Y-94994796D02*
X156022970Y-94287689D01*
G04 #@! TO.C,R2*
X144178932Y-95878679D02*
X144886039Y-96585786D01*
X145239592Y-96232233D02*
X144532485Y-95525126D01*
X144886039Y-96585786D02*
X145239592Y-96232233D01*
X144532485Y-95525126D02*
X144178932Y-95878679D01*
G04 #@! TO.C,R8*
X154431980Y-92696699D02*
X154078427Y-92343146D01*
X153724873Y-93403806D02*
X154431980Y-92696699D01*
X154078427Y-92343146D02*
X153371320Y-93050253D01*
X153371320Y-93050253D02*
X153724873Y-93403806D01*
G04 #@! TO.C,C28*
X152000000Y-108000000D02*
X153000000Y-108000000D01*
X153000000Y-108000000D02*
X153000000Y-107500000D01*
X152000000Y-107500000D02*
X152000000Y-108000000D01*
X153000000Y-107500000D02*
X152000000Y-107500000D01*
G04 #@! TO.C,C3*
X156376523Y-96055456D02*
X157083630Y-95348349D01*
X156730077Y-94994796D02*
X156022970Y-95701903D01*
X157083630Y-95348349D02*
X156730077Y-94994796D01*
X156022970Y-95701903D02*
X156376523Y-96055456D01*
G04 #@! TO.C,C5*
X148830330Y-104623223D02*
X148476777Y-104269670D01*
X148123223Y-105330330D02*
X148830330Y-104623223D01*
X147769670Y-104976777D02*
X148123223Y-105330330D01*
X148476777Y-104269670D02*
X147769670Y-104976777D01*
G04 #@! TO.C,C22*
X154032843Y-107848528D02*
X154598528Y-107282843D01*
X154598528Y-107282843D02*
X153467157Y-106151472D01*
X153467157Y-106151472D02*
X152901472Y-106717157D01*
X152901472Y-106717157D02*
X154032843Y-107848528D01*
G04 #@! TO.C,C26*
X152048528Y-91067157D02*
X151482843Y-90501472D01*
X150351472Y-91632843D02*
X150917157Y-92198528D01*
X150917157Y-92198528D02*
X152048528Y-91067157D01*
X151482843Y-90501472D02*
X150351472Y-91632843D01*
G04 #@! TO.C,C25*
X150210050Y-91491421D02*
X151341421Y-90360050D01*
X149644365Y-90925736D02*
X150210050Y-91491421D01*
X150775736Y-89794365D02*
X149644365Y-90925736D01*
X151341421Y-90360050D02*
X150775736Y-89794365D01*
G04 #@! TO.C,Y1*
X151174264Y-104336145D02*
X151174264Y-104336145D01*
X151174264Y-104336145D02*
X149406497Y-106103912D01*
X152588477Y-105750358D02*
X151174264Y-104336145D01*
X149406497Y-106103912D02*
X150820710Y-107518125D01*
X150820710Y-107518125D02*
X152588477Y-105750358D01*
G04 #@! TO.C,C34*
X152524264Y-90605635D02*
X153655635Y-89474264D01*
X151958579Y-90039950D02*
X152524264Y-90605635D01*
X153655635Y-89474264D02*
X153089950Y-88908579D01*
X153089950Y-88908579D02*
X151958579Y-90039950D01*
G04 #@! TO.C,C29*
X143750000Y-105900000D02*
X143750000Y-107500000D01*
X144550000Y-105900000D02*
X143750000Y-105900000D01*
X143750000Y-107500000D02*
X144550000Y-107500000D01*
X144550000Y-107500000D02*
X144550000Y-105900000D01*
G04 #@! TO.C,R12*
X147891242Y-92166369D02*
X148598349Y-92873476D01*
X148598349Y-92873476D02*
X148951902Y-92519923D01*
X148951902Y-92519923D02*
X148244795Y-91812816D01*
X148244795Y-91812816D02*
X147891242Y-92166369D01*
G04 #@! TO.C,D22*
X147300000Y-107700000D02*
X147300000Y-106700000D01*
X147300000Y-106700000D02*
X146700000Y-106700000D01*
X146700000Y-106700000D02*
X146700000Y-107700000D01*
X146700000Y-107700000D02*
X147300000Y-107700000D01*
D16*
G04 #@! TO.C,U1*
X150750000Y-103699747D02*
X155699747Y-98750000D01*
X145800253Y-98750000D02*
X150750000Y-103699747D01*
X150042893Y-94507359D02*
X145800253Y-98750000D01*
X151457107Y-94507359D02*
X150042893Y-94507359D01*
X155699747Y-98750000D02*
X151457107Y-94507359D01*
D11*
G04 #@! TO.C,R1*
X146300252Y-95171573D02*
X145593145Y-94464466D01*
X145946699Y-95525126D02*
X146300252Y-95171573D01*
X145593145Y-94464466D02*
X145239592Y-94818019D01*
X145239592Y-94818019D02*
X145946699Y-95525126D01*
G04 #@! TO.C,R9*
X153901650Y-93580583D02*
X154255203Y-93934136D01*
X154608757Y-92873476D02*
X153901650Y-93580583D01*
X154255203Y-93934136D02*
X154962310Y-93227029D01*
X154962310Y-93227029D02*
X154608757Y-92873476D01*
G04 #@! TO.C,C24*
X150068628Y-89087258D02*
X148937257Y-90218629D01*
X148937257Y-90218629D02*
X149502942Y-90784314D01*
X150634313Y-89652943D02*
X150068628Y-89087258D01*
X149502942Y-90784314D02*
X150634313Y-89652943D01*
G04 #@! TO.C,C35*
X152948528Y-88767157D02*
X152382843Y-88201472D01*
X152382843Y-88201472D02*
X151251472Y-89332843D01*
X151251472Y-89332843D02*
X151817157Y-89898528D01*
X151817157Y-89898528D02*
X152948528Y-88767157D01*
D16*
G04 #@! TO.C,C38*
X158150000Y-79500000D02*
X151850000Y-79500000D01*
X158150000Y-80000000D02*
X151850000Y-80000000D01*
X158150000Y-68500000D02*
X158150000Y-80000000D01*
X151850000Y-68500000D02*
X158150000Y-68500000D01*
X151850000Y-80000000D02*
X151850000Y-68500000D01*
G36*
X158150000Y-79500000D02*
G01*
X157500000Y-79500000D01*
X157500000Y-68500000D01*
X158150000Y-68500000D01*
X158150000Y-79500000D01*
G37*
D11*
G04 #@! TO.C,C7*
X144032486Y-101224874D02*
X144386039Y-101578427D01*
X145093146Y-100871320D02*
X144739593Y-100517767D01*
X144386039Y-101578427D02*
X145093146Y-100871320D01*
X144739593Y-100517767D02*
X144032486Y-101224874D01*
G04 #@! TO.C,C1*
X156199747Y-94464466D02*
X155492640Y-95171573D01*
X156553300Y-94818019D02*
X156199747Y-94464466D01*
X155492640Y-95171573D02*
X155846193Y-95525126D01*
X155846193Y-95525126D02*
X156553300Y-94818019D01*
G04 #@! TO.C,C9*
X146123475Y-93934136D02*
X145769922Y-94287689D01*
X146477029Y-94994796D02*
X146830582Y-94641243D01*
X145769922Y-94287689D02*
X146477029Y-94994796D01*
X146830582Y-94641243D02*
X146123475Y-93934136D01*
G04 #@! TO.C,C13*
X147123223Y-104330330D02*
X147830330Y-103623223D01*
X147476777Y-103269670D02*
X146769670Y-103976777D01*
X147830330Y-103623223D02*
X147476777Y-103269670D01*
X146769670Y-103976777D02*
X147123223Y-104330330D01*
G04 #@! TO.C,C10*
X154815863Y-103876524D02*
X155169416Y-103522971D01*
X154108756Y-103169417D02*
X154815863Y-103876524D01*
X155169416Y-103522971D02*
X154462309Y-102815864D01*
X154462309Y-102815864D02*
X154108756Y-103169417D01*
G04 #@! TO.C,C31*
X142750000Y-105900000D02*
X142750000Y-107500000D01*
X143550000Y-105900000D02*
X142750000Y-105900000D01*
X143550000Y-107500000D02*
X143550000Y-105900000D01*
X142750000Y-107500000D02*
X143550000Y-107500000D01*
G04 #@! TO.C,C12*
X153800000Y-104850000D02*
X153800000Y-103850000D01*
X153300000Y-103850000D02*
X153300000Y-104850000D01*
X153800000Y-103850000D02*
X153300000Y-103850000D01*
X153300000Y-104850000D02*
X153800000Y-104850000D01*
G04 #@! TO.C,R5*
X147007359Y-94464466D02*
X147360912Y-94110913D01*
X147360912Y-94110913D02*
X146653805Y-93403806D01*
X146653805Y-93403806D02*
X146300252Y-93757359D01*
X146300252Y-93757359D02*
X147007359Y-94464466D01*
G04 #@! TO.C,C33*
X144050000Y-105400000D02*
X144050000Y-103800000D01*
X143250000Y-103800000D02*
X143250000Y-105400000D01*
X144050000Y-103800000D02*
X143250000Y-103800000D01*
X143250000Y-105400000D02*
X144050000Y-105400000D01*
G04 #@! TO.C,C30*
X145550000Y-107500000D02*
X145550000Y-105900000D01*
X145550000Y-105900000D02*
X144750000Y-105900000D01*
X144750000Y-105900000D02*
X144750000Y-107500000D01*
X144750000Y-107500000D02*
X145550000Y-107500000D01*
G04 #@! TO.C,R3*
X145769922Y-95701903D02*
X145062815Y-94994796D01*
X145416369Y-96055456D02*
X145769922Y-95701903D01*
X145062815Y-94994796D02*
X144709262Y-95348349D01*
X144709262Y-95348349D02*
X145416369Y-96055456D01*
G04 #@! TO.C,C27*
X151624263Y-92905635D02*
X152755634Y-91774264D01*
X151058578Y-92339950D02*
X151624263Y-92905635D01*
X152755634Y-91774264D02*
X152189949Y-91208579D01*
X152189949Y-91208579D02*
X151058578Y-92339950D01*
G04 #@! TO.C,C23*
X148230151Y-89511523D02*
X148795836Y-90077208D01*
X149927207Y-88945837D02*
X149361522Y-88380152D01*
X148795836Y-90077208D02*
X149927207Y-88945837D01*
X149361522Y-88380152D02*
X148230151Y-89511523D01*
G04 #@! TO.C,C21*
X156650000Y-103500000D02*
X157850000Y-103500000D01*
X157850000Y-103500000D02*
X157850000Y-101500000D01*
X157850000Y-101500000D02*
X156650000Y-101500000D01*
X156650000Y-101500000D02*
X156650000Y-103500000D01*
G04 #@! TD*
M02*
