G04 #@! TF.GenerationSoftware,KiCad,Pcbnew,(5.99.0-4161-ge826a4494a)*
G04 #@! TF.CreationDate,2020-10-19T16:11:42+03:00*
G04 #@! TF.ProjectId,StickHub,53746963-6b48-4756-922e-6b696361645f,rev?*
G04 #@! TF.SameCoordinates,Original*
G04 #@! TF.FileFunction,Soldermask,Bot*
G04 #@! TF.FilePolarity,Negative*
%FSLAX46Y46*%
G04 Gerber Fmt 4.6, Leading zero omitted, Abs format (unit mm)*
G04 Created by KiCad (PCBNEW (5.99.0-4161-ge826a4494a)) date 2020-10-19 16:11:42*
%MOMM*%
%LPD*%
G01*
G04 APERTURE LIST*
G04 Aperture macros list*
%AMRoundRect*
0 Rectangle with rounded corners*
0 $1 Rounding radius*
0 $2 $3 $4 $5 $6 $7 $8 $9 X,Y pos of 4 corners*
0 Add a 4 corners polygon primitive as box body*
4,1,4,$2,$3,$4,$5,$6,$7,$8,$9,$2,$3,0*
0 Add four circle primitives for the rounded corners*
1,1,$1+$1,$2,$3,0*
1,1,$1+$1,$4,$5,0*
1,1,$1+$1,$6,$7,0*
1,1,$1+$1,$8,$9,0*
0 Add four rect primitives between the rounded corners*
20,1,$1+$1,$2,$3,$4,$5,0*
20,1,$1+$1,$4,$5,$6,$7,0*
20,1,$1+$1,$6,$7,$8,$9,0*
20,1,$1+$1,$8,$9,$2,$3,0*%
G04 Aperture macros list end*
G04 #@! TA.AperFunction,Profile*
%ADD10C,0.100000*%
G04 #@! TD*
%ADD11C,0.150000*%
%ADD12O,4.150000X1.650000*%
%ADD13RoundRect,0.059000X0.088388X-0.422143X0.422143X-0.088388X-0.088388X0.422143X-0.422143X0.088388X0*%
%ADD14RoundRect,0.046000X-0.035355X0.295571X-0.295571X0.035355X0.035355X-0.295571X0.295571X-0.035355X0*%
%ADD15RoundRect,0.059000X0.361000X-0.236000X0.361000X0.236000X-0.361000X0.236000X-0.361000X-0.236000X0*%
%ADD16RoundRect,0.057500X-0.272500X0.172500X-0.272500X-0.172500X0.272500X-0.172500X0.272500X0.172500X0*%
%ADD17RoundRect,0.057500X0.035355X-0.279307X0.279307X-0.035355X-0.035355X0.279307X-0.279307X0.035355X0*%
%ADD18RoundRect,0.046000X-0.295571X-0.035355X-0.035355X-0.295571X0.295571X0.035355X0.035355X0.295571X0*%
%ADD19RoundRect,0.062500X0.141421X0.229810X-0.229810X-0.141421X-0.141421X-0.229810X0.229810X0.141421X0*%
%ADD20RoundRect,0.049600X0.005303X0.500844X-0.500844X-0.005303X-0.005303X-0.500844X0.500844X0.005303X0*%
%ADD21RoundRect,0.100500X-0.649500X-0.649500X0.649500X-0.649500X0.649500X0.649500X-0.649500X0.649500X0*%
%ADD22RoundRect,0.057500X-0.222500X0.172500X-0.222500X-0.172500X0.222500X-0.172500X0.222500X0.172500X0*%
%ADD23RoundRect,0.057500X-0.035355X0.279307X-0.279307X0.035355X0.035355X-0.279307X0.279307X-0.035355X0*%
%ADD24RoundRect,0.057500X0.279307X0.035355X0.035355X0.279307X-0.279307X-0.035355X-0.035355X-0.279307X0*%
%ADD25RoundRect,0.046000X0.295571X0.035355X0.035355X0.295571X-0.295571X-0.035355X-0.035355X-0.295571X0*%
%ADD26RoundRect,0.057500X0.172500X0.222500X-0.172500X0.222500X-0.172500X-0.222500X0.172500X-0.222500X0*%
%ADD27RoundRect,0.059000X0.422143X0.088388X0.088388X0.422143X-0.422143X-0.088388X-0.088388X-0.422143X0*%
%ADD28RoundRect,0.059000X-0.088388X0.422143X-0.422143X0.088388X0.088388X-0.422143X0.422143X-0.088388X0*%
%ADD29RoundRect,0.110200X0.035355X0.658741X-0.658741X-0.035355X-0.035355X-0.658741X0.658741X0.035355X0*%
%ADD30RoundRect,0.059000X-0.361000X0.236000X-0.361000X-0.236000X0.361000X-0.236000X0.361000X0.236000X0*%
%ADD31RoundRect,0.075000X0.415425X0.521491X-0.521491X-0.415425X-0.415425X-0.521491X0.521491X0.415425X0*%
%ADD32RoundRect,0.075000X-0.415425X0.521491X-0.521491X0.415425X0.415425X-0.521491X0.521491X-0.415425X0*%
%ADD33RoundRect,0.150000X-0.600000X-0.600000X0.600000X-0.600000X0.600000X0.600000X-0.600000X0.600000X0*%
%ADD34RoundRect,0.057500X-0.279307X-0.035355X-0.035355X-0.279307X0.279307X0.035355X0.035355X0.279307X0*%
%ADD35RoundRect,0.075000X0.575000X-0.300000X0.575000X0.300000X-0.575000X0.300000X-0.575000X-0.300000X0*%
G04 APERTURE END LIST*
D10*
X152250000Y-80000000D02*
X157000000Y-80000000D01*
X148500000Y-81000000D02*
X151500000Y-81000000D01*
X157000000Y-108500000D02*
X156100000Y-108500000D01*
X141750000Y-107250000D02*
X141750000Y-81250000D01*
X156100000Y-120000000D02*
X156100000Y-108500000D01*
X148000000Y-80250000D02*
X148000000Y-80500000D01*
X152000000Y-80250000D02*
G75*
G02*
X152250000Y-80000000I250000J0D01*
G01*
X143900000Y-120000000D02*
X143900000Y-108500000D01*
X141750000Y-81250000D02*
G75*
G02*
X143000000Y-80000000I1250000J0D01*
G01*
X147750000Y-80000000D02*
G75*
G02*
X148000000Y-80250000I0J-250000D01*
G01*
X143000000Y-108500000D02*
G75*
G02*
X141750000Y-107250000I0J1250000D01*
G01*
X143900000Y-120000000D02*
X156100000Y-120000000D01*
X158250000Y-81250000D02*
X158250000Y-107250000D01*
X143000000Y-80000000D02*
X147750000Y-80000000D01*
X158250000Y-107250000D02*
G75*
G02*
X157000000Y-108500000I-1250000J0D01*
G01*
X157000000Y-80000000D02*
G75*
G02*
X158250000Y-81250000I0J-1250000D01*
G01*
X148500000Y-81000000D02*
G75*
G02*
X148000000Y-80500000I0J500000D01*
G01*
X143900000Y-108500000D02*
X143000000Y-108500000D01*
X152000000Y-80500000D02*
G75*
G02*
X151500000Y-81000000I-500000J0D01*
G01*
X152000000Y-80500000D02*
X152000000Y-80250000D01*
D11*
G04 #@! TO.C,REF\u002A\u002A*
X154714285Y-81735714D02*
X154742857Y-81707142D01*
X154771428Y-81621428D01*
X154771428Y-81564285D01*
X154742857Y-81478571D01*
X154685714Y-81421428D01*
X154628571Y-81392857D01*
X154514285Y-81364285D01*
X154428571Y-81364285D01*
X154314285Y-81392857D01*
X154257142Y-81421428D01*
X154200000Y-81478571D01*
X154171428Y-81564285D01*
X154171428Y-81621428D01*
X154200000Y-81707142D01*
X154228571Y-81735714D01*
X154714285Y-81185714D02*
X154742857Y-81157142D01*
X154771428Y-81071428D01*
X154771428Y-81014285D01*
X154742857Y-80928571D01*
X154685714Y-80871428D01*
X154628571Y-80842857D01*
X154514285Y-80814285D01*
X154428571Y-80814285D01*
X154314285Y-80842857D01*
X154257142Y-80871428D01*
X154200000Y-80928571D01*
X154171428Y-81014285D01*
X154171428Y-81071428D01*
X154200000Y-81157142D01*
X154228571Y-81185714D01*
X155250000Y-82750000D02*
G75*
G03*
X155250000Y-82750000I-750000J0D01*
G01*
X154100000Y-82750000D02*
G75*
G03*
X154100000Y-82750000I-25000J0D01*
G01*
G36*
X154675000Y-82650000D02*
G01*
X155025000Y-82650000D01*
X155025000Y-82850000D01*
X154675000Y-82850000D01*
X154675000Y-82950000D01*
X154275000Y-82950000D01*
X154225000Y-82900000D01*
X154225000Y-82600000D01*
X154275000Y-82550000D01*
X154675000Y-82550000D01*
X154675000Y-82650000D01*
G37*
X154000000Y-84250000D02*
X155000000Y-84250000D01*
X154500000Y-84250000D02*
X154800000Y-84925000D01*
X154200000Y-83575000D02*
X154500000Y-84250000D01*
X154075000Y-84325000D02*
X154125000Y-84475000D01*
X154925000Y-84175000D02*
X154875000Y-84025000D01*
X154075072Y-84325164D02*
G75*
G02*
X154450000Y-84150000I189528J83164D01*
G01*
X154924928Y-84174836D02*
G75*
G02*
X154550000Y-84350000I-189528J-83164D01*
G01*
X155250000Y-84250000D02*
G75*
G03*
X155250000Y-84250000I-750000J0D01*
G01*
X154650000Y-86100000D02*
X154350000Y-86100000D01*
X154650000Y-86100000D02*
G75*
G03*
X154650000Y-85400000I0J350000D01*
G01*
X154350000Y-85400000D02*
G75*
G03*
X154350000Y-86100000I0J-350000D01*
G01*
X155250000Y-85750000D02*
G75*
G03*
X155250000Y-85750000I-750000J0D01*
G01*
G36*
X154525000Y-85400000D02*
G01*
X154300000Y-85550000D01*
X154300000Y-85250000D01*
X154525000Y-85400000D01*
G37*
G36*
X154650000Y-85475000D02*
G01*
X154575000Y-85475000D01*
X154575000Y-85325000D01*
X154650000Y-85325000D01*
X154650000Y-85475000D01*
G37*
G04 #@! TO.C,JP1*
G36*
X158050000Y-106249999D02*
G01*
X156550000Y-106250000D01*
X156550000Y-105550001D01*
X158050000Y-105550000D01*
X158050000Y-106249999D01*
G37*
G04 #@! TO.C,REF\u002A\u002A*
X155250000Y-81250000D02*
G75*
G03*
X155250000Y-81250000I-750000J0D01*
G01*
G04 #@! TD*
D12*
G04 #@! TO.C,H1*
X150000000Y-109250000D03*
G04 #@! TD*
D13*
G04 #@! TO.C,C36*
X150915596Y-88820190D03*
X151870190Y-87865596D03*
G04 #@! TD*
D14*
G04 #@! TO.C,R7*
X153689518Y-92024948D03*
X153053122Y-92661344D03*
G04 #@! TD*
D15*
G04 #@! TO.C,C32*
X142650000Y-105275000D03*
X142650000Y-103925000D03*
G04 #@! TD*
D16*
G04 #@! TO.C,D23*
X146250000Y-106750000D03*
X146250000Y-107650000D03*
G04 #@! TD*
D13*
G04 #@! TO.C,C37*
X150208489Y-88113083D03*
X151163083Y-87158489D03*
G04 #@! TD*
D17*
G04 #@! TO.C,C11*
X154644112Y-94252334D03*
X155280508Y-93615938D03*
G04 #@! TD*
D18*
G04 #@! TO.C,R13*
X147573044Y-92555278D03*
X148209440Y-93191674D03*
G04 #@! TD*
D19*
G04 #@! TO.C,U2*
X154811612Y-104877728D03*
X155165165Y-105231282D03*
D20*
X155637159Y-105819948D03*
X154869948Y-106587159D03*
D19*
X154281282Y-106115165D03*
X153927728Y-105761612D03*
G04 #@! TD*
D21*
G04 #@! TO.C,J9*
X157250000Y-100250000D03*
G04 #@! TD*
D18*
G04 #@! TO.C,R4*
X147042714Y-93085608D03*
X147679110Y-93722004D03*
G04 #@! TD*
D22*
G04 #@! TO.C,C8*
X155500000Y-102050000D03*
X155500000Y-102950000D03*
G04 #@! TD*
D18*
G04 #@! TO.C,R11*
X148633704Y-91494618D03*
X149270100Y-92131014D03*
G04 #@! TD*
D23*
G04 #@! TO.C,C6*
X146368198Y-102231802D03*
X145731802Y-102868198D03*
G04 #@! TD*
D24*
G04 #@! TO.C,C2*
X144497130Y-96903985D03*
X143860734Y-96267589D03*
G04 #@! TD*
D14*
G04 #@! TO.C,R6*
X148118198Y-103981802D03*
X147481802Y-104618198D03*
G04 #@! TD*
D23*
G04 #@! TO.C,C4*
X149118198Y-104981802D03*
X148481802Y-105618198D03*
G04 #@! TD*
D14*
G04 #@! TO.C,R10*
X155810838Y-94146268D03*
X155174442Y-94782664D03*
G04 #@! TD*
D25*
G04 #@! TO.C,R2*
X145027460Y-96373654D03*
X144391064Y-95737258D03*
G04 #@! TD*
D14*
G04 #@! TO.C,R8*
X154219848Y-92555278D03*
X153583452Y-93191674D03*
G04 #@! TD*
D26*
G04 #@! TO.C,C28*
X152950000Y-107750000D03*
X152050000Y-107750000D03*
G04 #@! TD*
D17*
G04 #@! TO.C,C3*
X156235102Y-95843324D03*
X156871498Y-95206928D03*
G04 #@! TD*
D23*
G04 #@! TO.C,C5*
X148618198Y-104481802D03*
X147981802Y-105118198D03*
G04 #@! TD*
D27*
G04 #@! TO.C,C22*
X154227297Y-107477297D03*
X153272703Y-106522703D03*
G04 #@! TD*
D28*
G04 #@! TO.C,C26*
X151677297Y-90872703D03*
X150722703Y-91827297D03*
G04 #@! TD*
G04 #@! TO.C,C25*
X150970190Y-90165596D03*
X150015596Y-91120190D03*
G04 #@! TD*
D29*
G04 #@! TO.C,Y1*
X152093503Y-105821069D03*
X150891421Y-107023151D03*
X149901471Y-106033201D03*
X151103553Y-104831119D03*
G04 #@! TD*
D13*
G04 #@! TO.C,C34*
X152329810Y-90234404D03*
X153284404Y-89279810D03*
G04 #@! TD*
D30*
G04 #@! TO.C,C29*
X144150000Y-106025000D03*
X144150000Y-107375000D03*
G04 #@! TD*
D18*
G04 #@! TO.C,R12*
X148103374Y-92024948D03*
X148739770Y-92661344D03*
G04 #@! TD*
D16*
G04 #@! TO.C,D22*
X147000000Y-106750000D03*
X147000000Y-107650000D03*
G04 #@! TD*
D31*
G04 #@! TO.C,U1*
X151748788Y-93862124D03*
X152102342Y-94215678D03*
X152455895Y-94569231D03*
X152809449Y-94922785D03*
X153163002Y-95276338D03*
X153516555Y-95629891D03*
X153870109Y-95983445D03*
X154223662Y-96336998D03*
X154577215Y-96690551D03*
X154930769Y-97044105D03*
X155284322Y-97397658D03*
X155637876Y-97751212D03*
D32*
X155637876Y-99748788D03*
X155284322Y-100102342D03*
X154930769Y-100455895D03*
X154577215Y-100809449D03*
X154223662Y-101163002D03*
X153870109Y-101516555D03*
X153516555Y-101870109D03*
X153163002Y-102223662D03*
X152809449Y-102577215D03*
X152455895Y-102930769D03*
X152102342Y-103284322D03*
X151748788Y-103637876D03*
D31*
X149751212Y-103637876D03*
X149397658Y-103284322D03*
X149044105Y-102930769D03*
X148690551Y-102577215D03*
X148336998Y-102223662D03*
X147983445Y-101870109D03*
X147629891Y-101516555D03*
X147276338Y-101163002D03*
X146922785Y-100809449D03*
X146569231Y-100455895D03*
X146215678Y-100102342D03*
X145862124Y-99748788D03*
D32*
X145862124Y-97751212D03*
X146215678Y-97397658D03*
X146569231Y-97044105D03*
X146922785Y-96690551D03*
X147276338Y-96336998D03*
X147629891Y-95983445D03*
X147983445Y-95629891D03*
X148336998Y-95276338D03*
X148690551Y-94922785D03*
X149044105Y-94569231D03*
X149397658Y-94215678D03*
X149751212Y-93862124D03*
G04 #@! TD*
D33*
G04 #@! TO.C,JP1*
X157300000Y-106875000D03*
X157300000Y-104925000D03*
G04 #@! TD*
D18*
G04 #@! TO.C,R1*
X145451724Y-94676598D03*
X146088120Y-95312994D03*
G04 #@! TD*
D14*
G04 #@! TO.C,R9*
X154750178Y-93085608D03*
X154113782Y-93722004D03*
G04 #@! TD*
D28*
G04 #@! TO.C,C24*
X150263082Y-89458489D03*
X149308488Y-90413083D03*
G04 #@! TD*
D13*
G04 #@! TO.C,C35*
X151622703Y-89527297D03*
X152577297Y-88572703D03*
G04 #@! TD*
D23*
G04 #@! TO.C,C7*
X144881014Y-100729899D03*
X144244618Y-101366295D03*
G04 #@! TD*
D17*
G04 #@! TO.C,C1*
X155704772Y-95312994D03*
X156341168Y-94676598D03*
G04 #@! TD*
D24*
G04 #@! TO.C,C9*
X146618450Y-94782664D03*
X145982054Y-94146268D03*
G04 #@! TD*
D23*
G04 #@! TO.C,C13*
X147618198Y-103481802D03*
X146981802Y-104118198D03*
G04 #@! TD*
D34*
G04 #@! TO.C,C10*
X154320888Y-103027996D03*
X154957284Y-103664392D03*
G04 #@! TD*
D30*
G04 #@! TO.C,C31*
X143150000Y-106025000D03*
X143150000Y-107375000D03*
G04 #@! TD*
D22*
G04 #@! TO.C,C12*
X153550000Y-103900000D03*
X153550000Y-104800000D03*
G04 #@! TD*
D18*
G04 #@! TO.C,R5*
X146512384Y-93615938D03*
X147148780Y-94252334D03*
G04 #@! TD*
D15*
G04 #@! TO.C,C33*
X143650000Y-105275000D03*
X143650000Y-103925000D03*
G04 #@! TD*
D30*
G04 #@! TO.C,C30*
X145150000Y-106025000D03*
X145150000Y-107375000D03*
G04 #@! TD*
D18*
G04 #@! TO.C,R3*
X144921394Y-95206928D03*
X145557790Y-95843324D03*
G04 #@! TD*
D28*
G04 #@! TO.C,C27*
X152384403Y-91579810D03*
X151429809Y-92534404D03*
G04 #@! TD*
G04 #@! TO.C,C23*
X149555976Y-88751383D03*
X148601382Y-89705977D03*
G04 #@! TD*
D35*
G04 #@! TO.C,C21*
X157250000Y-103325000D03*
X157250000Y-101675000D03*
G04 #@! TD*
M02*
