M48
; DRILL file {KiCad (5.99.0-8557-gaf5825bd36)} date Tue Jan 26 13:48:56 2021
; FORMAT={-:-/ absolute / metric / decimal}
; #@! TF.CreationDate,2021-01-26T13:48:56+03:00
; #@! TF.GenerationSoftware,Kicad,Pcbnew,(5.99.0-8557-gaf5825bd36)
FMAT,2
METRIC
T1C0.300
T2C0.400
T3C1.500
%
G90
G05
T1
X142.29Y-100.25
X142.29Y-102.25
X142.75Y-81.0
X142.78Y-93.25
X143.31Y-95.91
X143.66Y-98.15
X143.7Y-84.37
X143.71Y-98.84
X143.73Y-83.0
X143.745Y-99.547
X143.75Y-86.25
X143.81Y-85.22
X144.0Y-102.95
X144.12Y-89.11
X144.38Y-97.71
X144.95Y-92.4
X145.07Y-97.74
X145.32Y-103.21
X145.46Y-108.03
X145.51Y-90.82
X145.52Y-98.24
X146.18Y-93.072
X146.489Y-108.261
X146.595Y-104.645
X146.651Y-103.251
X146.7Y-89.05
X146.939Y-92.25
X146.948Y-102.651
X146.976Y-105.171
X147.03Y-106.04
X147.15Y-108.25
X147.23Y-88.03
X147.28Y-98.9
X147.4Y-80.67
X147.75Y-87.5
X148.3Y-99.93
X148.3Y-108.05
X148.4Y-107.15
X148.44Y-85.97
X148.5Y-87.25
X148.6Y-82.29
X148.63Y-83.74
X148.63Y-85.09
X149.6Y-84.61
X149.819Y-107.261
X149.911Y-86.249
X149.95Y-108.05
X150.03Y-92.96
X150.06Y-95.58
X150.125Y-99.758
X151.034Y-103.574
X151.5Y-81.5
X151.59Y-101.085
X151.6Y-88.5
X151.6Y-102.16
X151.65Y-100.15
X151.72Y-95.57
X152.345Y-101.003
X152.85Y-100.55
X152.859Y-97.58
X152.88Y-98.23
X153.247Y-96.95
X153.3Y-105.5
X153.6Y-90.15
X153.75Y-85.5
X153.78Y-86.68
X154.197Y-99.325
X154.331Y-98.164
X154.55Y-104.1
X154.629Y-98.839
X155.414Y-92.536
X155.595Y-88.97
X155.75Y-98.5
X156.25Y-98.0
X157.25Y-98.85
X157.25Y-102.45
X157.28Y-81.5
X157.28Y-93.25
X157.29Y-86.25
X157.3Y-88.25
X157.75Y-95.25
T2
X145.92Y-106.04
X150.1Y-87.05
X153.08Y-91.45
X153.15Y-84.6
X153.71Y-107.99
X154.5Y-108.5
T3
G00X148.75Y-109.25
M15
G01X151.25Y-109.25
M16
G05
T0
M30
