G04 #@! TF.GenerationSoftware,KiCad,Pcbnew,(5.99.0-8557-gaf5825bd36)*
G04 #@! TF.CreationDate,2021-01-26T13:49:01+03:00*
G04 #@! TF.ProjectId,StickHub,53746963-6b48-4756-922e-6b696361645f,rev?*
G04 #@! TF.SameCoordinates,Original*
G04 #@! TF.FileFunction,Legend,Top*
G04 #@! TF.FilePolarity,Positive*
%FSLAX46Y46*%
G04 Gerber Fmt 4.6, Leading zero omitted, Abs format (unit mm)*
G04 Created by KiCad (PCBNEW (5.99.0-8557-gaf5825bd36)) date 2021-01-26 13:49:01*
%MOMM*%
%LPD*%
G01*
G04 APERTURE LIST*
G04 #@! TA.AperFunction,Profile*
%ADD10C,0.100000*%
G04 #@! TD*
%ADD11C,0.150000*%
%ADD12C,0.100000*%
%ADD13C,0.125000*%
%ADD14C,0.127000*%
%ADD15C,0.120000*%
G04 APERTURE END LIST*
D10*
X152250000Y-80000000D02*
X157000000Y-80000000D01*
X148500000Y-81000000D02*
X151500000Y-81000000D01*
X157000000Y-108500000D02*
X156100000Y-108500000D01*
X141750000Y-107250000D02*
X141750000Y-81250000D01*
X156100000Y-120000000D02*
X156100000Y-108500000D01*
X148000000Y-80250000D02*
X148000000Y-80500000D01*
X152000000Y-80250000D02*
G75*
G02*
X152250000Y-80000000I250000J0D01*
G01*
X143900000Y-120000000D02*
X143900000Y-108500000D01*
X141750000Y-81250000D02*
G75*
G02*
X143000000Y-80000000I1250000J0D01*
G01*
X147750000Y-80000000D02*
G75*
G02*
X148000000Y-80250000I0J-250000D01*
G01*
X143000000Y-108500000D02*
G75*
G02*
X141750000Y-107250000I0J1250000D01*
G01*
X143900000Y-120000000D02*
X156100000Y-120000000D01*
X158250000Y-81250000D02*
X158250000Y-107250000D01*
X143000000Y-80000000D02*
X147750000Y-80000000D01*
X158250000Y-107250000D02*
G75*
G02*
X157000000Y-108500000I-1250000J0D01*
G01*
X157000000Y-80000000D02*
G75*
G02*
X158250000Y-81250000I0J-1250000D01*
G01*
X148500000Y-81000000D02*
G75*
G02*
X148000000Y-80500000I0J500000D01*
G01*
X143900000Y-108500000D02*
X143000000Y-108500000D01*
X152000000Y-80500000D02*
G75*
G02*
X151500000Y-81000000I-500000J0D01*
G01*
X152000000Y-80500000D02*
X152000000Y-80250000D01*
D11*
X142426190Y-82219047D02*
X142388095Y-82333333D01*
X142388095Y-82523809D01*
X142426190Y-82600000D01*
X142464285Y-82638095D01*
X142540476Y-82676190D01*
X142616666Y-82676190D01*
X142692857Y-82638095D01*
X142730952Y-82600000D01*
X142769047Y-82523809D01*
X142807142Y-82371428D01*
X142845238Y-82295238D01*
X142883333Y-82257142D01*
X142959523Y-82219047D01*
X143035714Y-82219047D01*
X143111904Y-82257142D01*
X143150000Y-82295238D01*
X143188095Y-82371428D01*
X143188095Y-82561904D01*
X143150000Y-82676190D01*
X143188095Y-82904761D02*
X143188095Y-83361904D01*
X142388095Y-83133333D02*
X143188095Y-83133333D01*
X142616666Y-83590476D02*
X142616666Y-83971428D01*
X142388095Y-83514285D02*
X143188095Y-83780952D01*
X142388095Y-84047619D01*
X143188095Y-84200000D02*
X143188095Y-84657142D01*
X142388095Y-84428571D02*
X143188095Y-84428571D01*
X143188095Y-84923809D02*
X142540476Y-84923809D01*
X142464285Y-84961904D01*
X142426190Y-85000000D01*
X142388095Y-85076190D01*
X142388095Y-85228571D01*
X142426190Y-85304761D01*
X142464285Y-85342857D01*
X142540476Y-85380952D01*
X143188095Y-85380952D01*
X142426190Y-85723809D02*
X142388095Y-85838095D01*
X142388095Y-86028571D01*
X142426190Y-86104761D01*
X142464285Y-86142857D01*
X142540476Y-86180952D01*
X142616666Y-86180952D01*
X142692857Y-86142857D01*
X142730952Y-86104761D01*
X142769047Y-86028571D01*
X142807142Y-85876190D01*
X142845238Y-85800000D01*
X142883333Y-85761904D01*
X142959523Y-85723809D01*
X143035714Y-85723809D01*
X143111904Y-85761904D01*
X143150000Y-85800000D01*
X143188095Y-85876190D01*
X143188095Y-86066666D01*
X143150000Y-86180952D01*
G04 #@! TO.C,J7*
X142102380Y-99488095D02*
X142911904Y-99488095D01*
X143007142Y-99440476D01*
X143054761Y-99392857D01*
X143102380Y-99297619D01*
X143102380Y-99107142D01*
X143054761Y-99011904D01*
X143007142Y-98964285D01*
X142911904Y-98916666D01*
X142102380Y-98916666D01*
X143054761Y-98488095D02*
X143102380Y-98345238D01*
X143102380Y-98107142D01*
X143054761Y-98011904D01*
X143007142Y-97964285D01*
X142911904Y-97916666D01*
X142816666Y-97916666D01*
X142721428Y-97964285D01*
X142673809Y-98011904D01*
X142626190Y-98107142D01*
X142578571Y-98297619D01*
X142530952Y-98392857D01*
X142483333Y-98440476D01*
X142388095Y-98488095D01*
X142292857Y-98488095D01*
X142197619Y-98440476D01*
X142150000Y-98392857D01*
X142102380Y-98297619D01*
X142102380Y-98059523D01*
X142150000Y-97916666D01*
X142578571Y-97154761D02*
X142626190Y-97011904D01*
X142673809Y-96964285D01*
X142769047Y-96916666D01*
X142911904Y-96916666D01*
X143007142Y-96964285D01*
X143054761Y-97011904D01*
X143102380Y-97107142D01*
X143102380Y-97488095D01*
X142102380Y-97488095D01*
X142102380Y-97154761D01*
X142150000Y-97059523D01*
X142197619Y-97011904D01*
X142292857Y-96964285D01*
X142388095Y-96964285D01*
X142483333Y-97011904D01*
X142530952Y-97059523D01*
X142578571Y-97154761D01*
X142578571Y-97488095D01*
X142102380Y-96059523D02*
X142102380Y-96250000D01*
X142150000Y-96345238D01*
X142197619Y-96392857D01*
X142340476Y-96488095D01*
X142530952Y-96535714D01*
X142911904Y-96535714D01*
X143007142Y-96488095D01*
X143054761Y-96440476D01*
X143102380Y-96345238D01*
X143102380Y-96154761D01*
X143054761Y-96059523D01*
X143007142Y-96011904D01*
X142911904Y-95964285D01*
X142673809Y-95964285D01*
X142578571Y-96011904D01*
X142530952Y-96059523D01*
X142483333Y-96154761D01*
X142483333Y-96345238D01*
X142530952Y-96440476D01*
X142578571Y-96488095D01*
X142673809Y-96535714D01*
G04 #@! TO.C,J8*
X142102380Y-92488095D02*
X142911904Y-92488095D01*
X143007142Y-92440476D01*
X143054761Y-92392857D01*
X143102380Y-92297619D01*
X143102380Y-92107142D01*
X143054761Y-92011904D01*
X143007142Y-91964285D01*
X142911904Y-91916666D01*
X142102380Y-91916666D01*
X143054761Y-91488095D02*
X143102380Y-91345238D01*
X143102380Y-91107142D01*
X143054761Y-91011904D01*
X143007142Y-90964285D01*
X142911904Y-90916666D01*
X142816666Y-90916666D01*
X142721428Y-90964285D01*
X142673809Y-91011904D01*
X142626190Y-91107142D01*
X142578571Y-91297619D01*
X142530952Y-91392857D01*
X142483333Y-91440476D01*
X142388095Y-91488095D01*
X142292857Y-91488095D01*
X142197619Y-91440476D01*
X142150000Y-91392857D01*
X142102380Y-91297619D01*
X142102380Y-91059523D01*
X142150000Y-90916666D01*
X142578571Y-90154761D02*
X142626190Y-90011904D01*
X142673809Y-89964285D01*
X142769047Y-89916666D01*
X142911904Y-89916666D01*
X143007142Y-89964285D01*
X143054761Y-90011904D01*
X143102380Y-90107142D01*
X143102380Y-90488095D01*
X142102380Y-90488095D01*
X142102380Y-90154761D01*
X142150000Y-90059523D01*
X142197619Y-90011904D01*
X142292857Y-89964285D01*
X142388095Y-89964285D01*
X142483333Y-90011904D01*
X142530952Y-90059523D01*
X142578571Y-90154761D01*
X142578571Y-90488095D01*
X142102380Y-89583333D02*
X142102380Y-88916666D01*
X143102380Y-89345238D01*
D12*
G04 #@! TO.C,D8*
X149830952Y-82595238D02*
X149430952Y-82595238D01*
X149430952Y-82500000D01*
X149450000Y-82442857D01*
X149488095Y-82404761D01*
X149526190Y-82385714D01*
X149602380Y-82366666D01*
X149659523Y-82366666D01*
X149735714Y-82385714D01*
X149773809Y-82404761D01*
X149811904Y-82442857D01*
X149830952Y-82500000D01*
X149830952Y-82595238D01*
X149602380Y-82138095D02*
X149583333Y-82176190D01*
X149564285Y-82195238D01*
X149526190Y-82214285D01*
X149507142Y-82214285D01*
X149469047Y-82195238D01*
X149450000Y-82176190D01*
X149430952Y-82138095D01*
X149430952Y-82061904D01*
X149450000Y-82023809D01*
X149469047Y-82004761D01*
X149507142Y-81985714D01*
X149526190Y-81985714D01*
X149564285Y-82004761D01*
X149583333Y-82023809D01*
X149602380Y-82061904D01*
X149602380Y-82138095D01*
X149621428Y-82176190D01*
X149640476Y-82195238D01*
X149678571Y-82214285D01*
X149754761Y-82214285D01*
X149792857Y-82195238D01*
X149811904Y-82176190D01*
X149830952Y-82138095D01*
X149830952Y-82061904D01*
X149811904Y-82023809D01*
X149792857Y-82004761D01*
X149754761Y-81985714D01*
X149678571Y-81985714D01*
X149640476Y-82004761D01*
X149621428Y-82023809D01*
X149602380Y-82061904D01*
D11*
G04 #@! TO.C,J2*
X156802380Y-106488095D02*
X157611904Y-106488095D01*
X157707142Y-106440476D01*
X157754761Y-106392857D01*
X157802380Y-106297619D01*
X157802380Y-106107142D01*
X157754761Y-106011904D01*
X157707142Y-105964285D01*
X157611904Y-105916666D01*
X156802380Y-105916666D01*
X157754761Y-105488095D02*
X157802380Y-105345238D01*
X157802380Y-105107142D01*
X157754761Y-105011904D01*
X157707142Y-104964285D01*
X157611904Y-104916666D01*
X157516666Y-104916666D01*
X157421428Y-104964285D01*
X157373809Y-105011904D01*
X157326190Y-105107142D01*
X157278571Y-105297619D01*
X157230952Y-105392857D01*
X157183333Y-105440476D01*
X157088095Y-105488095D01*
X156992857Y-105488095D01*
X156897619Y-105440476D01*
X156850000Y-105392857D01*
X156802380Y-105297619D01*
X156802380Y-105059523D01*
X156850000Y-104916666D01*
X157278571Y-104154761D02*
X157326190Y-104011904D01*
X157373809Y-103964285D01*
X157469047Y-103916666D01*
X157611904Y-103916666D01*
X157707142Y-103964285D01*
X157754761Y-104011904D01*
X157802380Y-104107142D01*
X157802380Y-104488095D01*
X156802380Y-104488095D01*
X156802380Y-104154761D01*
X156850000Y-104059523D01*
X156897619Y-104011904D01*
X156992857Y-103964285D01*
X157088095Y-103964285D01*
X157183333Y-104011904D01*
X157230952Y-104059523D01*
X157278571Y-104154761D01*
X157278571Y-104488095D01*
X157802380Y-102964285D02*
X157802380Y-103535714D01*
X157802380Y-103250000D02*
X156802380Y-103250000D01*
X156945238Y-103345238D01*
X157040476Y-103440476D01*
X157088095Y-103535714D01*
G04 #@! TO.C,J5*
X156802380Y-85488095D02*
X157611904Y-85488095D01*
X157707142Y-85440476D01*
X157754761Y-85392857D01*
X157802380Y-85297619D01*
X157802380Y-85107142D01*
X157754761Y-85011904D01*
X157707142Y-84964285D01*
X157611904Y-84916666D01*
X156802380Y-84916666D01*
X157754761Y-84488095D02*
X157802380Y-84345238D01*
X157802380Y-84107142D01*
X157754761Y-84011904D01*
X157707142Y-83964285D01*
X157611904Y-83916666D01*
X157516666Y-83916666D01*
X157421428Y-83964285D01*
X157373809Y-84011904D01*
X157326190Y-84107142D01*
X157278571Y-84297619D01*
X157230952Y-84392857D01*
X157183333Y-84440476D01*
X157088095Y-84488095D01*
X156992857Y-84488095D01*
X156897619Y-84440476D01*
X156850000Y-84392857D01*
X156802380Y-84297619D01*
X156802380Y-84059523D01*
X156850000Y-83916666D01*
X157278571Y-83154761D02*
X157326190Y-83011904D01*
X157373809Y-82964285D01*
X157469047Y-82916666D01*
X157611904Y-82916666D01*
X157707142Y-82964285D01*
X157754761Y-83011904D01*
X157802380Y-83107142D01*
X157802380Y-83488095D01*
X156802380Y-83488095D01*
X156802380Y-83154761D01*
X156850000Y-83059523D01*
X156897619Y-83011904D01*
X156992857Y-82964285D01*
X157088095Y-82964285D01*
X157183333Y-83011904D01*
X157230952Y-83059523D01*
X157278571Y-83154761D01*
X157278571Y-83488095D01*
X157135714Y-82059523D02*
X157802380Y-82059523D01*
X156754761Y-82297619D02*
X157469047Y-82535714D01*
X157469047Y-81916666D01*
D13*
G04 #@! TO.C,C20*
X149214285Y-85135714D02*
X149242857Y-85164285D01*
X149271428Y-85250000D01*
X149271428Y-85307142D01*
X149242857Y-85392857D01*
X149185714Y-85450000D01*
X149128571Y-85478571D01*
X149014285Y-85507142D01*
X148928571Y-85507142D01*
X148814285Y-85478571D01*
X148757142Y-85450000D01*
X148700000Y-85392857D01*
X148671428Y-85307142D01*
X148671428Y-85250000D01*
X148700000Y-85164285D01*
X148728571Y-85135714D01*
X148728571Y-84907142D02*
X148700000Y-84878571D01*
X148671428Y-84821428D01*
X148671428Y-84678571D01*
X148700000Y-84621428D01*
X148728571Y-84592857D01*
X148785714Y-84564285D01*
X148842857Y-84564285D01*
X148928571Y-84592857D01*
X149271428Y-84935714D01*
X149271428Y-84564285D01*
X148671428Y-84192857D02*
X148671428Y-84135714D01*
X148700000Y-84078571D01*
X148728571Y-84050000D01*
X148785714Y-84021428D01*
X148900000Y-83992857D01*
X149042857Y-83992857D01*
X149157142Y-84021428D01*
X149214285Y-84050000D01*
X149242857Y-84078571D01*
X149271428Y-84135714D01*
X149271428Y-84192857D01*
X149242857Y-84250000D01*
X149214285Y-84278571D01*
X149157142Y-84307142D01*
X149042857Y-84335714D01*
X148900000Y-84335714D01*
X148785714Y-84307142D01*
X148728571Y-84278571D01*
X148700000Y-84250000D01*
X148671428Y-84192857D01*
D14*
G04 #@! TO.C,J1*
X155142857Y-119328571D02*
X155142857Y-118871428D01*
X155371428Y-119100000D02*
X154914285Y-119100000D01*
X147871428Y-118557142D02*
X147271428Y-118557142D01*
X147271428Y-118414285D01*
X147300000Y-118328571D01*
X147357142Y-118271428D01*
X147414285Y-118242857D01*
X147528571Y-118214285D01*
X147614285Y-118214285D01*
X147728571Y-118242857D01*
X147785714Y-118271428D01*
X147842857Y-118328571D01*
X147871428Y-118414285D01*
X147871428Y-118557142D01*
X147871428Y-117957142D02*
X147271428Y-117957142D01*
X147271428Y-117728571D01*
X147300000Y-117671428D01*
X147328571Y-117642857D01*
X147385714Y-117614285D01*
X147471428Y-117614285D01*
X147528571Y-117642857D01*
X147557142Y-117671428D01*
X147585714Y-117728571D01*
X147585714Y-117957142D01*
X152671428Y-118571428D02*
X152071428Y-118571428D01*
X152071428Y-118428571D01*
X152100000Y-118342857D01*
X152157142Y-118285714D01*
X152214285Y-118257142D01*
X152328571Y-118228571D01*
X152414285Y-118228571D01*
X152528571Y-118257142D01*
X152585714Y-118285714D01*
X152642857Y-118342857D01*
X152671428Y-118428571D01*
X152671428Y-118571428D01*
X152671428Y-117971428D02*
X152071428Y-117971428D01*
X152671428Y-117628571D01*
X152071428Y-117628571D01*
X144842857Y-119328571D02*
X144842857Y-118871428D01*
D12*
G04 #@! TO.C,D7*
X149830952Y-85520238D02*
X149430952Y-85520238D01*
X149430952Y-85425000D01*
X149450000Y-85367857D01*
X149488095Y-85329761D01*
X149526190Y-85310714D01*
X149602380Y-85291666D01*
X149659523Y-85291666D01*
X149735714Y-85310714D01*
X149773809Y-85329761D01*
X149811904Y-85367857D01*
X149830952Y-85425000D01*
X149830952Y-85520238D01*
X149430952Y-85158333D02*
X149430952Y-84891666D01*
X149830952Y-85063095D01*
D11*
G04 #@! TO.C,J4*
X156802380Y-92488095D02*
X157611904Y-92488095D01*
X157707142Y-92440476D01*
X157754761Y-92392857D01*
X157802380Y-92297619D01*
X157802380Y-92107142D01*
X157754761Y-92011904D01*
X157707142Y-91964285D01*
X157611904Y-91916666D01*
X156802380Y-91916666D01*
X157754761Y-91488095D02*
X157802380Y-91345238D01*
X157802380Y-91107142D01*
X157754761Y-91011904D01*
X157707142Y-90964285D01*
X157611904Y-90916666D01*
X157516666Y-90916666D01*
X157421428Y-90964285D01*
X157373809Y-91011904D01*
X157326190Y-91107142D01*
X157278571Y-91297619D01*
X157230952Y-91392857D01*
X157183333Y-91440476D01*
X157088095Y-91488095D01*
X156992857Y-91488095D01*
X156897619Y-91440476D01*
X156850000Y-91392857D01*
X156802380Y-91297619D01*
X156802380Y-91059523D01*
X156850000Y-90916666D01*
X157278571Y-90154761D02*
X157326190Y-90011904D01*
X157373809Y-89964285D01*
X157469047Y-89916666D01*
X157611904Y-89916666D01*
X157707142Y-89964285D01*
X157754761Y-90011904D01*
X157802380Y-90107142D01*
X157802380Y-90488095D01*
X156802380Y-90488095D01*
X156802380Y-90154761D01*
X156850000Y-90059523D01*
X156897619Y-90011904D01*
X156992857Y-89964285D01*
X157088095Y-89964285D01*
X157183333Y-90011904D01*
X157230952Y-90059523D01*
X157278571Y-90154761D01*
X157278571Y-90488095D01*
X156802380Y-89583333D02*
X156802380Y-88964285D01*
X157183333Y-89297619D01*
X157183333Y-89154761D01*
X157230952Y-89059523D01*
X157278571Y-89011904D01*
X157373809Y-88964285D01*
X157611904Y-88964285D01*
X157707142Y-89011904D01*
X157754761Y-89059523D01*
X157802380Y-89154761D01*
X157802380Y-89440476D01*
X157754761Y-89535714D01*
X157707142Y-89583333D01*
G04 #@! TO.C,J6*
X142102380Y-106488095D02*
X142911904Y-106488095D01*
X143007142Y-106440476D01*
X143054761Y-106392857D01*
X143102380Y-106297619D01*
X143102380Y-106107142D01*
X143054761Y-106011904D01*
X143007142Y-105964285D01*
X142911904Y-105916666D01*
X142102380Y-105916666D01*
X143054761Y-105488095D02*
X143102380Y-105345238D01*
X143102380Y-105107142D01*
X143054761Y-105011904D01*
X143007142Y-104964285D01*
X142911904Y-104916666D01*
X142816666Y-104916666D01*
X142721428Y-104964285D01*
X142673809Y-105011904D01*
X142626190Y-105107142D01*
X142578571Y-105297619D01*
X142530952Y-105392857D01*
X142483333Y-105440476D01*
X142388095Y-105488095D01*
X142292857Y-105488095D01*
X142197619Y-105440476D01*
X142150000Y-105392857D01*
X142102380Y-105297619D01*
X142102380Y-105059523D01*
X142150000Y-104916666D01*
X142578571Y-104154761D02*
X142626190Y-104011904D01*
X142673809Y-103964285D01*
X142769047Y-103916666D01*
X142911904Y-103916666D01*
X143007142Y-103964285D01*
X143054761Y-104011904D01*
X143102380Y-104107142D01*
X143102380Y-104488095D01*
X142102380Y-104488095D01*
X142102380Y-104154761D01*
X142150000Y-104059523D01*
X142197619Y-104011904D01*
X142292857Y-103964285D01*
X142388095Y-103964285D01*
X142483333Y-104011904D01*
X142530952Y-104059523D01*
X142578571Y-104154761D01*
X142578571Y-104488095D01*
X142102380Y-103011904D02*
X142102380Y-103488095D01*
X142578571Y-103535714D01*
X142530952Y-103488095D01*
X142483333Y-103392857D01*
X142483333Y-103154761D01*
X142530952Y-103059523D01*
X142578571Y-103011904D01*
X142673809Y-102964285D01*
X142911904Y-102964285D01*
X143007142Y-103011904D01*
X143054761Y-103059523D01*
X143102380Y-103154761D01*
X143102380Y-103392857D01*
X143054761Y-103488095D01*
X143007142Y-103535714D01*
G04 #@! TO.C,J3*
X156802380Y-99488095D02*
X157611904Y-99488095D01*
X157707142Y-99440476D01*
X157754761Y-99392857D01*
X157802380Y-99297619D01*
X157802380Y-99107142D01*
X157754761Y-99011904D01*
X157707142Y-98964285D01*
X157611904Y-98916666D01*
X156802380Y-98916666D01*
X157754761Y-98488095D02*
X157802380Y-98345238D01*
X157802380Y-98107142D01*
X157754761Y-98011904D01*
X157707142Y-97964285D01*
X157611904Y-97916666D01*
X157516666Y-97916666D01*
X157421428Y-97964285D01*
X157373809Y-98011904D01*
X157326190Y-98107142D01*
X157278571Y-98297619D01*
X157230952Y-98392857D01*
X157183333Y-98440476D01*
X157088095Y-98488095D01*
X156992857Y-98488095D01*
X156897619Y-98440476D01*
X156850000Y-98392857D01*
X156802380Y-98297619D01*
X156802380Y-98059523D01*
X156850000Y-97916666D01*
X157278571Y-97154761D02*
X157326190Y-97011904D01*
X157373809Y-96964285D01*
X157469047Y-96916666D01*
X157611904Y-96916666D01*
X157707142Y-96964285D01*
X157754761Y-97011904D01*
X157802380Y-97107142D01*
X157802380Y-97488095D01*
X156802380Y-97488095D01*
X156802380Y-97154761D01*
X156850000Y-97059523D01*
X156897619Y-97011904D01*
X156992857Y-96964285D01*
X157088095Y-96964285D01*
X157183333Y-97011904D01*
X157230952Y-97059523D01*
X157278571Y-97154761D01*
X157278571Y-97488095D01*
X156897619Y-96535714D02*
X156850000Y-96488095D01*
X156802380Y-96392857D01*
X156802380Y-96154761D01*
X156850000Y-96059523D01*
X156897619Y-96011904D01*
X156992857Y-95964285D01*
X157088095Y-95964285D01*
X157230952Y-96011904D01*
X157802380Y-96583333D01*
X157802380Y-95964285D01*
G04 #@! TO.C,D4*
X150000000Y-96075000D02*
G75*
G02*
X150075000Y-96000000I75000J0D01*
G01*
X150725000Y-96000000D02*
G75*
G02*
X150800000Y-96075000I0J-75000D01*
G01*
G36*
X150875000Y-96075000D02*
G01*
X150875000Y-96975000D01*
X150750000Y-96975000D01*
X150725000Y-96950000D01*
X150725000Y-96075000D01*
X150075000Y-96075000D01*
X150075000Y-96950000D01*
X150050000Y-96975000D01*
X149925000Y-96975000D01*
X149925000Y-96075000D01*
X150075000Y-95925000D01*
X150725000Y-95925000D01*
X150875000Y-96075000D01*
G37*
D15*
G04 #@! TO.C,J7*
X145435000Y-94640000D02*
X147935000Y-94640000D01*
X145435000Y-100860000D02*
X147935000Y-100860000D01*
X143465000Y-95810000D02*
X143465000Y-99690000D01*
X147935000Y-94640000D02*
X147935000Y-95690000D01*
X147935000Y-95690000D02*
X148925000Y-95690000D01*
X147935000Y-100860000D02*
X147935000Y-99810000D01*
G04 #@! TO.C,J8*
X147935000Y-87640000D02*
X147935000Y-88690000D01*
X145435000Y-87640000D02*
X147935000Y-87640000D01*
X147935000Y-88690000D02*
X148925000Y-88690000D01*
X145435000Y-93860000D02*
X147935000Y-93860000D01*
X147935000Y-93860000D02*
X147935000Y-92810000D01*
X143465000Y-88810000D02*
X143465000Y-92690000D01*
D11*
G04 #@! TO.C,D10*
X150000000Y-106425000D02*
G75*
G02*
X149925000Y-106500000I-75000J0D01*
G01*
X149275000Y-106500000D02*
G75*
G02*
X149200000Y-106425000I0J75000D01*
G01*
G36*
X149275000Y-105550000D02*
G01*
X149275000Y-106425000D01*
X149925000Y-106425000D01*
X149925000Y-105550000D01*
X149950000Y-105525000D01*
X150075000Y-105525000D01*
X150075000Y-106425000D01*
X149925000Y-106575000D01*
X149275000Y-106575000D01*
X149125000Y-106425000D01*
X149125000Y-105525000D01*
X149250000Y-105525000D01*
X149275000Y-105550000D01*
G37*
G04 #@! TO.C,C18*
G36*
X149949998Y-93775000D02*
G01*
X149800000Y-93774998D01*
X149800002Y-93575000D01*
X149650000Y-93575000D01*
X149650000Y-93425000D01*
X149800002Y-93425000D01*
X149800002Y-93225000D01*
X149950000Y-93225000D01*
X149949998Y-93775000D01*
G37*
G36*
X150325000Y-94275000D02*
G01*
X149675000Y-94275000D01*
X149675000Y-94125000D01*
X150325000Y-94125000D01*
X150325000Y-94275000D01*
G37*
G36*
X150200000Y-93425000D02*
G01*
X150350000Y-93425000D01*
X150350000Y-93575000D01*
X150200000Y-93575000D01*
X150200000Y-93775000D01*
X150050000Y-93775000D01*
X150050000Y-93225000D01*
X150200000Y-93225000D01*
X150200000Y-93425000D01*
G37*
G36*
X150325000Y-92875000D02*
G01*
X149675000Y-92875000D01*
X149675000Y-92725000D01*
X150325000Y-92725000D01*
X150325000Y-92875000D01*
G37*
G04 #@! TO.C,C16*
G36*
X149949998Y-100775000D02*
G01*
X149800000Y-100774998D01*
X149800002Y-100575000D01*
X149650000Y-100575000D01*
X149650000Y-100425000D01*
X149800002Y-100425000D01*
X149800002Y-100225000D01*
X149950000Y-100225000D01*
X149949998Y-100775000D01*
G37*
G36*
X150325000Y-101275000D02*
G01*
X149675000Y-101275000D01*
X149675000Y-101125000D01*
X150325000Y-101125000D01*
X150325000Y-101275000D01*
G37*
G36*
X150200000Y-100425000D02*
G01*
X150350000Y-100425000D01*
X150350000Y-100575000D01*
X150200000Y-100575000D01*
X150200000Y-100775000D01*
X150050000Y-100775000D01*
X150050000Y-100225000D01*
X150200000Y-100225000D01*
X150200000Y-100425000D01*
G37*
G36*
X150325000Y-99875000D02*
G01*
X149675000Y-99875000D01*
X149675000Y-99725000D01*
X150325000Y-99725000D01*
X150325000Y-99875000D01*
G37*
G04 #@! TO.C,D15*
G36*
X147377792Y-86450000D02*
G01*
X147152792Y-86450000D01*
X147152792Y-86250000D01*
X146927792Y-86250000D01*
X146927792Y-86050000D01*
X147152792Y-86050000D01*
X147152792Y-85850000D01*
X147377792Y-85850000D01*
X147377792Y-86450000D01*
G37*
G36*
X148102792Y-86350000D02*
G01*
X147977792Y-86225000D01*
X147977792Y-86075000D01*
X148102792Y-85950000D01*
X148102792Y-86350000D01*
G37*
G36*
X147427792Y-86725000D02*
G01*
X147027792Y-86725000D01*
X147027792Y-86775000D01*
X146877792Y-86775000D01*
X146877792Y-86575000D01*
X147427792Y-86575000D01*
X147427792Y-86725000D01*
G37*
G36*
X146327792Y-86075000D02*
G01*
X146327792Y-86225000D01*
X146202792Y-86350000D01*
X146202792Y-85950000D01*
X146327792Y-86075000D01*
G37*
G36*
X147027792Y-85575000D02*
G01*
X147427792Y-85575000D01*
X147427792Y-85725000D01*
X146877792Y-85725000D01*
X146877792Y-85525000D01*
X147027792Y-85525000D01*
X147027792Y-85575000D01*
G37*
G04 #@! TO.C,C14*
G36*
X149949998Y-107775000D02*
G01*
X149800000Y-107774998D01*
X149800002Y-107575000D01*
X149650000Y-107575000D01*
X149650000Y-107425000D01*
X149800002Y-107425000D01*
X149800002Y-107225000D01*
X149950000Y-107225000D01*
X149949998Y-107775000D01*
G37*
G36*
X150325000Y-108275000D02*
G01*
X149675000Y-108275000D01*
X149675000Y-108125000D01*
X150325000Y-108125000D01*
X150325000Y-108275000D01*
G37*
G36*
X150200000Y-107425000D02*
G01*
X150350000Y-107425000D01*
X150350000Y-107575000D01*
X150200000Y-107575000D01*
X150200000Y-107775000D01*
X150050000Y-107775000D01*
X150050000Y-107225000D01*
X150200000Y-107225000D01*
X150200000Y-107425000D01*
G37*
G36*
X150325000Y-106875000D02*
G01*
X149675000Y-106875000D01*
X149675000Y-106725000D01*
X150325000Y-106725000D01*
X150325000Y-106875000D01*
G37*
G04 #@! TO.C,D8*
X150725000Y-82000000D02*
G75*
G02*
X150800000Y-82075000I0J-75000D01*
G01*
X150000000Y-82075000D02*
G75*
G02*
X150075000Y-82000000I75000J0D01*
G01*
G36*
X150875000Y-82075000D02*
G01*
X150875000Y-82975000D01*
X150750000Y-82975000D01*
X150725000Y-82950000D01*
X150725000Y-82075000D01*
X150075000Y-82075000D01*
X150075000Y-82950000D01*
X150050000Y-82975000D01*
X149925000Y-82975000D01*
X149925000Y-82075000D01*
X150075000Y-81925000D01*
X150725000Y-81925000D01*
X150875000Y-82075000D01*
G37*
G04 #@! TO.C,D9*
X149200000Y-103075000D02*
G75*
G02*
X149275000Y-103000000I75000J0D01*
G01*
X149925000Y-103000000D02*
G75*
G02*
X150000000Y-103075000I0J-75000D01*
G01*
G36*
X150075000Y-103075000D02*
G01*
X150075000Y-103975000D01*
X149950000Y-103975000D01*
X149925000Y-103950000D01*
X149925000Y-103075000D01*
X149275000Y-103075000D01*
X149275000Y-103950000D01*
X149250000Y-103975000D01*
X149125000Y-103975000D01*
X149125000Y-103075000D01*
X149275000Y-102925000D01*
X149925000Y-102925000D01*
X150075000Y-103075000D01*
G37*
G04 #@! TO.C,D16*
G36*
X148102792Y-84950000D02*
G01*
X147977792Y-84825000D01*
X147977792Y-84675000D01*
X148102792Y-84550000D01*
X148102792Y-84950000D01*
G37*
G36*
X147377792Y-85050000D02*
G01*
X147152792Y-85050000D01*
X147152792Y-84850000D01*
X146927792Y-84850000D01*
X146927792Y-84650000D01*
X147152792Y-84650000D01*
X147152792Y-84450000D01*
X147377792Y-84450000D01*
X147377792Y-85050000D01*
G37*
G36*
X147027792Y-84175000D02*
G01*
X147427792Y-84175000D01*
X147427792Y-84325000D01*
X146877792Y-84325000D01*
X146877792Y-84125000D01*
X147027792Y-84125000D01*
X147027792Y-84175000D01*
G37*
G36*
X146327792Y-84675000D02*
G01*
X146327792Y-84825000D01*
X146202792Y-84950000D01*
X146202792Y-84550000D01*
X146327792Y-84675000D01*
G37*
G36*
X147427792Y-85325000D02*
G01*
X147027792Y-85325000D01*
X147027792Y-85375000D01*
X146877792Y-85375000D01*
X146877792Y-85175000D01*
X147427792Y-85175000D01*
X147427792Y-85325000D01*
G37*
G04 #@! TO.C,D1*
X150075000Y-106500000D02*
G75*
G02*
X150000000Y-106425000I0J75000D01*
G01*
X150800000Y-106425000D02*
G75*
G02*
X150725000Y-106500000I-75000J0D01*
G01*
G36*
X150075000Y-105550000D02*
G01*
X150075000Y-106425000D01*
X150725000Y-106425000D01*
X150725000Y-105550000D01*
X150750000Y-105525000D01*
X150875000Y-105525000D01*
X150875000Y-106425000D01*
X150725000Y-106575000D01*
X150075000Y-106575000D01*
X149925000Y-106425000D01*
X149925000Y-105525000D01*
X150050000Y-105525000D01*
X150075000Y-105550000D01*
G37*
G04 #@! TO.C,D5*
X150800000Y-92425000D02*
G75*
G02*
X150725000Y-92500000I-75000J0D01*
G01*
X150075000Y-92500000D02*
G75*
G02*
X150000000Y-92425000I0J75000D01*
G01*
G36*
X150075000Y-91550000D02*
G01*
X150075000Y-92425000D01*
X150725000Y-92425000D01*
X150725000Y-91550000D01*
X150750000Y-91525000D01*
X150875000Y-91525000D01*
X150875000Y-92425000D01*
X150725000Y-92575000D01*
X150075000Y-92575000D01*
X149925000Y-92425000D01*
X149925000Y-91525000D01*
X150050000Y-91525000D01*
X150075000Y-91550000D01*
G37*
G04 #@! TO.C,D3*
X150800000Y-99425000D02*
G75*
G02*
X150725000Y-99500000I-75000J0D01*
G01*
X150075000Y-99500000D02*
G75*
G02*
X150000000Y-99425000I0J75000D01*
G01*
G36*
X150075000Y-98550000D02*
G01*
X150075000Y-99425000D01*
X150725000Y-99425000D01*
X150725000Y-98550000D01*
X150750000Y-98525000D01*
X150875000Y-98525000D01*
X150875000Y-99425000D01*
X150725000Y-99575000D01*
X150075000Y-99575000D01*
X149925000Y-99425000D01*
X149925000Y-98525000D01*
X150050000Y-98525000D01*
X150075000Y-98550000D01*
G37*
G04 #@! TO.C,C15*
G36*
X150325000Y-102775000D02*
G01*
X149675000Y-102775000D01*
X149675000Y-102625000D01*
X150325000Y-102625000D01*
X150325000Y-102775000D01*
G37*
G36*
X150325000Y-101375000D02*
G01*
X149675000Y-101375000D01*
X149675000Y-101225000D01*
X150325000Y-101225000D01*
X150325000Y-101375000D01*
G37*
G36*
X150200000Y-101725002D02*
G01*
X150199998Y-101925000D01*
X150350000Y-101925000D01*
X150350000Y-102075000D01*
X150199998Y-102075000D01*
X150199998Y-102275000D01*
X150050000Y-102275000D01*
X150050002Y-101725000D01*
X150200000Y-101725002D01*
G37*
G36*
X149950000Y-102275000D02*
G01*
X149800000Y-102275000D01*
X149800000Y-102075000D01*
X149650000Y-102075000D01*
X149650000Y-101925000D01*
X149800000Y-101925000D01*
X149800000Y-101725000D01*
X149950000Y-101725000D01*
X149950000Y-102275000D01*
G37*
D15*
G04 #@! TO.C,J2*
X154565000Y-107860000D02*
X152065000Y-107860000D01*
X152065000Y-101640000D02*
X152065000Y-102690000D01*
X152065000Y-106810000D02*
X151075000Y-106810000D01*
X152065000Y-107860000D02*
X152065000Y-106810000D01*
X156535000Y-106690000D02*
X156535000Y-102810000D01*
X154565000Y-101640000D02*
X152065000Y-101640000D01*
G04 #@! TO.C,D19*
G36*
X145027792Y-85575000D02*
G01*
X145427792Y-85575000D01*
X145427792Y-85725000D01*
X144877792Y-85725000D01*
X144877792Y-85525000D01*
X145027792Y-85525000D01*
X145027792Y-85575000D01*
G37*
G36*
X145377792Y-86450000D02*
G01*
X145152792Y-86450000D01*
X145152792Y-86250000D01*
X144927792Y-86250000D01*
X144927792Y-86050000D01*
X145152792Y-86050000D01*
X145152792Y-85850000D01*
X145377792Y-85850000D01*
X145377792Y-86450000D01*
G37*
G36*
X144327792Y-86075000D02*
G01*
X144327792Y-86225000D01*
X144202792Y-86350000D01*
X144202792Y-85950000D01*
X144327792Y-86075000D01*
G37*
G36*
X146102792Y-86350000D02*
G01*
X145977792Y-86225000D01*
X145977792Y-86075000D01*
X146102792Y-85950000D01*
X146102792Y-86350000D01*
G37*
G36*
X145427792Y-86725000D02*
G01*
X145027792Y-86725000D01*
X145027792Y-86775000D01*
X144877792Y-86775000D01*
X144877792Y-86575000D01*
X145427792Y-86575000D01*
X145427792Y-86725000D01*
G37*
G04 #@! TO.C,J5*
X154565000Y-80640000D02*
X152065000Y-80640000D01*
X152065000Y-86860000D02*
X152065000Y-85810000D01*
X152065000Y-80640000D02*
X152065000Y-81690000D01*
X156535000Y-85690000D02*
X156535000Y-81810000D01*
X152065000Y-85810000D02*
X151075000Y-85810000D01*
X154565000Y-86860000D02*
X152065000Y-86860000D01*
G04 #@! TO.C,C20*
G36*
X150325000Y-87275000D02*
G01*
X149675000Y-87275000D01*
X149675000Y-87125000D01*
X150325000Y-87125000D01*
X150325000Y-87275000D01*
G37*
G36*
X150325000Y-85875000D02*
G01*
X149675000Y-85875000D01*
X149675000Y-85725000D01*
X150325000Y-85725000D01*
X150325000Y-85875000D01*
G37*
G36*
X150200000Y-86425000D02*
G01*
X150350000Y-86425000D01*
X150350000Y-86575000D01*
X150200000Y-86575000D01*
X150200000Y-86775000D01*
X150050000Y-86775000D01*
X150050000Y-86225000D01*
X150200000Y-86225000D01*
X150200000Y-86425000D01*
G37*
G36*
X149949998Y-86775000D02*
G01*
X149800000Y-86774998D01*
X149800002Y-86575000D01*
X149650000Y-86575000D01*
X149650000Y-86425000D01*
X149800002Y-86425000D01*
X149800002Y-86225000D01*
X149950000Y-86225000D01*
X149949998Y-86775000D01*
G37*
G04 #@! TO.C,D20*
G36*
X145027792Y-84175000D02*
G01*
X145427792Y-84175000D01*
X145427792Y-84325000D01*
X144877792Y-84325000D01*
X144877792Y-84125000D01*
X145027792Y-84125000D01*
X145027792Y-84175000D01*
G37*
G36*
X144327792Y-84675000D02*
G01*
X144327792Y-84825000D01*
X144202792Y-84950000D01*
X144202792Y-84550000D01*
X144327792Y-84675000D01*
G37*
G36*
X146102792Y-84950000D02*
G01*
X145977792Y-84825000D01*
X145977792Y-84675000D01*
X146102792Y-84550000D01*
X146102792Y-84950000D01*
G37*
G36*
X145427792Y-85325000D02*
G01*
X145027792Y-85325000D01*
X145027792Y-85375000D01*
X144877792Y-85375000D01*
X144877792Y-85175000D01*
X145427792Y-85175000D01*
X145427792Y-85325000D01*
G37*
G36*
X145377792Y-85050000D02*
G01*
X145152792Y-85050000D01*
X145152792Y-84850000D01*
X144927792Y-84850000D01*
X144927792Y-84650000D01*
X145152792Y-84650000D01*
X145152792Y-84450000D01*
X145377792Y-84450000D01*
X145377792Y-85050000D01*
G37*
D11*
G04 #@! TO.C,D6*
X150000000Y-89075000D02*
G75*
G02*
X150075000Y-89000000I75000J0D01*
G01*
X150725000Y-89000000D02*
G75*
G02*
X150800000Y-89075000I0J-75000D01*
G01*
G36*
X150875000Y-89075000D02*
G01*
X150875000Y-89975000D01*
X150750000Y-89975000D01*
X150725000Y-89950000D01*
X150725000Y-89075000D01*
X150075000Y-89075000D01*
X150075000Y-89950000D01*
X150050000Y-89975000D01*
X149925000Y-89975000D01*
X149925000Y-89075000D01*
X150075000Y-88925000D01*
X150725000Y-88925000D01*
X150875000Y-89075000D01*
G37*
G04 #@! TO.C,C17*
G36*
X149950000Y-95225000D02*
G01*
X149800000Y-95225000D01*
X149800000Y-95025000D01*
X149650000Y-95025000D01*
X149650000Y-94875000D01*
X149800000Y-94875000D01*
X149800000Y-94675000D01*
X149950000Y-94675000D01*
X149950000Y-95225000D01*
G37*
G36*
X150200000Y-94675002D02*
G01*
X150199998Y-94875000D01*
X150350000Y-94875000D01*
X150350000Y-95025000D01*
X150199998Y-95025000D01*
X150199998Y-95225000D01*
X150050000Y-95225000D01*
X150050002Y-94675000D01*
X150200000Y-94675002D01*
G37*
G36*
X150325000Y-94325000D02*
G01*
X149675000Y-94325000D01*
X149675000Y-94175000D01*
X150325000Y-94175000D01*
X150325000Y-94325000D01*
G37*
G36*
X150325000Y-95725000D02*
G01*
X149675000Y-95725000D01*
X149675000Y-95575000D01*
X150325000Y-95575000D01*
X150325000Y-95725000D01*
G37*
G04 #@! TO.C,D7*
X150075000Y-85500000D02*
G75*
G02*
X150000000Y-85425000I0J75000D01*
G01*
X150800000Y-85425000D02*
G75*
G02*
X150725000Y-85500000I-75000J0D01*
G01*
G36*
X150075000Y-84550000D02*
G01*
X150075000Y-85425000D01*
X150725000Y-85425000D01*
X150725000Y-84550000D01*
X150750000Y-84525000D01*
X150875000Y-84525000D01*
X150875000Y-85425000D01*
X150725000Y-85575000D01*
X150075000Y-85575000D01*
X149925000Y-85425000D01*
X149925000Y-84525000D01*
X150050000Y-84525000D01*
X150075000Y-84550000D01*
G37*
G04 #@! TO.C,D14*
X150000000Y-92425000D02*
G75*
G02*
X149925000Y-92500000I-75000J0D01*
G01*
X149275000Y-92500000D02*
G75*
G02*
X149200000Y-92425000I0J75000D01*
G01*
G36*
X149275000Y-91550000D02*
G01*
X149275000Y-92425000D01*
X149925000Y-92425000D01*
X149925000Y-91550000D01*
X149950000Y-91525000D01*
X150075000Y-91525000D01*
X150075000Y-92425000D01*
X149925000Y-92575000D01*
X149275000Y-92575000D01*
X149125000Y-92425000D01*
X149125000Y-91525000D01*
X149250000Y-91525000D01*
X149275000Y-91550000D01*
G37*
G04 #@! TO.C,D21*
G36*
X146102792Y-83550000D02*
G01*
X145977792Y-83425000D01*
X145977792Y-83275000D01*
X146102792Y-83150000D01*
X146102792Y-83550000D01*
G37*
G36*
X145427792Y-83925000D02*
G01*
X145027792Y-83925000D01*
X145027792Y-83975000D01*
X144877792Y-83975000D01*
X144877792Y-83775000D01*
X145427792Y-83775000D01*
X145427792Y-83925000D01*
G37*
G36*
X144327792Y-83275000D02*
G01*
X144327792Y-83425000D01*
X144202792Y-83550000D01*
X144202792Y-83150000D01*
X144327792Y-83275000D01*
G37*
G36*
X145377792Y-83650000D02*
G01*
X145152792Y-83650000D01*
X145152792Y-83450000D01*
X144927792Y-83450000D01*
X144927792Y-83250000D01*
X145152792Y-83250000D01*
X145152792Y-83050000D01*
X145377792Y-83050000D01*
X145377792Y-83650000D01*
G37*
G36*
X145027792Y-82775000D02*
G01*
X145427792Y-82775000D01*
X145427792Y-82925000D01*
X144877792Y-82925000D01*
X144877792Y-82725000D01*
X145027792Y-82725000D01*
X145027792Y-82775000D01*
G37*
D15*
G04 #@! TO.C,J4*
X156535000Y-92690000D02*
X156535000Y-88810000D01*
X152065000Y-93860000D02*
X152065000Y-92810000D01*
X154565000Y-87640000D02*
X152065000Y-87640000D01*
X152065000Y-92810000D02*
X151075000Y-92810000D01*
X154565000Y-93860000D02*
X152065000Y-93860000D01*
X152065000Y-87640000D02*
X152065000Y-88690000D01*
D11*
G04 #@! TO.C,D11*
X149200000Y-96075000D02*
G75*
G02*
X149275000Y-96000000I75000J0D01*
G01*
X149925000Y-96000000D02*
G75*
G02*
X150000000Y-96075000I0J-75000D01*
G01*
G36*
X150075000Y-96075000D02*
G01*
X150075000Y-96975000D01*
X149950000Y-96975000D01*
X149925000Y-96950000D01*
X149925000Y-96075000D01*
X149275000Y-96075000D01*
X149275000Y-96950000D01*
X149250000Y-96975000D01*
X149125000Y-96975000D01*
X149125000Y-96075000D01*
X149275000Y-95925000D01*
X149925000Y-95925000D01*
X150075000Y-96075000D01*
G37*
D15*
G04 #@! TO.C,J6*
X147935000Y-102690000D02*
X148925000Y-102690000D01*
X145435000Y-107860000D02*
X147935000Y-107860000D01*
X145435000Y-101640000D02*
X147935000Y-101640000D01*
X143465000Y-102810000D02*
X143465000Y-106690000D01*
X147935000Y-107860000D02*
X147935000Y-106810000D01*
X147935000Y-101640000D02*
X147935000Y-102690000D01*
G04 #@! TO.C,C19*
G36*
X150325000Y-88775000D02*
G01*
X149675000Y-88775000D01*
X149675000Y-88625000D01*
X150325000Y-88625000D01*
X150325000Y-88775000D01*
G37*
G36*
X150200000Y-87725002D02*
G01*
X150199998Y-87925000D01*
X150350000Y-87925000D01*
X150350000Y-88075000D01*
X150199998Y-88075000D01*
X150199998Y-88275000D01*
X150050000Y-88275000D01*
X150050002Y-87725000D01*
X150200000Y-87725002D01*
G37*
G36*
X150325000Y-87375000D02*
G01*
X149675000Y-87375000D01*
X149675000Y-87225000D01*
X150325000Y-87225000D01*
X150325000Y-87375000D01*
G37*
G36*
X149950000Y-88275000D02*
G01*
X149800000Y-88275000D01*
X149800000Y-88075000D01*
X149650000Y-88075000D01*
X149650000Y-87925000D01*
X149800000Y-87925000D01*
X149800000Y-87725000D01*
X149950000Y-87725000D01*
X149950000Y-88275000D01*
G37*
G04 #@! TO.C,D17*
G36*
X147027792Y-82775000D02*
G01*
X147427792Y-82775000D01*
X147427792Y-82925000D01*
X146877792Y-82925000D01*
X146877792Y-82725000D01*
X147027792Y-82725000D01*
X147027792Y-82775000D01*
G37*
G36*
X146327792Y-83275000D02*
G01*
X146327792Y-83425000D01*
X146202792Y-83550000D01*
X146202792Y-83150000D01*
X146327792Y-83275000D01*
G37*
G36*
X147377792Y-83650000D02*
G01*
X147152792Y-83650000D01*
X147152792Y-83450000D01*
X146927792Y-83450000D01*
X146927792Y-83250000D01*
X147152792Y-83250000D01*
X147152792Y-83050000D01*
X147377792Y-83050000D01*
X147377792Y-83650000D01*
G37*
G36*
X147427792Y-83925000D02*
G01*
X147027792Y-83925000D01*
X147027792Y-83975000D01*
X146877792Y-83975000D01*
X146877792Y-83775000D01*
X147427792Y-83775000D01*
X147427792Y-83925000D01*
G37*
G36*
X148102792Y-83550000D02*
G01*
X147977792Y-83425000D01*
X147977792Y-83275000D01*
X148102792Y-83150000D01*
X148102792Y-83550000D01*
G37*
G04 #@! TO.C,D18*
G36*
X148102792Y-82150000D02*
G01*
X147977792Y-82025000D01*
X147977792Y-81875000D01*
X148102792Y-81750000D01*
X148102792Y-82150000D01*
G37*
G36*
X147377792Y-82250000D02*
G01*
X147152792Y-82250000D01*
X147152792Y-82050000D01*
X146927792Y-82050000D01*
X146927792Y-81850000D01*
X147152792Y-81850000D01*
X147152792Y-81650000D01*
X147377792Y-81650000D01*
X147377792Y-82250000D01*
G37*
G36*
X147027792Y-81375000D02*
G01*
X147427792Y-81375000D01*
X147427792Y-81525000D01*
X146877792Y-81525000D01*
X146877792Y-81325000D01*
X147027792Y-81325000D01*
X147027792Y-81375000D01*
G37*
G36*
X146327792Y-81875000D02*
G01*
X146327792Y-82025000D01*
X146202792Y-82150000D01*
X146202792Y-81750000D01*
X146327792Y-81875000D01*
G37*
G36*
X147427792Y-82525000D02*
G01*
X147027792Y-82525000D01*
X147027792Y-82575000D01*
X146877792Y-82575000D01*
X146877792Y-82375000D01*
X147427792Y-82375000D01*
X147427792Y-82525000D01*
G37*
D11*
G04 #@! TO.C,D2*
X150000000Y-103075000D02*
G75*
G02*
X150075000Y-103000000I75000J0D01*
G01*
X150725000Y-103000000D02*
G75*
G02*
X150800000Y-103075000I0J-75000D01*
G01*
G36*
X150875000Y-103075000D02*
G01*
X150875000Y-103975000D01*
X150750000Y-103975000D01*
X150725000Y-103950000D01*
X150725000Y-103075000D01*
X150075000Y-103075000D01*
X150075000Y-103950000D01*
X150050000Y-103975000D01*
X149925000Y-103975000D01*
X149925000Y-103075000D01*
X150075000Y-102925000D01*
X150725000Y-102925000D01*
X150875000Y-103075000D01*
G37*
G04 #@! TO.C,D12*
X149275000Y-99500000D02*
G75*
G02*
X149200000Y-99425000I0J75000D01*
G01*
X150000000Y-99425000D02*
G75*
G02*
X149925000Y-99500000I-75000J0D01*
G01*
G36*
X149275000Y-98550000D02*
G01*
X149275000Y-99425000D01*
X149925000Y-99425000D01*
X149925000Y-98550000D01*
X149950000Y-98525000D01*
X150075000Y-98525000D01*
X150075000Y-99425000D01*
X149925000Y-99575000D01*
X149275000Y-99575000D01*
X149125000Y-99425000D01*
X149125000Y-98525000D01*
X149250000Y-98525000D01*
X149275000Y-98550000D01*
G37*
D15*
G04 #@! TO.C,J3*
X156535000Y-99690000D02*
X156535000Y-95810000D01*
X154565000Y-94640000D02*
X152065000Y-94640000D01*
X152065000Y-100860000D02*
X152065000Y-99810000D01*
X154565000Y-100860000D02*
X152065000Y-100860000D01*
X152065000Y-99810000D02*
X151075000Y-99810000D01*
X152065000Y-94640000D02*
X152065000Y-95690000D01*
D11*
G04 #@! TO.C,D13*
X149925000Y-89000000D02*
G75*
G02*
X150000000Y-89075000I0J-75000D01*
G01*
X149200000Y-89075000D02*
G75*
G02*
X149275000Y-89000000I75000J0D01*
G01*
G36*
X150075000Y-89075000D02*
G01*
X150075000Y-89975000D01*
X149950000Y-89975000D01*
X149925000Y-89950000D01*
X149925000Y-89075000D01*
X149275000Y-89075000D01*
X149275000Y-89950000D01*
X149250000Y-89975000D01*
X149125000Y-89975000D01*
X149125000Y-89075000D01*
X149275000Y-88925000D01*
X149925000Y-88925000D01*
X150075000Y-89075000D01*
G37*
G04 #@! TD*
M02*
