G04 #@! TF.GenerationSoftware,KiCad,Pcbnew,(5.99.0-8557-gaf5825bd36)*
G04 #@! TF.CreationDate,2021-01-26T13:49:00+03:00*
G04 #@! TF.ProjectId,StickHub,53746963-6b48-4756-922e-6b696361645f,rev?*
G04 #@! TF.SameCoordinates,Original*
G04 #@! TF.FileFunction,Paste,Top*
G04 #@! TF.FilePolarity,Positive*
%FSLAX46Y46*%
G04 Gerber Fmt 4.6, Leading zero omitted, Abs format (unit mm)*
G04 Created by KiCad (PCBNEW (5.99.0-8557-gaf5825bd36)) date 2021-01-26 13:49:00*
%MOMM*%
%LPD*%
G01*
G04 APERTURE LIST*
G04 Aperture macros list*
%AMRoundRect*
0 Rectangle with rounded corners*
0 $1 Rounding radius*
0 $2 $3 $4 $5 $6 $7 $8 $9 X,Y pos of 4 corners*
0 Add a 4 corners polygon primitive as box body*
4,1,4,$2,$3,$4,$5,$6,$7,$8,$9,$2,$3,0*
0 Add four circle primitives for the rounded corners*
1,1,$1+$1,$2,$3*
1,1,$1+$1,$4,$5*
1,1,$1+$1,$6,$7*
1,1,$1+$1,$8,$9*
0 Add four rect primitives between the rounded corners*
20,1,$1+$1,$2,$3,$4,$5,0*
20,1,$1+$1,$4,$5,$6,$7,0*
20,1,$1+$1,$6,$7,$8,$9,0*
20,1,$1+$1,$8,$9,$2,$3,0*%
G04 Aperture macros list end*
G04 #@! TA.AperFunction,Profile*
%ADD10C,0.100000*%
G04 #@! TD*
%ADD11RoundRect,0.045000X-0.235000X0.135000X-0.235000X-0.135000X0.235000X-0.135000X0.235000X0.135000X0*%
%ADD12RoundRect,0.150000X-0.625000X0.150000X-0.625000X-0.150000X0.625000X-0.150000X0.625000X0.150000X0*%
%ADD13RoundRect,0.250000X-0.650000X0.350000X-0.650000X-0.350000X0.650000X-0.350000X0.650000X0.350000X0*%
%ADD14RoundRect,0.045000X0.235000X-0.135000X0.235000X0.135000X-0.235000X0.135000X-0.235000X-0.135000X0*%
%ADD15RoundRect,0.055000X0.220000X0.495000X-0.220000X0.495000X-0.220000X-0.495000X0.220000X-0.495000X0*%
%ADD16RoundRect,0.054000X-0.176000X-0.126000X0.176000X-0.126000X0.176000X0.126000X-0.176000X0.126000X0*%
%ADD17RoundRect,0.055000X-0.220000X-0.495000X0.220000X-0.495000X0.220000X0.495000X-0.220000X0.495000X0*%
%ADD18RoundRect,0.150000X0.625000X-0.150000X0.625000X0.150000X-0.625000X0.150000X-0.625000X-0.150000X0*%
%ADD19RoundRect,0.250000X0.650000X-0.350000X0.650000X0.350000X-0.650000X0.350000X-0.650000X-0.350000X0*%
G04 APERTURE END LIST*
D10*
X152250000Y-80000000D02*
X157000000Y-80000000D01*
X148500000Y-81000000D02*
X151500000Y-81000000D01*
X157000000Y-108500000D02*
X156100000Y-108500000D01*
X141750000Y-107250000D02*
X141750000Y-81250000D01*
X156100000Y-120000000D02*
X156100000Y-108500000D01*
X148000000Y-80250000D02*
X148000000Y-80500000D01*
X152000000Y-80250000D02*
G75*
G02*
X152250000Y-80000000I250000J0D01*
G01*
X143900000Y-120000000D02*
X143900000Y-108500000D01*
X141750000Y-81250000D02*
G75*
G02*
X143000000Y-80000000I1250000J0D01*
G01*
X147750000Y-80000000D02*
G75*
G02*
X148000000Y-80250000I0J-250000D01*
G01*
X143000000Y-108500000D02*
G75*
G02*
X141750000Y-107250000I0J1250000D01*
G01*
X143900000Y-120000000D02*
X156100000Y-120000000D01*
X158250000Y-81250000D02*
X158250000Y-107250000D01*
X143000000Y-80000000D02*
X147750000Y-80000000D01*
X158250000Y-107250000D02*
G75*
G02*
X157000000Y-108500000I-1250000J0D01*
G01*
X157000000Y-80000000D02*
G75*
G02*
X158250000Y-81250000I0J-1250000D01*
G01*
X148500000Y-81000000D02*
G75*
G02*
X148000000Y-80500000I0J500000D01*
G01*
X143900000Y-108500000D02*
X143000000Y-108500000D01*
X152000000Y-80500000D02*
G75*
G02*
X151500000Y-81000000I-500000J0D01*
G01*
X152000000Y-80500000D02*
X152000000Y-80250000D01*
D11*
G04 #@! TO.C,D4*
X150400000Y-96300000D03*
X150400000Y-97200000D03*
G04 #@! TD*
D12*
G04 #@! TO.C,J7*
X148150000Y-96250000D03*
X148150000Y-97250000D03*
X148150000Y-98250000D03*
X148150000Y-99250000D03*
D13*
X144275000Y-94950000D03*
X144275000Y-100550000D03*
G04 #@! TD*
D12*
G04 #@! TO.C,J8*
X148150000Y-89250000D03*
X148150000Y-90250000D03*
X148150000Y-91250000D03*
X148150000Y-92250000D03*
D13*
X144275000Y-93550000D03*
X144275000Y-87950000D03*
G04 #@! TD*
D14*
G04 #@! TO.C,D10*
X149600000Y-106200000D03*
X149600000Y-105300000D03*
G04 #@! TD*
D15*
G04 #@! TO.C,C18*
X150825000Y-93500000D03*
X149175000Y-93500000D03*
G04 #@! TD*
G04 #@! TO.C,C16*
X150825000Y-100500000D03*
X149175000Y-100500000D03*
G04 #@! TD*
D16*
G04 #@! TO.C,D15*
X147752792Y-86500000D03*
X146552792Y-86500000D03*
X147752792Y-85800000D03*
X146552792Y-85800000D03*
G04 #@! TD*
D15*
G04 #@! TO.C,C14*
X150825000Y-107500000D03*
X149175000Y-107500000D03*
G04 #@! TD*
D11*
G04 #@! TO.C,D8*
X150400000Y-82300000D03*
X150400000Y-83200000D03*
G04 #@! TD*
G04 #@! TO.C,D9*
X149600000Y-103300000D03*
X149600000Y-104200000D03*
G04 #@! TD*
D16*
G04 #@! TO.C,D16*
X147752792Y-85100000D03*
X146552792Y-85100000D03*
X147752792Y-84400000D03*
X146552792Y-84400000D03*
G04 #@! TD*
D14*
G04 #@! TO.C,D1*
X150400000Y-106200000D03*
X150400000Y-105300000D03*
G04 #@! TD*
G04 #@! TO.C,D5*
X150400000Y-92200000D03*
X150400000Y-91300000D03*
G04 #@! TD*
G04 #@! TO.C,D3*
X150400000Y-99200000D03*
X150400000Y-98300000D03*
G04 #@! TD*
D17*
G04 #@! TO.C,C15*
X149175000Y-102000000D03*
X150825000Y-102000000D03*
G04 #@! TD*
D18*
G04 #@! TO.C,J2*
X151850000Y-106250000D03*
X151850000Y-105250000D03*
X151850000Y-104250000D03*
X151850000Y-103250000D03*
D19*
X155725000Y-101950000D03*
X155725000Y-107550000D03*
G04 #@! TD*
D16*
G04 #@! TO.C,D19*
X145752792Y-86500000D03*
X144552792Y-86500000D03*
X145752792Y-85800000D03*
X144552792Y-85800000D03*
G04 #@! TD*
D18*
G04 #@! TO.C,J5*
X151850000Y-85250000D03*
X151850000Y-84250000D03*
X151850000Y-83250000D03*
X151850000Y-82250000D03*
D19*
X155725000Y-86550000D03*
X155725000Y-80950000D03*
G04 #@! TD*
D15*
G04 #@! TO.C,C20*
X150825000Y-86500000D03*
X149175000Y-86500000D03*
G04 #@! TD*
D16*
G04 #@! TO.C,D20*
X145752792Y-85100000D03*
X144552792Y-85100000D03*
X145752792Y-84400000D03*
X144552792Y-84400000D03*
G04 #@! TD*
D11*
G04 #@! TO.C,D6*
X150400000Y-89300000D03*
X150400000Y-90200000D03*
G04 #@! TD*
D17*
G04 #@! TO.C,C17*
X149175000Y-94950000D03*
X150825000Y-94950000D03*
G04 #@! TD*
D14*
G04 #@! TO.C,D7*
X150400000Y-85200000D03*
X150400000Y-84300000D03*
G04 #@! TD*
G04 #@! TO.C,D14*
X149600000Y-92200000D03*
X149600000Y-91300000D03*
G04 #@! TD*
D16*
G04 #@! TO.C,D21*
X145752792Y-83700000D03*
X144552792Y-83700000D03*
X145752792Y-83000000D03*
X144552792Y-83000000D03*
G04 #@! TD*
D18*
G04 #@! TO.C,J4*
X151850000Y-92250000D03*
X151850000Y-91250000D03*
X151850000Y-90250000D03*
X151850000Y-89250000D03*
D19*
X155725000Y-87950000D03*
X155725000Y-93550000D03*
G04 #@! TD*
D11*
G04 #@! TO.C,D11*
X149600000Y-96300000D03*
X149600000Y-97200000D03*
G04 #@! TD*
D12*
G04 #@! TO.C,J6*
X148150000Y-103250000D03*
X148150000Y-104250000D03*
X148150000Y-105250000D03*
X148150000Y-106250000D03*
D13*
X144275000Y-101950000D03*
X144275000Y-107550000D03*
G04 #@! TD*
D17*
G04 #@! TO.C,C19*
X149175000Y-88000000D03*
X150825000Y-88000000D03*
G04 #@! TD*
D16*
G04 #@! TO.C,D17*
X147752792Y-83700000D03*
X146552792Y-83700000D03*
X147752792Y-83000000D03*
X146552792Y-83000000D03*
G04 #@! TD*
G04 #@! TO.C,D18*
X147752792Y-82300000D03*
X146552792Y-82300000D03*
X147752792Y-81600000D03*
X146552792Y-81600000D03*
G04 #@! TD*
D11*
G04 #@! TO.C,D2*
X150400000Y-103300000D03*
X150400000Y-104200000D03*
G04 #@! TD*
D14*
G04 #@! TO.C,D12*
X149600000Y-99200000D03*
X149600000Y-98300000D03*
G04 #@! TD*
D18*
G04 #@! TO.C,J3*
X151850000Y-99250000D03*
X151850000Y-98250000D03*
X151850000Y-97250000D03*
X151850000Y-96250000D03*
D19*
X155725000Y-94950000D03*
X155725000Y-100550000D03*
G04 #@! TD*
D11*
G04 #@! TO.C,D13*
X149600000Y-89300000D03*
X149600000Y-90200000D03*
G04 #@! TD*
M02*
